<svg width="178" height="178" viewBox="0 0 178 178" fill="none" xmlns="http://www.w3.org/2000/svg">
<g clip-path="url(#clip0_28668_433)">
<path d="M155.461 35.2769V159.6C155.461 169.393 147.521 177.333 137.728 177.333H40.1955C30.4016 177.333 22.4622 169.393 22.4622 159.6V17.7333C22.4622 7.9395 30.4016 0 40.1955 0H117.054L155.461 35.2769Z" fill="#F2F4F7"/>
<path d="M155.461 35.2769H121.488C119.039 35.2769 117.055 33.292 117.055 30.8434V0L155.461 35.2769Z" fill="#DEDEDE"/>
<g clip-path="url(#clip1_28668_433)">
<path d="M138.872 99.5676C138.955 98.3889 139 97.1998 139 96C139 68.3857 116.614 46 89 46C61.3857 46 39 68.3857 39 96C39 119.002 54.5332 138.373 75.6814 144.203L138.872 99.5676Z" fill="#9E7120"/>
<path d="M138.872 99.5675L100.522 61.2173L62.261 130.783L75.6817 144.203C79.9223 145.372 84.3877 146 89 146C115.415 146 137.042 125.517 138.872 99.5675Z" fill="#6C4E16"/>
<path d="M93.361 111.217L88.9436 61.2173H62.261V106.869L93.361 111.217Z" fill="white"/>
<path d="M115.739 106.869V76.4347L104.87 72.0868L100.522 61.2173H88.9436L89.0131 111.217L115.739 106.869Z" fill="#E8E6E6"/>
<path d="M100.522 76.4347V61.2173L115.739 76.4347H100.522Z" fill="white"/>
<path d="M115.739 106.87H62.261V130.783H115.739V106.87Z" fill="#FCB433"/>
<path d="M84.1584 122.094L83.4047 124H80.6996L85.1635 113.654H87.8685L92.2289 124H89.4205L88.6816 122.094H84.1584ZM86.4347 116.27L84.9269 120.098H87.9131L86.4347 116.27Z" fill="white"/>
<path d="M93.5603 124V113.654H96.1914V124H93.5603Z" fill="white"/>
</g>
</g>
<defs>
<clipPath id="clip0_28668_433">
<rect width="177.333" height="177.333" fill="white"/>
</clipPath>
<clipPath id="clip1_28668_433">
<rect width="100" height="100" fill="white" transform="translate(39 46)"/>
</clipPath>
</defs>
</svg>
