<svg width="178" height="178" viewBox="0 0 178 178" fill="none" xmlns="http://www.w3.org/2000/svg">
<g clip-path="url(#clip0_28668_86)">
<path d="M155.461 35.2769V159.6C155.461 169.393 147.521 177.333 137.728 177.333H40.1955C30.4016 177.333 22.4622 169.393 22.4622 159.6V17.7333C22.4622 7.9395 30.4016 0 40.1955 0H117.054L155.461 35.2769Z" fill="#F2F4F7"/>
<path d="M155.461 35.2769H121.488C119.039 35.2769 117.055 33.292 117.055 30.8434V0L155.461 35.2769Z" fill="#DEDEDE"/>
<g clip-path="url(#clip1_28668_86)">
<path d="M119 58H59C53.4776 58 49 62.4776 49 68V128C49 133.523 53.4776 138 59 138H119C124.523 138 129 133.522 129 128V68C129 62.4776 124.523 58 119 58Z" fill="url(#paint0_linear_28668_86)"/>
<path opacity="0.4" d="M129 128V96.6076L107.796 75.4023L105.602 76.4768H71.6172L70.1307 77.9921L72.0371 79.8948L66.0182 80.1227V106.946L65.0581 107.91L95.1485 138H119C124.522 138 129 133.523 129 128Z" fill="black"/>
<path d="M64.7812 79.2666V107.91H89.3648V79.2666H64.7812ZM87.566 106.191H66.58V95.3071H87.5659V106.191H87.566ZM66.58 80.9854H87.5659V91.8701H66.58V80.9854Z" fill="white"/>
<path d="M67.7792 82.1313V90.7246H86.367V82.1313H67.7792ZM81.5702 87.8604H72.5757V85.5691H81.5703V87.8604H81.5702Z" fill="white"/>
<path d="M67.7792 96.4526V105.045H86.367V96.4526H67.7792ZM81.5702 102.182H72.5757V99.8904H81.5703V102.182H81.5702Z" fill="white"/>
<path d="M109.44 123V121.097H106.891V123H94.9639V121.097H91.8252V123H88.0586V116.136H91.8251V118.601H94.9639V116.136H96.2195V111.781H94.9639L92.4529 114.183H73.1677L69.8536 110.888V109.191H89.9418L94.9637 104.293H98.1026V102.995H97.475C96.7846 102.995 96.2195 102.44 96.2195 101.747C96.2195 101.061 96.7846 100.499 97.475 100.499H98.1026V97.9973H97.475C96.7846 97.9973 96.2195 97.4476 96.2195 96.7492C96.2195 96.0692 96.7846 95.5011 97.475 95.5011H98.1026V93.0113H97.475C96.7846 93.0113 96.2195 92.4556 96.2195 91.7632C96.2195 91.0772 96.7846 90.5153 97.475 90.5153H98.1026V87.4015H97.475C96.7846 87.4015 96.2195 86.8457 96.2195 86.1534C96.2195 85.4674 96.7846 84.9054 97.475 84.9054H98.1026V82.8898H94.9637L89.9418 77.9918H69.8537V76.2948L73.1679 73H92.4531L94.9641 75.4021H107.519V82.89H103.753V83.6578H103.765C104.456 83.6578 105.02 84.2195 105.02 84.9057C105.02 85.598 104.456 86.1538 103.765 86.1538H103.753V89.2676H103.765C104.456 89.2676 105.02 89.8295 105.02 90.5156C105.02 91.2079 104.456 91.7635 103.765 91.7635H103.753V94.2534H103.765C104.456 94.2534 105.02 94.8214 105.02 95.5013C105.02 96.1997 104.456 96.7495 103.765 96.7495H103.753V99.2513H103.765C104.456 99.2513 105.02 99.8128 105.02 100.499C105.02 101.192 104.456 101.748 103.765 101.748H103.753V104.294H107.519V111.781H105.636V116.136H106.891V118.601H109.44V116.136H113.206L113.219 123H109.44Z" fill="white"/>
</g>
</g>
<defs>
<linearGradient id="paint0_linear_28668_86" x1="63.5089" y1="53.8481" x2="114.491" y2="142.152" gradientUnits="userSpaceOnUse">
<stop stop-color="#5283CC"/>
<stop offset="1" stop-color="#3D5C99"/>
</linearGradient>
<clipPath id="clip0_28668_86">
<rect width="177.333" height="177.333" fill="white"/>
</clipPath>
<clipPath id="clip1_28668_86">
<rect width="80" height="80" fill="white" transform="translate(49 58)"/>
</clipPath>
</defs>
</svg>
