<svg width="178" height="178" viewBox="0 0 178 178" fill="none" xmlns="http://www.w3.org/2000/svg">
<g clip-path="url(#clip0_28668_345)">
<path d="M155.461 35.2769V159.6C155.461 169.393 147.521 177.333 137.728 177.333H40.1955C30.4016 177.333 22.4622 169.393 22.4622 159.6V17.7333C22.4622 7.9395 30.4016 0 40.1955 0H117.054L155.461 35.2769Z" fill="#F2F4F7"/>
<path d="M155.461 35.2769H121.488C119.039 35.2769 117.055 33.292 117.055 30.8434V0L155.461 35.2769Z" fill="#DEDEDE"/>
<path d="M124 54H69V94H64C55.7158 94 49 100.715 49 109C49 117.285 55.7158 124 64 124C72.2842 124 79 117.285 79 109V74H114V94H109C100.715 94 94 100.715 94 109C94 117.285 100.715 124 109 124C117.285 124 124 117.285 124 109V54Z" fill="#6F6F6F"/>
</g>
<defs>
<clipPath id="clip0_28668_345">
<rect width="177.333" height="177.333" fill="white"/>
</clipPath>
</defs>
</svg>
