<svg width="178" height="178" viewBox="0 0 178 178" fill="none" xmlns="http://www.w3.org/2000/svg">
<g clip-path="url(#clip0_28661_1426)">
<path d="M155.461 35.2769V159.6C155.461 169.393 147.521 177.333 137.728 177.333H40.1955C30.4016 177.333 22.4622 169.393 22.4622 159.6V17.7333C22.4622 7.9395 30.4016 0 40.1955 0H117.054L155.461 35.2769Z" fill="#F2F4F7"/>
<path d="M155.461 35.2769H121.488C119.039 35.2769 117.055 33.292 117.055 30.8434V0L155.461 35.2769Z" fill="#DEDEDE"/>
<path d="M50 98.8027V116.234C50.1465 125.385 65.2051 132.787 88.5742 132.787C111.943 132.787 126.992 125.385 127.148 116.234V98.8027H50Z" fill="#1B9BDB"/>
<path d="M127.148 98.7344C127.148 108.441 112.031 116.312 88.5742 116.312C65.1172 116.312 50 108.441 50 98.7344C50 89.0273 65.1172 81.1562 88.5742 81.1562C112.031 81.1562 127.148 89.0176 127.148 98.7344Z" fill="white"/>
<path d="M50 81.2246V96.7031C50.1465 105.854 65.2051 114.232 88.5742 114.232C111.943 114.232 126.992 105.854 127.148 96.7031V81.2246H50Z" fill="#1B9BDB"/>
<path d="M127.148 81.1563C127.148 90.8633 112.031 98.7344 88.5742 98.7344C65.1172 98.7344 50 90.8633 50 81.1563C50 71.4492 65.1172 63.5781 88.5742 63.5781C112.031 63.5781 127.148 71.4395 127.148 81.1563Z" fill="white"/>
<path d="M50 63.6465V79.125C50.1465 88.2754 65.2051 96.6543 88.5742 96.6543C111.943 96.6543 126.992 88.2754 127.148 79.125V63.6465H50Z" fill="#1B9BDB"/>
<path d="M127.148 63.5781C127.148 73.2852 112.031 81.1562 88.5742 81.1562C65.1172 81.1562 50 73.2852 50 63.5781C50 53.8711 65.1172 46 88.5742 46C112.031 46 127.148 53.8613 127.148 63.5781Z" fill="#3ED6FF"/>
</g>
<defs>
<clipPath id="clip0_28661_1426">
<rect width="177.333" height="177.333" fill="white"/>
</clipPath>
</defs>
</svg>
