<svg width="178" height="178" viewBox="0 0 178 178" fill="none" xmlns="http://www.w3.org/2000/svg">
<g clip-path="url(#clip0_28654_59)">
<path d="M155.461 35.2769V159.6C155.461 169.393 147.521 177.333 137.728 177.333H40.1955C30.4016 177.333 22.4622 169.393 22.4622 159.6V17.7333C22.4622 7.9395 30.4016 0 40.1955 0H117.054L155.461 35.2769Z" fill="#F2F4F7"/>
<g clip-path="url(#clip1_28654_59)">
<path d="M100 96L66 90V134.334C66 136.359 67.6413 138 69.666 138H128.334C130.359 138 132 136.359 132 134.334V118L100 96Z" fill="#185C37"/>
<path d="M100 58H69.666C67.6413 58 66 59.6413 66 61.666V78L100 98L118 104L132 98V78L100 58Z" fill="#21A366"/>
<path d="M66 78H100V98H66V78Z" fill="#107C41"/>
<path opacity="0.1" d="M90.334 74H66V124H90.334C92.3559 123.993 93.9934 122.356 94 120.334V77.666C93.9934 75.6441 92.3559 74.0066 90.334 74Z" fill="black"/>
<path opacity="0.2" d="M88.334 76H66V126H88.334C90.3559 125.993 91.9934 124.356 92 122.334V79.666C91.9934 77.6441 90.3559 76.0066 88.334 76Z" fill="black"/>
<path opacity="0.2" d="M88.334 76H66V122H88.334C90.3559 121.993 91.9934 120.356 92 118.334V79.666C91.9934 77.6441 90.3559 76.0066 88.334 76Z" fill="black"/>
<path opacity="0.2" d="M86.334 76H66V122H86.334C88.3559 121.993 89.9934 120.356 90 118.334V79.666C89.9934 77.6441 88.3559 76.0066 86.334 76Z" fill="black"/>
<path d="M49.666 76H86.334C88.3586 76 90 77.6413 90 79.666V116.334C90 118.359 88.3586 120 86.334 120H49.666C47.6413 120 46 118.359 46 116.334V79.666C46 77.6413 47.6413 76 49.666 76Z" fill="url(#paint0_linear_28654_59)"/>
<path d="M57.354 109.916L65.066 97.966L58 86.082H63.684L67.54 93.682C67.896 94.404 68.14 94.94 68.272 95.294H68.322C68.5753 94.718 68.842 94.1587 69.122 93.616L73.244 86.086H78.462L71.216 97.9001L78.646 109.916H73.094L68.64 101.574C68.4302 101.219 68.2522 100.846 68.108 100.46H68.042C67.9116 100.838 67.7385 101.201 67.526 101.54L62.94 109.916H57.354Z" fill="white"/>
<path d="M128.334 58H100V78H132V61.666C132 59.6413 130.359 58 128.334 58Z" fill="#33C481"/>
<path d="M100 98H132V118H100V98Z" fill="#107C41"/>
</g>
<path d="M155.461 35.2769H121.488C119.039 35.2769 117.055 33.292 117.055 30.8434V0L155.461 35.2769Z" fill="#DEDEDE"/>
</g>
<defs>
<linearGradient id="paint0_linear_28654_59" x1="53.6437" y1="73.1355" x2="82.3563" y2="122.865" gradientUnits="userSpaceOnUse">
<stop stop-color="#18884F"/>
<stop offset="0.5" stop-color="#117E43"/>
<stop offset="1" stop-color="#0B6631"/>
</linearGradient>
<clipPath id="clip0_28654_59">
<rect width="177.333" height="177.333" fill="white"/>
</clipPath>
<clipPath id="clip1_28654_59">
<rect width="86" height="80" fill="white" transform="translate(46 58)"/>
</clipPath>
</defs>
</svg>
