<svg width="150" height="150" viewBox="0 0 150 150" fill="none" xmlns="http://www.w3.org/2000/svg">
<path fill-rule="evenodd" clip-rule="evenodd" d="M74.5 22.3C45.1184 22.3 21.3 46.1184 21.3 75.5C21.3 104.882 45.1184 128.7 74.5 128.7C103.882 128.7 127.7 104.882 127.7 75.5C127.7 46.1184 103.882 22.3 74.5 22.3ZM8 75.5C8 38.773 37.773 9 74.5 9C111.227 9 141 38.773 141 75.5C141 112.227 111.227 142 74.5 142C37.773 142 8 112.227 8 75.5ZM63.1478 50.8477C65.7446 48.2508 69.9554 48.2508 72.5522 50.8477L92.5022 70.7978C95.099 73.3946 95.099 77.6054 92.5022 80.2022L72.5522 100.152C69.9554 102.749 65.7446 102.749 63.1478 100.152C60.5508 97.5554 60.5508 93.3446 63.1478 90.7478L78.3956 75.5L63.1478 60.2523C60.5508 57.6553 60.5508 53.4447 63.1478 50.8477Z" fill="#AAAAAA"/>
</svg>
