<svg width="133" height="133" viewBox="0 0 133 133" fill="none" xmlns="http://www.w3.org/2000/svg">
<path d="M116.596 26.4577V119.7C116.596 127.045 110.641 133 103.296 133H30.1467C22.8013 133 16.8467 127.045 16.8467 119.7V13.3C16.8467 5.95463 22.8013 0 30.1467 0H87.791L116.596 26.4577Z" fill="#F2F4F7"/>
<path d="M116.596 26.4577H91.1161C89.2797 26.4577 87.7911 24.969 87.7911 23.1326V0L116.596 26.4577Z" fill="#DEDEDE"/>
<path d="M44.1491 78.8478V99.8551H39.032V78.8478H44.1491ZM71.6479 78.8478V99.8551H66.5307V87.2567L61.8325 99.8551H57.7029L52.9747 87.2268V99.8551H47.8576V78.8478H53.9024L59.7976 93.3913L65.633 78.8478H71.6479ZM89.2727 85.4912C88.8938 84.7929 88.345 84.2642 87.6269 83.9052C86.9286 83.5261 86.1007 83.3366 85.1431 83.3366C83.4873 83.3366 82.1605 83.8851 81.1632 84.9825C80.1656 86.0598 79.6669 87.506 79.6669 89.3215C79.6669 91.2567 80.1855 92.7729 81.2229 93.8702C82.2803 94.9475 83.7266 95.4861 85.5621 95.4861C86.819 95.4861 87.8762 95.1668 88.734 94.5285C89.6119 93.89 90.2503 92.9723 90.6493 91.7753H84.1555V88.0048H95.2877V92.7629C94.9086 94.0397 94.2602 95.2267 93.3425 96.3239C92.4448 97.4212 91.2977 98.309 89.9012 98.9873C88.5046 99.6655 86.9286 100.005 85.1731 100.005C83.0983 100.005 81.2429 99.5558 79.607 98.6581C77.991 97.7404 76.7242 96.4735 75.8065 94.8576C74.9088 93.2417 74.4598 91.3963 74.4598 89.3215C74.4598 87.2467 74.9088 85.4014 75.8065 83.7855C76.7242 82.1495 77.991 80.8827 79.607 79.985C81.2229 79.0673 83.0683 78.6084 85.1431 78.6084C87.6567 78.6084 89.7714 79.2169 91.4872 80.4338C93.2228 81.6508 94.37 83.3366 94.9285 85.4912H89.2727Z" fill="#475467"/>
</svg>
