<svg width="178" height="178" viewBox="0 0 178 178" fill="none" xmlns="http://www.w3.org/2000/svg">
<g clip-path="url(#clip0_28668_375)">
<path d="M155.461 35.2769V159.6C155.461 169.393 147.521 177.333 137.728 177.333H40.1955C30.4016 177.333 22.4622 169.393 22.4622 159.6V17.7333C22.4622 7.9395 30.4016 0 40.1955 0H117.054L155.461 35.2769Z" fill="#F2F4F7"/>
<path d="M155.461 35.2769H121.488C119.039 35.2769 117.055 33.292 117.055 30.8434V0L155.461 35.2769Z" fill="#DEDEDE"/>
<g clip-path="url(#clip1_28668_375)">
<path d="M138.872 99.5676C138.955 98.3889 139 97.1998 139 96C139 68.3857 116.614 46 89 46C61.3857 46 39 68.3857 39 96C39 119.002 54.5332 138.373 75.6814 144.203L138.872 99.5676Z" fill="#C8095D"/>
<path d="M138.872 99.5675L100.522 61.2173L62.261 130.783L75.6817 144.203C79.9223 145.372 84.3877 146 89 146C115.415 146 137.042 125.517 138.872 99.5675Z" fill="#980747"/>
<path d="M93.361 111.217L88.9436 61.2173H62.261V106.869L93.361 111.217Z" fill="white"/>
<path d="M115.739 106.869V76.4347L104.87 72.0868L100.522 61.2173H88.9436L89.0131 111.217L115.739 106.869Z" fill="#E8E6E6"/>
<path d="M100.522 76.4347V61.2173L115.739 76.4347H100.522Z" fill="white"/>
<path d="M115.739 106.87H62.261V130.783H115.739V106.87Z" fill="#F83489"/>
<path d="M69.9822 124V113.654H72.6132V124H69.9822Z" fill="white"/>
<path d="M82.2805 124L77.5209 117.63V124H75.0527V113.654H77.3734L82.1479 120.039V113.654H84.6016V124H82.2805Z" fill="white"/>
<path d="M91.4902 113.654C94.7422 113.654 96.9887 115.752 96.9887 118.827C96.9887 121.887 94.7123 124 91.3865 124H87.041V113.654H91.4902ZM89.6723 121.901H91.5494C93.1607 121.901 94.3135 120.66 94.3135 118.842C94.3135 117.009 93.1016 115.753 91.4312 115.753H89.6721L89.6723 121.901Z" fill="white"/>
<path d="M103.198 113.654C106.45 113.654 108.697 115.752 108.697 118.827C108.697 121.887 106.42 124 103.094 124H98.7488V113.654H103.198ZM101.38 121.901H103.257C104.868 121.901 106.021 120.66 106.021 118.842C106.021 117.009 104.809 115.753 103.139 115.753H101.379L101.38 121.901Z" fill="white"/>
</g>
</g>
<defs>
<clipPath id="clip0_28668_375">
<rect width="177.333" height="177.333" fill="white"/>
</clipPath>
<clipPath id="clip1_28668_375">
<rect width="100" height="100" fill="white" transform="translate(39 46)"/>
</clipPath>
</defs>
</svg>
