<svg width="150" height="150" viewBox="0 0 150 150" fill="none" xmlns="http://www.w3.org/2000/svg">
<path d="M13.3984 15H62.3717L77.7721 34.2505H136.602C140.452 34.2505 143.686 35.9446 145.996 38.2546C148.306 40.5647 150 43.7988 150 47.6489V120.801C150 124.651 148.306 127.885 145.996 130.195C143.686 132.505 140.452 134.199 136.602 134.199H13.3984C9.54825 134.199 6.31417 132.505 4.00411 130.195C1.69405 127.885 0 124.651 0 120.801V28.3984C0 24.3942 1.84805 21.4682 4.15811 19.1581C6.46817 16.848 9.39425 15 13.3984 15ZM74.846 51.499C73.46 51.499 71.9199 52.115 70.8419 53.193L47.7413 76.2936C46.2012 77.9877 45.7392 80.4517 46.5092 82.6078C47.4333 84.7639 49.5893 86.1499 51.8994 86.1499H63.4497V113.101C63.4497 115.257 65.1437 116.951 67.2998 116.951H82.7002C84.8563 116.951 86.5503 115.257 86.5503 113.101V86.1499H98.1006C100.411 86.1499 102.567 84.7639 103.491 82.6078C104.261 80.4517 103.799 77.9877 102.259 76.2936L79.1581 53.193C78.0801 52.115 76.54 51.499 75 51.499C75 51.499 75 51.499 74.846 51.499Z" fill="#AAAAAA"/>
</svg>
