<svg width="531" height="531" viewBox="0 0 531 531" fill="none" xmlns="http://www.w3.org/2000/svg">
<path d="M465.507 105.632V477.9C465.507 507.225 441.732 531 412.407 531H120.36C91.0338 531 67.2601 507.225 67.2601 477.9V53.1C67.2601 23.7738 91.0338 0 120.36 0H350.504L465.507 105.632Z" fill="#CBCBCB"/>
<path d="M465.507 105.632H363.779C356.447 105.632 350.504 99.6883 350.504 92.3565V0L465.507 105.632Z" fill="#A7A6A6"/>
<path d="M184.75 319.375C194.553 319.375 202.5 311.428 202.5 301.625C202.5 291.822 194.553 283.875 184.75 283.875C174.947 283.875 167 291.822 167 301.625C167 311.428 174.947 319.375 184.75 319.375Z" fill="#475467"/>
<path d="M344.5 319.375C354.303 319.375 362.25 311.428 362.25 301.625C362.25 291.822 354.303 283.875 344.5 283.875C334.697 283.875 326.75 291.822 326.75 301.625C326.75 311.428 334.697 319.375 344.5 319.375Z" fill="#475467"/>
<path d="M264.625 399.25C274.428 399.25 282.375 391.303 282.375 381.5C282.375 371.697 274.428 363.75 264.625 363.75C254.822 363.75 246.875 371.697 246.875 381.5C246.875 391.303 254.822 399.25 264.625 399.25Z" fill="#475467"/>
<path d="M264.625 239.5C274.428 239.5 282.375 231.553 282.375 221.75C282.375 211.947 274.428 204 264.625 204C254.822 204 246.875 211.947 246.875 221.75C246.875 231.553 254.822 239.5 264.625 239.5Z" fill="#475467"/>
<path d="M208.18 262.93C217.983 262.93 225.93 254.983 225.93 245.18C225.93 235.377 217.983 227.43 208.18 227.43C198.377 227.43 190.43 235.377 190.43 245.18C190.43 254.983 198.377 262.93 208.18 262.93Z" fill="#475467"/>
<path d="M321.07 375.82C330.873 375.82 338.82 367.873 338.82 358.07C338.82 348.267 330.873 340.32 321.07 340.32C311.267 340.32 303.32 348.267 303.32 358.07C303.32 367.873 311.267 375.82 321.07 375.82Z" fill="#475467"/>
<path d="M208.18 375.82C217.983 375.82 225.93 367.873 225.93 358.07C225.93 348.267 217.983 340.32 208.18 340.32C198.377 340.32 190.43 348.267 190.43 358.07C190.43 367.873 198.377 375.82 208.18 375.82Z" fill="#475467"/>
<path d="M321.07 262.93C330.873 262.93 338.82 254.983 338.82 245.18C338.82 235.377 330.873 227.43 321.07 227.43C311.267 227.43 303.32 235.377 303.32 245.18C303.32 254.983 311.267 262.93 321.07 262.93Z" fill="#475467"/>
</svg>
