<svg width="178" height="178" viewBox="0 0 178 178" fill="none" xmlns="http://www.w3.org/2000/svg">
<g clip-path="url(#clip0_28668_185)">
<path d="M155.461 35.2769V159.6C155.461 169.393 147.521 177.333 137.728 177.333H40.1955C30.4016 177.333 22.4622 169.393 22.4622 159.6V17.7333C22.4622 7.9395 30.4016 0 40.1955 0H117.054L155.461 35.2769Z" fill="#F2F4F7"/>
<path d="M155.461 35.2769H121.488C119.039 35.2769 117.055 33.292 117.055 30.8434V0L155.461 35.2769Z" fill="#DEDEDE"/>
<rect x="49" y="55" width="80" height="80" rx="18" fill="#FF5630"/>
<rect x="49" y="100" width="80" height="35" rx="10" fill="#B32D2E"/>
<rect x="49" y="100" width="80" height="17" fill="#B32D2E"/>
<rect x="49" y="93" width="80" height="7" fill="#C94442"/>
<rect x="49" y="55" width="80" height="38" rx="10" fill="#E25758"/>
<rect x="49" y="80" width="80" height="13" fill="#E25758"/>
<line x1="62" y1="84" x2="117" y2="84" stroke="white" stroke-width="4"/>
<line x1="62" y1="75" x2="117" y2="75" stroke="white" stroke-width="4"/>
<line x1="62" y1="65" x2="107" y2="65" stroke="white" stroke-width="4"/>
<path d="M66.7461 126V108.82H72.3125C74.4219 108.82 75.7969 108.906 76.4375 109.078C77.4219 109.336 78.2461 109.898 78.9102 110.766C79.5742 111.625 79.9062 112.738 79.9062 114.105C79.9062 115.16 79.7148 116.047 79.332 116.766C78.9492 117.484 78.4609 118.051 77.8672 118.465C77.2812 118.871 76.6836 119.141 76.0742 119.273C75.2461 119.438 74.0469 119.52 72.4766 119.52H70.2148V126H66.7461ZM70.2148 111.727V116.602H72.1133C73.4805 116.602 74.3945 116.512 74.8555 116.332C75.3164 116.152 75.6758 115.871 75.9336 115.488C76.1992 115.105 76.332 114.66 76.332 114.152C76.332 113.527 76.1484 113.012 75.7812 112.605C75.4141 112.199 74.9492 111.945 74.3867 111.844C73.9727 111.766 73.1406 111.727 71.8906 111.727H70.2148ZM82.7422 108.82H89.082C90.5117 108.82 91.6016 108.93 92.3516 109.148C93.3594 109.445 94.2227 109.973 94.9414 110.73C95.6602 111.488 96.207 112.418 96.582 113.52C96.957 114.613 97.1445 115.965 97.1445 117.574C97.1445 118.988 96.9688 120.207 96.6172 121.23C96.1875 122.48 95.5742 123.492 94.7773 124.266C94.1758 124.852 93.3633 125.309 92.3398 125.637C91.5742 125.879 90.5508 126 89.2695 126H82.7422V108.82ZM86.2109 111.727V123.105H88.8008C89.7695 123.105 90.4688 123.051 90.8984 122.941C91.4609 122.801 91.9258 122.562 92.293 122.227C92.668 121.891 92.9727 121.34 93.207 120.574C93.4414 119.801 93.5586 118.75 93.5586 117.422C93.5586 116.094 93.4414 115.074 93.207 114.363C92.9727 113.652 92.6445 113.098 92.2227 112.699C91.8008 112.301 91.2656 112.031 90.6172 111.891C90.1328 111.781 89.1836 111.727 87.7695 111.727H86.2109ZM100.121 126V108.82H111.898V111.727H103.59V115.793H110.762V118.699H103.59V126H100.121Z" fill="white"/>
</g>
<defs>
<clipPath id="clip0_28668_185">
<rect width="177.333" height="177.333" fill="white"/>
</clipPath>
</defs>
</svg>
