<svg width="178" height="178" viewBox="0 0 178 178" fill="none" xmlns="http://www.w3.org/2000/svg">
<g clip-path="url(#clip0_28668_47)">
<path d="M155.461 35.2769V159.6C155.461 169.393 147.521 177.333 137.728 177.333H40.1955C30.4016 177.333 22.4622 169.393 22.4622 159.6V17.7333C22.4622 7.9395 30.4016 0 40.1955 0H117.054L155.461 35.2769Z" fill="#F2F4F7"/>
<path d="M155.461 35.2769H121.488C119.039 35.2769 117.055 33.292 117.055 30.8434V0L155.461 35.2769Z" fill="#DEDEDE"/>
<g clip-path="url(#clip1_28668_47)">
<path d="M98 102L92 58H91.552C69.7345 58.0637 52.0637 75.7345 52 97.552V98L98 102Z" fill="#ED6C47"/>
<path d="M92.448 58H92V98L112 106L132 98V97.552C131.936 75.7345 114.266 58.0637 92.448 58Z" fill="#FF8F6B"/>
<path d="M132 98V98.44C131.937 120.262 114.262 137.937 92.44 138H91.56C69.7376 137.937 52.0626 120.262 52 98.44V98H132Z" fill="#D35230"/>
<path opacity="0.1" d="M94 77.66V120.34C93.9901 121.823 93.0914 123.155 91.72 123.72C91.2834 123.905 90.8142 124 90.34 124H61.44C60.88 123.36 60.3401 122.68 59.84 122C54.7446 115.203 51.9934 106.935 52 98.44V97.56C51.9884 89.8977 54.2277 82.4006 58.44 76C58.88 75.32 59.34 74.64 59.84 74H90.34C92.3551 74.0153 93.9848 75.645 94 77.66Z" fill="black"/>
<path opacity="0.2" d="M92 79.66V122.34C91.9999 122.814 91.9046 123.283 91.72 123.72C91.1553 125.091 89.823 125.99 88.3399 126H63.2599C62.6272 125.358 62.02 124.69 61.4399 124C60.8799 123.36 60.3399 122.68 59.8399 122C54.7445 115.203 51.9933 106.935 51.9999 98.44V97.56C51.9882 89.8976 54.2276 82.4006 58.4399 76H88.3399C90.355 76.0152 91.9847 77.645 92 79.66Z" fill="black"/>
<path opacity="0.2" d="M92 79.66V118.34C91.9848 120.355 90.3551 121.985 88.3401 122H59.84C54.7446 115.203 51.9934 106.935 52 98.44V97.56C51.9884 89.8976 54.2277 82.4006 58.44 76H88.34C90.3551 76.0152 91.9848 77.6449 92 79.66Z" fill="black"/>
<path opacity="0.2" d="M90 79.66V118.34C89.9848 120.355 88.3551 121.985 86.3401 122H59.84C54.7446 115.203 51.9934 106.935 52 98.44V97.56C51.9884 89.8976 54.2277 82.4006 58.44 76H86.34C88.3551 76.0152 89.9848 77.6449 90 79.66Z" fill="black"/>
<path d="M49.666 76H86.334C88.3587 76 90 77.6413 90 79.666V116.334C90 118.359 88.3586 120 86.334 120H49.666C47.6413 120 46 118.359 46 116.334V79.666C46 77.6413 47.6413 76 49.666 76Z" fill="url(#paint0_linear_28668_47)"/>
<path d="M68.4 85.7778C70.787 85.6167 73.1534 86.31 75.076 87.7338C76.6796 89.1654 77.5365 91.2544 77.4 93.3998C77.4262 94.8911 77.0288 96.3593 76.2541 97.6338C75.4696 98.8863 74.3395 99.8852 73 100.51C71.4687 101.222 69.7945 101.574 68.106 101.538H63.468V110.158H58.718V85.7778H68.4ZM63.464 97.8138H67.5521C68.8481 97.909 70.134 97.5254 71.1661 96.7358C72.0197 95.9169 72.4672 94.7621 72.3881 93.5818C72.3881 90.8951 70.8267 89.5518 67.7041 89.5518H63.4641V97.8138H63.464Z" fill="white"/>
</g>
</g>
<defs>
<linearGradient id="paint0_linear_28668_47" x1="53.6437" y1="73.1355" x2="82.3563" y2="122.865" gradientUnits="userSpaceOnUse">
<stop stop-color="#CA4C28"/>
<stop offset="0.5" stop-color="#C5401E"/>
<stop offset="1" stop-color="#B62F14"/>
</linearGradient>
<clipPath id="clip0_28668_47">
<rect width="177.333" height="177.333" fill="white"/>
</clipPath>
<clipPath id="clip1_28668_47">
<rect width="86" height="80" fill="white" transform="translate(46 58)"/>
</clipPath>
</defs>
</svg>
