<svg width="150" height="150" viewBox="0 0 150 150" fill="none" xmlns="http://www.w3.org/2000/svg">
<path d="M91.7558 42.0725C91.7558 37.398 90.1083 33.5513 86.8134 30.5322C83.5184 27.5132 79.3576 26.0037 74.331 26.0037C71.1398 26.0037 68.1688 26.7091 65.4178 28.1198C62.6669 29.5316 60.2847 31.5708 58.2713 34.2374C56.5954 36.3595 54.4923 37.7136 51.9621 38.2999C49.4308 38.885 47.0906 38.5919 44.9417 37.4205C42.6114 36.1031 41.0912 34.4108 40.3811 32.3436C39.6709 30.2765 39.9533 28.1813 41.2283 26.0581C44.7243 20.423 49.3991 16.0042 55.2527 12.8019C61.1063 9.60063 67.4657 8 74.331 8C84.4541 8 92.9297 11.2561 99.7578 17.7684C106.586 24.2818 110 32.2964 110 41.8124C110 47.4113 108.753 52.7906 106.259 57.9503C103.765 63.1101 100.187 67.7577 95.5249 71.8932C92.2474 74.8573 89.862 77.3538 88.3685 79.3826C86.8762 81.4113 85.8203 83.6169 85.2008 85.9991C84.2908 88.7437 82.8525 90.9212 80.886 92.5317C78.9195 94.1422 76.8328 94.9475 74.626 94.9475C72.0914 94.9475 69.9337 94.1603 68.1529 92.5861C66.3721 91.0129 65.4818 89.1466 65.4818 86.9872C65.4446 83.2184 66.5098 79.4309 68.6773 75.6247C70.8437 71.8197 73.9432 68.1524 77.9756 64.6229C82.61 60.6499 86.0655 56.8245 88.3423 53.1468C90.618 49.4691 91.7558 45.7777 91.7558 42.0725ZM74.3212 141C70.2123 141 66.7103 139.542 63.8152 136.626C60.92 133.712 59.4725 130.19 59.4725 126.061C59.4725 121.858 60.9233 118.321 63.825 115.449C66.7267 112.576 70.2319 111.14 74.3408 111.14C78.5218 111.14 82.0419 112.58 84.9009 115.459C87.7589 118.338 89.1879 121.878 89.1879 126.081C89.1879 130.208 87.7556 133.727 84.8911 136.636C82.0255 139.545 78.5022 141 74.3212 141Z" fill="#AAAAAA"/>
</svg>
