<svg width="150" height="150" viewBox="0 0 150 150" fill="none" xmlns="http://www.w3.org/2000/svg">
<path d="M61.6034 142C58.5761 142 56.023 139.745 55.6493 136.741L54.0997 124.282C53.8269 122.089 52.3384 120.277 50.4099 119.197C50.1376 119.044 49.8689 118.887 49.6039 118.725C49.2962 118.537 48.9902 118.345 48.6858 118.151C46.9098 117.015 44.6933 116.733 42.751 117.553L31.0823 122.481C28.292 123.659 25.0611 122.573 23.5492 119.948L10.6345 97.5295C9.12808 94.9145 9.79834 91.5876 12.1998 89.7599L23.2463 81.3528C24.3529 80.5106 24.8731 79.135 24.8731 77.7444V77.7444V73.2556V73.2556C24.8731 71.865 24.3529 70.4894 23.2463 69.6472L12.1998 61.2401C9.79835 59.4124 9.12808 56.0855 10.6345 53.4706L23.5492 31.0518C25.0611 28.4272 28.292 27.3411 31.0823 28.5194L42.751 33.4467C44.6933 34.2669 46.908 33.9815 48.6996 32.8702C49.0251 32.6683 49.3541 32.4699 49.6866 32.275C49.9674 32.1103 50.2483 31.9507 50.5292 31.796C52.413 30.7585 53.8205 28.9635 54.0859 26.8293L55.6493 14.2594C56.023 11.2552 58.5761 9 61.6034 9H87.3966C90.4239 9 92.977 11.2552 93.3507 14.2594L94.9003 26.7182C95.1731 28.9115 96.6616 30.7232 98.5901 31.8031C98.8624 31.9555 99.1311 32.1128 99.3961 32.275C99.7038 32.4632 100.01 32.6546 100.314 32.8494C102.09 33.9855 104.307 34.2669 106.249 33.4467L117.918 28.5194C120.708 27.3411 123.939 28.4272 125.451 31.0518L138.366 53.4706C139.872 56.0855 139.202 59.4124 136.8 61.2401L125.754 69.6472C124.647 70.4894 124.127 71.865 124.127 73.2556V73.2556V77.7444V77.7444C124.127 79.1172 124.515 80.5357 125.607 81.3671L136.635 89.7599C139.036 91.5876 139.707 94.9145 138.2 97.5295L125.293 119.934C123.778 122.565 120.537 123.649 117.744 122.459L106.256 117.568C104.31 116.739 102.088 117.022 100.29 118.136C99.968 118.336 99.6424 118.532 99.3134 118.725C99.0326 118.89 98.7517 119.049 98.4708 119.204C96.5869 120.241 95.1795 122.036 94.9141 124.171L93.3507 136.741C92.977 139.745 90.4239 142 87.3966 142H61.6034ZM74.8308 98.775C81.2272 98.775 86.6862 96.5029 91.2077 91.9588C95.7293 87.4146 97.9901 81.9283 97.9901 75.5C97.9901 69.0717 95.7293 63.5854 91.2077 59.0413C86.6862 54.4971 81.2272 52.225 74.8308 52.225C68.3242 52.225 62.8377 54.4971 58.3713 59.0413C53.9049 63.5854 51.6716 69.0717 51.6716 75.5C51.6716 81.9283 53.9049 87.4146 58.3713 91.9588C62.8377 96.5029 68.3242 98.775 74.8308 98.775Z" fill="#AAAAAA"/>
</svg>
