<svg width="178" height="178" viewBox="0 0 178 178" fill="none" xmlns="http://www.w3.org/2000/svg">
<g clip-path="url(#clip0_28672_2)">
<path d="M154.999 35.2769V159.6C154.999 169.393 147.059 177.333 137.266 177.333H39.7333C29.9395 177.333 22 169.393 22 159.6V17.7333C22 7.9395 29.9395 0 39.7333 0H116.592L154.999 35.2769Z" fill="#F2F4F7"/>
<path d="M155.461 35.2769H121.488C119.039 35.2769 117.055 33.292 117.055 30.8434V0L155.461 35.2769Z" fill="#DEDEDE"/>
<line x1="40" y1="57" x2="115" y2="57" stroke="#A1A1A1" stroke-width="4"/>
<line x1="40" y1="70" x2="135" y2="70" stroke="#A1A1A1" stroke-width="4"/>
<line x1="40" y1="83" x2="135" y2="83" stroke="#A1A1A1" stroke-width="4"/>
<line x1="40" y1="96" x2="135" y2="96" stroke="#A1A1A1" stroke-width="4"/>
<line x1="40" y1="109" x2="135" y2="109" stroke="#A1A1A1" stroke-width="4"/>
<line x1="40" y1="122" x2="135" y2="122" stroke="#A1A1A1" stroke-width="4"/>
<line x1="40" y1="135" x2="135" y2="135" stroke="#A1A1A1" stroke-width="4"/>
</g>
<defs>
<clipPath id="clip0_28672_2">
<rect width="177.333" height="177.333" fill="white"/>
</clipPath>
</defs>
</svg>
