<svg width="178" height="178" viewBox="0 0 178 178" fill="none" xmlns="http://www.w3.org/2000/svg">
<g clip-path="url(#clip0_28654_521)">
<path d="M154.999 35.2769V159.6C154.999 169.393 147.059 177.333 137.266 177.333H39.7333C29.9395 177.333 22 169.393 22 159.6V17.7333C22 7.9395 29.9395 0 39.7333 0H116.592L154.999 35.2769Z" fill="#F2F4F7"/>
<rect x="48.5378" y="100" width="80" height="35" rx="10" fill="#103F91"/>
<rect x="48.5378" y="100" width="80" height="17" fill="#103F91"/>
<rect x="48.5378" y="93" width="80" height="7" fill="#185ABD"/>
<rect x="48.5378" y="55" width="80" height="38" rx="10" fill="#2B7CD3"/>
<rect x="48.5378" y="80" width="80" height="13" fill="#2B7CD3"/>
<line x1="61.5378" y1="84" x2="116.538" y2="84" stroke="white" stroke-width="4"/>
<line x1="61.5378" y1="75" x2="116.538" y2="75" stroke="white" stroke-width="4"/>
<line x1="61.5378" y1="65" x2="106.538" y2="65" stroke="white" stroke-width="4"/>
<path d="M67.6777 123V111.105H63.4297V108.684H74.8066V111.105H70.5684V123H67.6777ZM76.6816 123V108.684H87.2969V111.105H79.5723V114.279H86.7598V116.691H79.5723V120.588H87.5703V123H76.6816ZM88.5664 123L93.459 115.529L89.0254 108.684H92.4043L95.2754 113.283L98.0879 108.684H101.438L96.9844 115.637L101.877 123H98.3906L95.2168 118.049L92.0332 123H88.5664ZM106.584 123V111.105H102.336V108.684H113.713V111.105H109.475V123H106.584Z" fill="white"/>
<path d="M155.461 35.2769H121.488C119.039 35.2769 117.055 33.292 117.055 30.8434V0L155.461 35.2769Z" fill="#DEDEDE"/>
</g>
<defs>
<clipPath id="clip0_28654_521">
<rect width="177.333" height="177.333" fill="white"/>
</clipPath>
</defs>
</svg>
