<svg width="150" height="150" viewBox="0 0 150 150" fill="none" xmlns="http://www.w3.org/2000/svg">
<path d="M75.408 142C66.2078 142 57.4739 140.269 49.2064 136.806C40.9401 133.343 33.7925 128.583 27.7634 122.528C21.7355 116.473 16.9343 109.39 13.3599 101.279C9.78663 93.1677 8 84.4759 8 75.2037C8 65.9303 9.78663 57.3082 13.3599 49.3375C16.9343 41.3657 21.7355 34.4106 27.7634 28.4724C33.7925 22.533 40.9407 17.8028 49.2082 14.2816C57.4745 10.7605 66.2393 9 75.5027 9C84.7368 9 93.5618 10.9465 101.978 14.8394C110.394 18.7324 117.874 23.9908 124.42 30.6147V19.9817C124.42 18.3803 124.979 17.0213 126.096 15.9045C127.214 14.7877 128.587 14.2294 130.217 14.2294C131.846 14.2294 133.245 14.7877 134.414 15.9045C135.583 17.0213 136.167 18.3803 136.167 19.9817V44.7339C136.167 47.0116 135.421 48.9174 133.927 50.4514C132.434 51.9853 130.551 52.7523 128.278 52.7523H103.03C101.469 52.7523 100.086 52.1492 98.8797 50.9429C97.6722 49.7355 97.0685 48.2946 97.0685 46.62C97.0685 44.7816 97.6348 43.3104 98.7674 42.2064C99.9001 41.1024 101.321 40.5505 103.03 40.5505H111.621C106.68 35.7546 101.13 31.9702 94.9698 29.1975C88.8098 26.4236 82.3207 25.0367 75.5027 25.0367C61.2915 25.0367 49.1474 29.8198 39.0705 39.3861C28.9936 48.9523 23.9552 60.6893 23.9552 74.5971C23.9552 88.9697 28.9358 101.153 38.8969 111.147C48.8581 121.141 61.046 126.138 75.4606 126.138C88.268 126.138 99.2496 121.951 108.405 113.577C117.562 105.203 123.076 94.8637 124.946 82.5596C125.297 80.3517 126.29 78.6667 127.927 77.5046C129.563 76.3425 131.473 75.7615 133.655 75.7615C135.797 75.7615 137.629 76.5459 139.148 78.1147C140.668 79.6835 141.252 81.4557 140.901 83.4312C138.873 99.9467 131.708 113.837 119.406 125.102C107.103 136.367 92.4374 142 75.408 142Z" fill="#AAAAAA"/>
</svg>
