<svg width="178" height="178" viewBox="0 0 178 178" fill="none" xmlns="http://www.w3.org/2000/svg">
<g clip-path="url(#clip0_28668_29)">
<path d="M155.461 35.2769V159.6C155.461 169.393 147.521 177.333 137.728 177.333H40.1955C30.4016 177.333 22.4622 169.393 22.4622 159.6V17.7333C22.4622 7.9395 30.4016 0 40.1955 0H117.054L155.461 35.2769Z" fill="#F2F4F7"/>
<path d="M155.461 35.2769H121.488C119.039 35.2769 117.055 33.292 117.055 30.8434V0L155.461 35.2769Z" fill="#DEDEDE"/>
<g clip-path="url(#clip1_28668_29)">
<path d="M128.334 58H69.666C67.6413 58 66 59.6413 66 61.666V78L100 88L132 78V61.666C132 59.6413 130.359 58 128.334 58Z" fill="#41A5EE"/>
<path d="M132 78H66V98L100 104L132 98V78Z" fill="#2B7CD3"/>
<path d="M66 98V118L98 122L132 118V98H66Z" fill="#185ABD"/>
<path d="M69.666 138H128.334C130.359 138 132 136.359 132 134.334V118H66V134.334C66 136.359 67.6413 138 69.666 138Z" fill="#103F91"/>
<path opacity="0.1" d="M90.334 74H66V124H90.334C92.3559 123.993 93.9934 122.356 94 120.334V77.666C93.9934 75.6441 92.3559 74.0066 90.334 74Z" fill="black"/>
<path opacity="0.2" d="M88.334 76H66V126H88.334C90.3559 125.993 91.9934 124.356 92 122.334V79.666C91.9934 77.6441 90.3559 76.0066 88.334 76Z" fill="black"/>
<path opacity="0.2" d="M88.334 76H66V122H88.334C90.3559 121.993 91.9934 120.356 92 118.334V79.666C91.9934 77.6441 90.3559 76.0066 88.334 76Z" fill="black"/>
<path opacity="0.2" d="M86.334 76H66V122H86.334C88.3559 121.993 89.9934 120.356 90 118.334V79.666C89.9934 77.6441 88.3559 76.0066 86.334 76Z" fill="black"/>
<path d="M49.666 76H86.334C88.3587 76 90 77.6413 90 79.666V116.334C90 118.359 88.3587 120 86.334 120H49.666C47.6413 120 46 118.359 46 116.334V79.666C46 77.6413 47.6413 76 49.666 76Z" fill="url(#paint0_linear_28668_29)"/>
<path d="M61.0441 104.116C61.1161 104.682 61.1641 105.174 61.1861 105.596H61.2701C61.3021 105.196 61.3687 104.714 61.4701 104.15C61.5714 103.586 61.6628 103.109 61.7441 102.72L65.6001 86.0842H70.5861L74.5861 102.47C74.8185 103.489 74.9849 104.522 75.0841 105.562H75.1501C75.2247 104.554 75.3637 103.552 75.5661 102.562L78.7561 86.0762H83.2941L77.6901 109.916H72.3881L68.5881 94.1281C68.4781 93.6742 68.3521 93.0801 68.2141 92.3501C68.0761 91.6201 67.9901 91.0861 67.9561 90.7501H67.8901C67.8461 91.1381 67.7601 91.7142 67.6321 92.4781C67.5041 93.2422 67.4014 93.8075 67.3241 94.1741L63.752 109.912H58.36L52.7261 86.0841H57.3461L60.8201 102.754C60.8981 103.096 60.9721 103.552 61.0441 104.116Z" fill="white"/>
</g>
</g>
<defs>
<linearGradient id="paint0_linear_28668_29" x1="53.6437" y1="73.1355" x2="82.3563" y2="122.865" gradientUnits="userSpaceOnUse">
<stop stop-color="#2368C4"/>
<stop offset="0.5" stop-color="#1A5DBE"/>
<stop offset="1" stop-color="#1146AC"/>
</linearGradient>
<clipPath id="clip0_28668_29">
<rect width="177.333" height="177.333" fill="white"/>
</clipPath>
<clipPath id="clip1_28668_29">
<rect width="86" height="80" fill="white" transform="translate(46 58)"/>
</clipPath>
</defs>
</svg>
