<svg width="230" height="230" viewBox="0 0 230 230" fill="none" xmlns="http://www.w3.org/2000/svg">
<path d="M100.648 114.782L145.256 152.633C146.826 153.965 147.636 155.61 147.685 157.567C147.734 159.524 146.974 161.211 145.403 162.626C143.735 164.042 141.723 164.75 139.367 164.75C137.012 164.75 135 164.042 133.331 162.626L86.6624 123.027C85.2884 121.861 84.2824 120.57 83.6444 119.154C83.0065 117.739 82.6875 116.281 82.6875 114.782C82.6875 113.283 83.0065 111.826 83.6444 110.41C84.2824 108.994 85.2884 107.703 86.6624 106.537L133.479 66.813C135.147 65.3972 137.11 64.7101 139.367 64.7518C141.625 64.7934 143.588 65.4805 145.256 66.813C146.826 68.2287 147.636 69.9151 147.685 71.8722C147.734 73.8293 146.925 75.5157 145.256 76.9315L100.648 114.782Z" fill="#AAAAAA"/>
</svg>
