<svg width="230" height="230" viewBox="0 0 230 230" fill="none" xmlns="http://www.w3.org/2000/svg">
<rect x="6" y="6" width="218" height="218" rx="50" fill="#808080" fill-opacity="0.5"/>
<path d="M100.648 115.282L145.256 153.133C146.826 154.465 147.636 156.11 147.685 158.067C147.734 160.024 146.974 161.711 145.403 163.126C143.735 164.542 141.723 165.25 139.367 165.25C137.012 165.25 135 164.542 133.331 163.126L86.6624 123.527C85.2884 122.361 84.2824 121.07 83.6444 119.654C83.0065 118.239 82.6875 116.781 82.6875 115.282C82.6875 113.783 83.0065 112.326 83.6444 110.91C84.2824 109.494 85.2884 108.203 86.6624 107.037L133.479 67.313C135.147 65.8972 137.11 65.2101 139.367 65.2518C141.625 65.2934 143.588 65.9805 145.256 67.313C146.826 68.7287 147.636 70.4151 147.685 72.3722C147.734 74.3293 146.925 76.0157 145.256 77.4315L100.648 115.282Z" fill="#AAAAAA"/>
</svg>
