<svg width="150" height="150" viewBox="0 0 150 150" fill="none" xmlns="http://www.w3.org/2000/svg">
<path d="M137.9 141C140.86 141 143.45 139.892 145.67 137.675C147.89 135.458 149 132.872 149 129.917V66.9264C149 65.3562 148.465 64.0398 147.394 62.977C146.325 61.9155 144.999 61.3847 143.417 61.3847C141.836 61.3847 140.521 61.9155 139.472 62.977C138.424 64.0398 137.9 65.3562 137.9 66.9264V129.917H59.83C58.2575 129.917 56.9391 130.451 55.8747 131.52C54.8116 132.588 54.28 133.912 54.28 135.492C54.28 137.07 54.8116 138.383 55.8747 139.43C56.9391 140.477 58.2575 141 59.83 141H137.9ZM115.515 118.833C118.475 118.833 121.096 117.725 123.377 115.508C125.659 113.292 126.8 110.706 126.8 107.75V44.7597C126.8 43.1896 126.265 41.8731 125.194 40.8104C124.125 39.7488 122.799 39.2181 121.217 39.2181C119.636 39.2181 118.321 39.7488 117.272 40.8104C116.224 41.8731 115.7 43.1896 115.7 44.7597V107.75H37.445C35.8725 107.75 34.5541 108.284 33.4897 109.353C32.4266 110.421 31.895 111.745 31.895 113.325C31.895 114.904 32.4266 116.216 33.4897 117.263C34.5541 118.31 35.8725 118.833 37.445 118.833H115.515ZM93.5 96.6667C96.46 96.6667 99.05 95.5583 101.27 93.3417C103.49 91.125 104.6 88.5389 104.6 85.5833V19.0833C104.6 16.1278 103.49 13.5417 101.27 11.325C99.05 9.10833 96.46 8 93.5 8H12.1C9.14 8 6.55 9.10833 4.33 11.325C2.11 13.5417 0.999998 16.1278 0.999998 19.0833V85.5833C0.999998 88.5389 2.11 91.125 4.33 93.3417C6.55 95.5583 9.14 96.6667 12.1 96.6667H93.5ZM93.5 85.5833H12.1V30.5361H93.5V85.5833Z" fill="#AAAAAA"/>
</svg>
