<svg width="156" height="156" viewBox="0 0 156 156" fill="none" xmlns="http://www.w3.org/2000/svg">
<path d="M77.647 86.7059L96.4118 105.471C97.598 106.657 99.1078 107.25 100.941 107.25C102.774 107.25 104.284 106.657 105.471 105.471C106.657 104.284 107.25 102.774 107.25 100.941C107.25 99.1078 106.657 97.598 105.471 96.4118L86.7059 77.647L105.471 58.8823C106.657 57.6961 107.25 56.1863 107.25 54.3529C107.25 52.5196 106.657 51.0098 105.471 49.8235C104.284 48.6372 102.774 48.0441 100.941 48.0441C99.1078 48.0441 97.598 48.6372 96.4118 49.8235L77.647 68.5882L58.8823 49.8235C57.6961 48.6372 56.1863 48.0441 54.3529 48.0441C52.5196 48.0441 51.0098 48.6372 49.8235 49.8235C48.6372 51.0098 48.0441 52.5196 48.0441 54.3529C48.0441 56.1863 48.6372 57.6961 49.8235 58.8823L68.5882 77.647L49.8235 96.4118C48.6372 97.598 48.0441 99.1078 48.0441 100.941C48.0441 102.774 48.6372 104.284 49.8235 105.471C51.0098 106.657 52.5196 107.25 54.3529 107.25C56.1863 107.25 57.6961 106.657 58.8823 105.471L77.647 86.7059ZM77.647 142.353C68.6961 142.353 60.2843 140.654 52.4117 137.257C44.5392 133.86 37.6912 129.25 31.8676 123.426C26.0441 117.603 21.4338 110.755 18.0368 102.882C14.6397 95.0098 12.9412 86.598 12.9412 77.647C12.9412 68.6961 14.6397 60.2843 18.0368 52.4117C21.4338 44.5392 26.0441 37.6912 31.8676 31.8676C37.6912 26.0441 44.5392 21.4338 52.4117 18.0368C60.2843 14.6397 68.6961 12.9412 77.647 12.9412C86.598 12.9412 95.0098 14.6397 102.882 18.0368C110.755 21.4338 117.603 26.0441 123.426 31.8676C129.25 37.6912 133.86 44.5392 137.257 52.4117C140.654 60.2843 142.353 68.6961 142.353 77.647C142.353 86.598 140.654 95.0098 137.257 102.882C133.86 110.755 129.25 117.603 123.426 123.426C117.603 129.25 110.755 133.86 102.882 137.257C95.0098 140.654 86.598 142.353 77.647 142.353Z" fill="#AAAAAA"/>
</svg>
