<svg width="150" height="150" viewBox="0 0 150 150" fill="none" xmlns="http://www.w3.org/2000/svg">
<g clip-path="url(#clip0_28568_34)">
<path d="M140.361 9.06104H9.63851C4.50295 9.06104 0.301147 13.3262 0.301147 18.5392V103.843C0.301147 109.055 4.50295 113.32 9.63851 113.32H140.361C145.497 113.32 149.699 109.055 149.699 103.843V18.5392C149.699 13.3262 145.497 9.06104 140.361 9.06104Z" fill="#364141"/>
<path d="M135.693 18.5396H14.3073C11.7395 18.5396 9.63855 20.6721 9.63855 23.2787V99.1039C9.63855 101.71 11.7395 103.843 14.3073 103.843H135.693C138.26 103.843 140.361 101.71 140.361 99.1039V23.2787C140.361 20.6721 138.26 18.5396 135.693 18.5396Z" fill="#6E797A"/>
<path fill-rule="evenodd" clip-rule="evenodd" d="M93.675 113.321H56.3253L51.6566 141.755H98.3431L93.675 113.321Z" fill="#929A9B"/>
<path fill-rule="evenodd" clip-rule="evenodd" d="M103.012 132.277H46.9877C41.8522 132.277 37.6504 136.543 37.6504 141.755H112.349C112.349 136.543 108.147 132.277 103.012 132.277Z" fill="#C8CCCC"/>
</g>
<defs>
<clipPath id="clip0_28568_34">
<rect width="150" height="133" fill="white" transform="translate(0 9)"/>
</clipPath>
</defs>
</svg>
