<svg width="166" height="145" viewBox="0 0 166 145" fill="none" xmlns="http://www.w3.org/2000/svg">
<path d="M155.333 0.0667114H10.6666C4.98325 0.0667114 0.333252 4.71671 0.333252 10.4V103.4C0.333252 109.083 4.98325 113.733 10.6666 113.733H155.333C161.017 113.733 165.667 109.083 165.667 103.4V10.4C165.667 4.71671 161.017 0.0667114 155.333 0.0667114Z" fill="#364141"/>
<path d="M150.167 10.4H15.8334C12.9917 10.4 10.6667 12.725 10.6667 15.5667V98.2333C10.6667 101.075 12.9917 103.4 15.8334 103.4H150.167C153.008 103.4 155.333 101.075 155.333 98.2333V15.5667C155.333 12.725 153.008 10.4 150.167 10.4Z" fill="#6E797A"/>
<path fill-rule="evenodd" clip-rule="evenodd" d="M103.667 113.733H62.3333L57.1666 144.733H108.833L103.667 113.733Z" fill="#929A9B"/>
<path fill-rule="evenodd" clip-rule="evenodd" d="M114 134.4H51.9998C46.3165 134.4 41.6665 139.05 41.6665 144.733H124.333C124.333 139.05 119.683 134.4 114 134.4Z" fill="#C8CCCC"/>
</svg>
