<svg width="133" height="133" viewBox="0 0 133 133" fill="none" xmlns="http://www.w3.org/2000/svg">
<path d="M94.7494 39.2748V121.3C94.7494 127.762 89.5111 133 83.0494 133H18.7C12.2383 133 7 127.762 7 121.3V27.7C7 21.2383 12.2383 16 18.7 16H69.4097L94.7494 39.2748Z" fill="#EBEDF0"/>
<path d="M94.7494 39.2748H72.3347C70.7193 39.2748 69.4098 37.9652 69.4098 36.3497V16L94.7494 39.2748Z" fill="#9D9D9D"/>
<path d="M116.596 23.2748V105.3C116.596 111.762 111.358 117 104.896 117H40.5466C34.0848 117 28.8466 111.762 28.8466 105.3V11.7C28.8466 5.23828 34.0848 0 40.5466 0H91.2562L116.596 23.2748Z" fill="#F2F4F7"/>
<path d="M116.596 23.2748H94.1813C92.5658 23.2748 91.2563 21.9652 91.2563 20.3497V0L116.596 23.2748Z" fill="#DEDEDE"/>
<path fill-rule="evenodd" clip-rule="evenodd" d="M73.5 46.9C62.6752 46.9 53.9 55.6752 53.9 66.5C53.9 77.3248 62.6752 86.1 73.5 86.1C84.3248 86.1 93.1 77.3248 93.1 66.5C93.1 55.6752 84.3248 46.9 73.5 46.9ZM49 66.5C49 52.969 59.969 42 73.5 42C87.0309 42 98 52.969 98 66.5C98 80.0309 87.0309 91 73.5 91C59.969 91 49 80.0309 49 66.5ZM69.3176 57.4176C70.2743 56.4608 71.8257 56.4608 72.7824 57.4176L80.1324 64.7676C81.0891 65.7243 81.0891 67.2757 80.1324 68.2324L72.7824 75.5824C71.8257 76.5391 70.2743 76.5391 69.3176 75.5824C68.3608 74.6257 68.3608 73.0743 69.3176 72.1176L74.9352 66.5L69.3176 60.8824C68.3608 59.9256 68.3608 58.3744 69.3176 57.4176Z" fill="#475467" fill-opacity="0.45"/>
</svg>
