<svg width="156" height="156" viewBox="0 0 156 156" fill="none" xmlns="http://www.w3.org/2000/svg">
<g clip-path="url(#clip0_28685_5)">
<path d="M78.0181 103.283C85.1445 103.283 91.1961 100.775 96.1729 95.7576C101.15 90.7405 103.638 84.6486 103.638 77.4818C103.638 70.315 101.144 64.2292 96.1548 59.2242C91.1659 54.2192 85.1083 51.7167 77.9819 51.7167C70.8555 51.7167 64.8039 54.2252 59.8271 59.2424C54.8503 64.2595 52.3619 70.3514 52.3619 77.5182C52.3619 84.685 54.8564 90.7708 59.8452 95.7758C64.8341 100.781 70.8917 103.283 78.0181 103.283ZM77.9638 94.4867C73.2625 94.4867 69.278 92.8315 66.0104 89.5211C62.7428 86.2117 61.109 82.1926 61.109 77.4636C61.109 72.7356 62.7549 68.7286 66.0466 65.4425C69.3374 62.1564 73.3339 60.5133 78.0362 60.5133C82.7375 60.5133 86.722 62.1685 89.9896 65.4789C93.2572 68.7883 94.8909 72.8074 94.8909 77.5364C94.8909 82.2644 93.2451 86.2714 89.9534 89.5575C86.6626 92.8436 82.6661 94.4867 77.9638 94.4867ZM78 123C64.4269 123 52.0855 119.158 40.9756 111.473C29.8658 103.789 20.9428 93.9811 14.2065 82.05C13.8043 81.3291 13.5027 80.5884 13.3016 79.8281C13.1005 79.0677 13 78.2877 13 77.4879C13 76.6871 13.1005 75.9095 13.3016 75.1552C13.5027 74.3999 13.8043 73.6649 14.2065 72.95C20.9428 61.0189 29.8658 51.2111 40.9756 43.5267C52.0855 35.8422 64.4269 32 78 32C91.5731 32 103.915 35.8422 115.024 43.5267C126.134 51.2111 135.057 61.0189 141.793 72.95C142.196 73.6699 142.497 74.4106 142.698 75.1719C142.899 75.9323 143 76.7123 143 77.5121C143 78.3129 142.899 79.0905 142.698 79.8448C142.497 80.6001 142.196 81.3351 141.793 82.05C135.057 93.9811 126.134 103.789 115.024 111.473C103.915 119.158 91.5731 123 78 123ZM77.9744 113.9C90.157 113.9 101.351 110.589 111.556 103.966C121.761 97.3431 129.527 88.5211 134.856 77.5C129.527 66.4789 121.769 57.6569 111.581 51.0342C101.393 44.4114 90.2082 41.1 78.0256 41.1C65.843 41.1 54.6493 44.4114 44.4443 51.0342C34.2394 57.6569 26.4223 66.4789 20.993 77.5C26.4223 88.5211 34.2308 97.3431 44.4187 103.966C54.6065 110.589 65.7918 113.9 77.9744 113.9Z" fill="#AAAAAA"/>
</g>
<defs>
<clipPath id="clip0_28685_5">
<rect width="155.294" height="155.294" fill="white"/>
</clipPath>
</defs>
</svg>
