<svg width="156" height="156" viewBox="0 0 156 156" fill="none" xmlns="http://www.w3.org/2000/svg">
<g clip-path="url(#clip0_28685_13)">
<path d="M95.776 60.3239C98.7452 63.2675 100.921 66.8963 102.303 71.2103C103.685 75.5243 103.916 79.8129 102.994 84.0761C102.994 85.3957 102.559 86.4869 101.689 87.3497C100.819 88.2125 99.7179 88.6439 98.3868 88.6439C97.0558 88.6439 95.9552 88.2125 95.0849 87.3497C94.2146 86.4869 93.7794 85.3957 93.7794 84.0761C94.9057 80.6249 95.0337 77.3514 94.1634 74.2555C93.2931 71.1596 91.7317 68.5458 89.4792 66.4142C87.3291 64.1811 84.6671 62.6585 81.4931 61.8465C78.3191 61.0344 75.0427 61.1867 71.664 62.3032C70.333 62.3032 69.2323 61.8718 68.362 61.009C67.4917 60.1462 67.0566 59.0551 67.0566 57.7355C67.0566 56.4159 67.4917 55.3247 68.362 54.4619C69.2323 53.5991 70.333 53.1677 71.664 53.1677C75.9642 52.2542 80.3156 52.4826 84.7182 53.8529C89.1209 55.2232 92.8068 57.3802 95.776 60.3239ZM78.8822 42.0529C75.6059 42.0529 72.3295 42.2052 69.0531 42.5097C65.7768 42.8142 62.5516 43.474 59.3776 44.489C58.149 44.8951 56.9203 44.8443 55.6917 44.3368C54.4631 43.8292 53.5928 43.0172 53.0808 41.9006C52.5689 40.7841 52.5689 39.6422 53.0808 38.4748C53.5928 37.3075 54.4119 36.5209 55.5381 36.1148C59.1216 34.9983 62.8075 34.1862 66.5958 33.6787C70.3841 33.1712 74.2236 32.9174 78.1143 32.9174C92.1413 32.9174 104.914 36.7492 116.432 44.4129C127.951 52.0766 136.782 62.151 142.925 74.6361C143.232 75.2452 143.488 75.8796 143.693 76.5394C143.898 77.1991 144 77.8843 144 78.5948C144 79.3054 143.923 79.9905 143.77 80.6503C143.616 81.3101 143.386 81.9445 143.079 82.5536C140.724 87.5273 137.908 92.1204 134.632 96.3329C131.355 100.545 127.567 104.428 123.267 107.981C122.345 108.793 121.321 109.072 120.195 108.818C119.069 108.564 118.147 107.981 117.431 107.067C116.714 106.154 116.432 105.138 116.586 104.022C116.74 102.905 117.277 101.941 118.199 101.129C121.885 98.0839 125.212 94.7088 128.181 91.0039C131.151 87.2989 133.505 83.1626 135.246 78.5948C130.229 67.5308 122.652 58.6744 112.516 52.0258C102.38 45.3772 91.1686 42.0529 78.8822 42.0529ZM77.3464 124.272C63.4219 124.272 50.7515 120.415 39.3355 112.701C27.9194 104.986 18.8326 95.0387 12.0751 82.8581C11.6655 82.1475 11.3839 81.4624 11.2304 80.8026C11.0768 80.1428 11 79.4069 11 78.5948C11 77.7828 11.1024 77.0469 11.3072 76.3871C11.5119 75.7273 11.7679 75.0422 12.0751 74.3316C14.5323 69.4594 17.3736 64.8662 20.5987 60.5523C23.8239 56.2383 27.4842 52.3049 31.5797 48.7523L15.4538 32.7652C14.5323 31.8516 14.0972 30.7858 14.1484 29.5677C14.1996 28.3497 14.6347 27.2839 15.4538 26.3703C16.3753 25.4568 17.4759 25 18.7558 25C20.0356 25 21.1363 25.4568 22.0577 26.3703L132.021 135.387C132.84 136.199 133.249 137.189 133.249 138.356C133.249 139.523 132.84 140.564 132.021 141.477C131.202 142.492 130.152 143 128.872 143C127.593 143 126.492 142.543 125.57 141.63L103.148 119.857C98.95 121.379 94.7009 122.496 90.4007 123.206C86.1005 123.917 81.749 124.272 77.3464 124.272ZM37.8764 55.1471C33.6786 58.0908 29.9927 61.5419 26.8187 65.5006C23.6447 69.4594 21.1363 73.8241 19.2933 78.5948C24.6174 89.9634 32.6291 98.8959 43.3285 105.392C54.0279 111.889 65.7768 115.137 78.5751 115.137C81.5443 115.137 84.5135 115.061 87.4827 114.908C90.4519 114.756 93.2675 114.02 95.9296 112.701L86.1005 102.956C84.6671 103.565 83.208 103.971 81.7234 104.174C80.2388 104.377 78.7798 104.479 77.3464 104.479C70.077 104.479 63.9082 101.966 58.8401 96.9419C53.7719 91.9174 51.2379 85.8017 51.2379 78.5948C51.2379 77.1738 51.3659 75.7273 51.6218 74.2555C51.8778 72.7837 52.2617 71.3372 52.7737 69.9161L37.8764 55.1471Z" fill="#AAAAAA"/>
</g>
<defs>
<clipPath id="clip0_28685_13">
<rect width="155.294" height="155.294" fill="white"/>
</clipPath>
</defs>
</svg>
