<svg width="150" height="150" viewBox="0 0 150 150" fill="none" xmlns="http://www.w3.org/2000/svg">
<path d="M13.9581 127C11.7093 127 9.82107 126.192 8.29337 124.575C6.76446 122.959 6 120.978 6 118.635C6 116.291 6.73431 114.316 8.20294 112.71C9.67035 111.105 11.5887 110.302 13.9581 110.302H47.4181C49.6524 110.302 51.5671 111.118 53.1624 112.75C54.7588 114.383 55.557 116.425 55.557 118.876C55.557 121.326 54.7889 123.293 53.2528 124.777C51.7179 126.259 49.7729 127 47.4181 127H13.9581ZM13.9581 83.0768C11.7093 83.0768 9.82107 82.3109 8.29337 80.779C6.76446 79.2471 6 77.2669 6 74.8385C6 72.531 6.73431 70.6047 8.20294 69.0595C9.67035 67.5143 11.5887 66.7417 13.9581 66.7417H91.3683C93.7219 66.7417 95.697 67.5566 97.2934 69.1865C98.8899 70.8164 99.6881 72.8111 99.6881 75.1706C99.6881 77.6003 98.92 79.5254 97.3839 80.946C95.8477 82.3665 93.8425 83.0768 91.3683 83.0768H13.9581ZM13.9581 39.5166C11.7093 39.5166 9.82107 38.7083 8.29337 37.0917C6.76446 35.4752 6 33.4895 6 31.1349C6 28.6604 6.76144 26.6857 8.28432 25.2107C9.806 23.7369 11.8178 23 14.3198 23H135.861C138.094 23 140.009 23.7859 141.605 25.3577C143.202 26.9295 144 28.9714 144 31.4833C144 33.8731 143.206 35.8097 141.618 37.2932C140.029 38.7755 138.05 39.5166 135.68 39.5166H13.9581Z" fill="#AAAAAA"/>
</svg>
