<svg width="156" height="156" viewBox="0 0 156 156" fill="none" xmlns="http://www.w3.org/2000/svg">
<g clip-path="url(#clip0_28679_2)">
<path d="M70.1752 140C67.9582 140 66.0998 139.251 64.6001 137.754C63.1004 136.257 62.3505 134.401 62.3505 132.188V85.3125L15.5976 25.7422C13.7718 23.5286 13.511 21.1849 14.8151 18.7109C16.1192 16.237 18.1406 15 20.8793 15H135.121C137.859 15 139.881 16.237 141.185 18.7109C142.489 21.1849 142.228 23.5286 140.402 25.7422L93.6495 85.3125V132.188C93.6495 134.401 92.8996 136.257 91.3999 137.754C89.9002 139.251 88.0418 140 85.8248 140H70.1752ZM78 86.0938L124.949 26.7188H31.0515L78 86.0938Z" fill="#AAAAAA"/>
</g>
<defs>
<clipPath id="clip0_28679_2">
<rect width="155.294" height="155.294" fill="white"/>
</clipPath>
</defs>
</svg>
