<svg width="110" height="110" viewBox="0 0 110 110" fill="none" xmlns="http://www.w3.org/2000/svg">
<path d="M0 19.4878H98.5417C104.87 19.4878 110 24.8931 110 31.561V91.9268C110 98.5947 104.87 104 98.5417 104H55H11.4583C5.13007 104 0 98.5947 0 91.9268V19.4878Z" fill="#739DB3"/>
<path d="M0 37.5976V87.0976C0 93.7654 5.13007 99.1707 11.4583 99.1707H98.5417C104.87 99.1707 110 93.7654 110 87.0976V36.3902C110 29.7224 104.87 24.3171 98.5417 24.3171H50.4167V30.3537C50.4167 34.3544 47.3386 37.5976 43.5417 37.5976H0Z" fill="url(#paint0_linear_102_12)"/>
<path d="M0 14.6585C0 9.32427 4.10406 5 9.16667 5H41.25C46.3126 5 50.4167 9.32427 50.4167 14.6585V19.4878H0V14.6585Z" fill="#739DB3"/>
<defs>
<linearGradient id="paint0_linear_102_12" x1="0" y1="5" x2="149.415" y2="89.9662" gradientUnits="userSpaceOnUse">
<stop stop-color="#9AD0EC"/>
<stop offset="1" stop-color="#60A1C2"/>
</linearGradient>
</defs>
</svg>
