<svg width="170" height="150" viewBox="0 0 170 150" fill="none" xmlns="http://www.w3.org/2000/svg">
<path d="M15.9496 9H70.593L87.7765 30.4793H153.417C157.713 30.4793 161.322 32.3695 163.899 34.947C166.477 37.5245 168.367 41.1331 168.367 45.4289V127.05C168.367 131.346 166.477 134.955 163.899 137.532C161.322 140.11 157.713 142 153.417 142H15.9496C11.6537 142 8.04522 140.11 5.4677 137.532C2.89018 134.955 1 131.346 1 127.05V23.9496C1 19.4819 3.06202 16.2171 5.63954 13.6395C8.21706 11.062 11.4819 9 15.9496 9ZM84.5116 49.7248C82.9651 49.7248 81.2468 50.4121 80.0439 51.615L54.2687 77.3902C52.5504 79.2804 52.0349 82.0297 52.8941 84.4354C53.9251 86.8411 56.3308 88.3876 58.9083 88.3876H71.7959V118.459C71.7959 120.864 73.6861 122.755 76.0917 122.755H93.2752C95.6809 122.755 97.5711 120.864 97.5711 118.459V88.3876H110.459C113.036 88.3876 115.442 86.8411 116.473 84.4354C117.332 82.0297 116.817 79.2804 115.098 77.3902L89.323 51.615C88.1202 50.4121 86.4018 49.7248 84.6835 49.7248C84.6835 49.7248 84.6835 49.7248 84.5116 49.7248Z" fill="#AAAAAA"/>
</svg>
