<svg width="154" height="150" viewBox="0 0 154 150" fill="none" xmlns="http://www.w3.org/2000/svg">
<path d="M0 27C0 21.4772 4.47715 17 10 17H51.2447C54.3952 17 57.3616 18.4848 59.2498 21.0068L64.969 28.646C66.8572 31.168 69.8235 32.6528 72.9741 32.6528H140C145.523 32.6528 150 37.1299 150 42.6528V70.6667H0V27Z" fill="#53B2DD"/>
<path d="M0 54.6665C0 51.9051 2.23858 49.6665 5 49.6665H145C147.761 49.6665 150 51.9051 150 54.6665V133C150 138.523 145.523 143 140 143H10C4.47715 143 0 138.523 0 133V54.6665Z" fill="#5BC3F1"/>
<path d="M0 61.6665C0 58.9051 2.23858 56.6665 5 56.6665H145C147.761 56.6665 150 58.9051 150 61.6665V140C150 145.523 145.523 150 140 150H10C4.47715 150 0 145.523 0 140V61.6665Z" fill="#62CFFF"/>
<path d="M153.749 26.4577V119.7C153.749 127.045 147.795 133 140.449 133H67.3C59.9546 133 54 127.045 54 119.7V13.3C54 5.95463 59.9546 0 67.3 0H124.944L153.749 26.4577Z" fill="#F2F4F7"/>
<path d="M153.749 26.4577H128.269C126.433 26.4577 124.944 24.969 124.944 23.1326V0L153.749 26.4577Z" fill="#DEDEDE"/>
<path d="M81.3025 78.8478V99.8551H76.1853V78.8478H81.3025ZM108.801 78.8478V99.8551H103.684V87.2567L98.9858 99.8551H94.8562L90.1281 87.2268V99.8551H85.0109V78.8478H91.0557L96.9509 93.3913L102.786 78.8478H108.801ZM126.426 85.4912C126.047 84.7929 125.498 84.2642 124.78 83.9052C124.082 83.5261 123.254 83.3366 122.296 83.3366C120.641 83.3366 119.314 83.8851 118.316 84.9825C117.319 86.0598 116.82 87.506 116.82 89.3215C116.82 91.2567 117.339 92.7729 118.376 93.8702C119.434 94.9475 120.88 95.4861 122.715 95.4861C123.972 95.4861 125.03 95.1668 125.887 94.5285C126.765 93.89 127.404 92.9723 127.803 91.7753H121.309V88.0048H132.441V92.7629C132.062 94.0397 131.414 95.2267 130.496 96.3239C129.598 97.4212 128.451 98.309 127.055 98.9873C125.658 99.6655 124.082 100.005 122.326 100.005C120.252 100.005 118.396 99.5558 116.76 98.6581C115.144 97.7404 113.877 96.4735 112.96 94.8576C112.062 93.2417 111.613 91.3963 111.613 89.3215C111.613 87.2467 112.062 85.4014 112.96 83.7855C113.877 82.1495 115.144 80.8827 116.76 79.985C118.376 79.0673 120.222 78.6084 122.296 78.6084C124.81 78.6084 126.925 79.2169 128.641 80.4338C130.376 81.6508 131.523 83.3366 132.082 85.4912H126.426Z" fill="#475467"/>
</svg>
