<svg width="150" height="150" viewBox="0 0 150 150" fill="none" xmlns="http://www.w3.org/2000/svg">
<path d="M10.0036 112.634L17.5036 112.634L10.0036 112.634ZM10.0042 50.6192L17.5042 50.6192L17.5042 50.6192L10.0042 50.6192ZM123.748 128.946L123.748 136.446L123.748 136.446L123.748 128.946ZM26.254 128.946L26.254 121.446L26.254 121.446L26.254 128.946ZM140 49.2311L132.5 49.2309L132.5 49.2309L140 49.2311ZM139.998 112.635L132.498 112.635L132.498 112.635L139.998 112.635ZM10 29.1539L2.5 29.1562L10 29.1539ZM53.0863 78.1145C50.1559 81.042 50.1536 85.7908 53.0811 88.7211C56.0086 91.6515 60.7573 91.6539 63.6877 88.7264L53.0863 78.1145ZM75.0048 66.8191L80.3028 61.5105C77.374 58.5876 72.6314 58.5888 69.7041 61.5132L75.0048 66.8191ZM85.5898 87.9787C88.5217 90.9047 93.2704 90.8999 96.1964 87.968C99.1224 85.0361 99.1176 80.2874 96.1857 77.3614L85.5898 87.9787ZM67.5048 107.599C67.5048 111.741 70.8627 115.099 75.0048 115.099C79.1469 115.099 82.5048 111.741 82.5048 107.599H67.5048ZM17.5036 112.634L17.5042 50.6192L2.50423 50.6191L2.50362 112.634L17.5036 112.634ZM123.748 121.446L26.254 121.446L26.2539 136.446L123.748 136.446L123.748 121.446ZM132.5 49.2309L132.498 112.635L147.498 112.635L147.5 49.2314L132.5 49.2309ZM2.5 29.1562C2.50197 35.5624 2.50428 44.4088 2.50423 50.6191L17.5042 50.6192C17.5043 44.4063 17.502 35.5578 17.5 29.1516L2.5 29.1562ZM89.2905 48.5749H131.875V33.5749H89.2905V48.5749ZM18.1255 28.5H43.1184V13.5H18.1255V28.5ZM17.5 29.1516C17.4999 28.7681 17.8008 28.5 18.1255 28.5V13.5C9.473 13.5 2.49735 20.5284 2.5 29.1562L17.5 29.1516ZM2.50362 112.634C2.50349 125.758 13.1102 136.446 26.2539 136.446L26.254 121.446C21.448 121.446 17.5036 117.528 17.5036 112.634L2.50362 112.634ZM147.5 49.2314C147.5 40.6114 140.531 33.5749 131.875 33.5749V48.5749C132.193 48.5749 132.5 48.8418 132.5 49.2309L147.5 49.2314ZM123.748 136.446C136.891 136.447 147.498 125.759 147.498 112.635L132.498 112.635C132.498 117.528 128.554 121.446 123.748 121.446L123.748 136.446ZM63.6877 88.7264L80.3055 72.125L69.7041 61.5132L53.0863 78.1145L63.6877 88.7264ZM69.7069 72.1277L85.5898 87.9787L96.1857 77.3614L80.3028 61.5105L69.7069 72.1277ZM67.5048 66.8191V107.599H82.5048V66.8191H67.5048ZM43.1184 28.5C49.7927 28.5 56.1674 31.2716 60.7195 36.1527L71.6894 25.9222C64.3001 17.999 53.9525 13.5 43.1184 13.5V28.5ZM89.2905 33.5749C82.6162 33.5749 76.2415 30.8033 71.6894 25.9222L60.7195 36.1527C68.1088 44.0759 78.4564 48.5749 89.2905 48.5749V33.5749Z" fill="#AAAAAA"/>
</svg>
