<svg width="230" height="230" viewBox="0 0 230 230" fill="none" xmlns="http://www.w3.org/2000/svg">
<path d="M129.102 114.782L84.4939 152.633C82.9235 153.965 82.1138 155.61 82.0647 157.567C82.0157 159.524 82.7763 161.211 84.3466 162.626C86.0151 164.042 88.0272 164.75 90.3827 164.75C92.7382 164.75 94.7502 164.042 96.4187 162.626L143.088 123.027C144.462 121.861 145.468 120.57 146.106 119.154C146.744 117.739 147.062 116.281 147.062 114.782C147.062 113.283 146.744 111.826 146.106 110.41C145.468 108.994 144.462 107.703 143.088 106.537L96.2715 66.813C94.603 65.3972 92.6401 64.7101 90.3827 64.7518C88.1253 64.7934 86.1624 65.4805 84.4939 66.813C82.9235 68.2287 82.1138 69.9151 82.0647 71.8722C82.0157 73.8293 82.8254 75.5157 84.4939 76.9315L129.102 114.782Z" fill="#AAAAAA"/>
</svg>
