<svg width="230" height="230" viewBox="0 0 230 230" fill="none" xmlns="http://www.w3.org/2000/svg">
<rect width="218" height="218" rx="50" transform="matrix(-1 0 0 1 224 6)" fill="#808080" fill-opacity="0.5"/>
<path d="M129.102 115.282L84.4939 153.133C82.9235 154.465 82.1138 156.11 82.0647 158.067C82.0157 160.024 82.7763 161.711 84.3466 163.126C86.0151 164.542 88.0272 165.25 90.3827 165.25C92.7382 165.25 94.7502 164.542 96.4187 163.126L143.088 123.527C144.462 122.361 145.468 121.07 146.106 119.654C146.744 118.239 147.062 116.781 147.062 115.282C147.062 113.783 146.744 112.326 146.106 110.91C145.468 109.494 144.462 108.203 143.088 107.037L96.2715 67.313C94.603 65.8972 92.6401 65.2101 90.3827 65.2518C88.1253 65.2934 86.1624 65.9805 84.4939 67.313C82.9235 68.7287 82.1138 70.4151 82.0647 72.3722C82.0157 74.3293 82.8254 76.0157 84.4939 77.4315L129.102 115.282Z" fill="#AAAAAA"/>
</svg>
