<svg width="230" height="230" viewBox="0 0 230 230" fill="none" xmlns="http://www.w3.org/2000/svg">
<rect width="218" height="218" rx="50" transform="matrix(-1 0 0 1 224 6)" fill="#808080" fill-opacity="0.5"/>
<path d="M118.766 121.142C121.87 118.021 121.87 112.979 118.766 109.858L84.6126 75.5254C81.5081 72.4046 81.5081 67.3621 84.6125 64.2413L87.1392 61.7014C90.2667 58.5575 95.3549 58.5575 98.4825 61.7014L146.387 109.858C149.492 112.979 149.492 118.021 146.387 121.142L98.4825 169.299C95.3549 172.443 90.2667 172.443 87.1392 169.299L84.6125 166.759C81.5081 163.638 81.5081 158.595 84.6125 155.475L118.766 121.142Z" fill="#AAAAAA"/>
</svg>
