<svg width="133" height="133" viewBox="0 0 133 133" fill="none" xmlns="http://www.w3.org/2000/svg">
<path d="M116.596 26.4577V119.7C116.596 127.045 110.641 133 103.296 133H30.1467C22.8013 133 16.8467 127.045 16.8467 119.7V13.3C16.8467 5.95463 22.8013 0 30.1467 0H87.791L116.596 26.4577Z" fill="#F2F4F7"/>
<path d="M37.315 100.268C36.6353 100.268 36.0517 100.027 35.5643 99.5469C35.0837 99.0594 34.8434 98.4759 34.8434 97.7962C34.8434 97.1233 35.0837 96.5466 35.5643 96.0661C36.0517 95.5855 36.6353 95.3452 37.315 95.3452C37.9741 95.3452 38.5508 95.5855 39.0451 96.0661C39.5394 96.5466 39.7866 97.1233 39.7866 97.7962C39.7866 98.2493 39.6699 98.6647 39.4364 99.0423C39.2099 99.413 38.9112 99.7116 38.5405 99.9382C38.1697 100.158 37.7612 100.268 37.315 100.268ZM43.4708 100V78.9091H57.6824V82.5856H47.93V87.6112H56.9513V91.2876H47.93V96.3235H57.7236V100H43.4708ZM65.4087 78.9091L69.6619 86.0973H69.8267L74.1005 78.9091H79.1364L72.6999 89.4545L79.2805 100H74.152L69.8267 92.8015H69.6619L65.3366 100H60.2287L66.8299 89.4545L60.3523 78.9091H65.4087ZM81.1548 82.5856V78.9091H98.4766V82.5856H92.0195V100H87.6119V82.5856H81.1548Z" fill="#475467"/>
<path d="M116.596 26.4577H91.1161C89.2797 26.4577 87.7911 24.969 87.7911 23.1326V0L116.596 26.4577Z" fill="#DEDEDE"/>
</svg>
