<svg width="230" height="230" viewBox="0 0 230 230" fill="none" xmlns="http://www.w3.org/2000/svg">
<path d="M94.5357 139.811C94.5357 136.517 91.8013 133.679 88.2205 133.679H68.0893C64.5085 133.679 61.7731 136.517 61.773 139.811V162.408C61.7731 165.702 64.5085 168.539 68.0893 168.539H88.2205C91.8013 168.539 94.5367 165.702 94.5367 162.408L94.5357 139.811ZM168.352 139.811C168.352 136.517 165.617 133.68 162.037 133.679H141.904C138.324 133.679 135.589 136.517 135.589 139.811V162.408C135.589 165.702 138.324 168.539 141.904 168.539H162.037C165.617 168.539 168.352 165.702 168.352 162.408V139.811ZM94.5357 68.0924C94.5357 64.798 91.8013 61.9606 88.2205 61.9605H68.0893C64.5084 61.9605 61.7731 64.7979 61.773 68.0924V90.6889C61.773 93.9833 64.5084 96.8207 68.0893 96.8207H88.2205C91.8013 96.8207 94.5357 93.9833 94.5357 90.6889V68.0924ZM168.352 68.0924C168.352 64.7979 165.617 61.9605 162.036 61.9605H141.904C138.324 61.9606 135.589 64.798 135.589 68.0924V90.6889C135.589 93.9833 138.324 96.8206 141.904 96.8207H162.036C165.617 96.8207 168.352 93.9833 168.352 90.6889V68.0924ZM108.747 162.408C108.747 173.734 99.4641 182.75 88.2205 182.75H68.0893C56.8456 182.75 47.5625 173.734 47.5625 162.408V139.811C47.5626 128.484 56.8457 119.469 68.0893 119.469H88.2205C99.4641 119.469 108.746 128.484 108.746 139.811L108.747 162.408ZM182.562 162.408C182.562 173.734 173.28 182.75 162.037 182.75H141.904C130.661 182.75 121.379 173.734 121.379 162.408V139.811C121.379 128.484 130.661 119.469 141.904 119.469H162.037C173.28 119.469 182.562 128.484 182.562 139.811V162.408ZM108.746 90.6889C108.746 102.016 99.4641 111.031 88.2205 111.031H68.0893C56.8456 111.031 47.5625 102.016 47.5625 90.6889V68.0924C47.5625 56.7655 56.8456 47.75 68.0893 47.75H88.2205C99.4641 47.7501 108.746 56.7655 108.746 68.0924V90.6889ZM182.562 90.6889C182.562 102.016 173.279 111.031 162.036 111.031H141.904C130.661 111.031 121.379 102.016 121.379 90.6889V68.0924C121.379 56.7655 130.661 47.7501 141.904 47.75H162.036C173.279 47.75 182.562 56.7655 182.562 68.0924V90.6889Z" fill="#AAAAAA"/>
</svg>
