<svg width="230" height="230" viewBox="0 0 230 230" fill="none" xmlns="http://www.w3.org/2000/svg">
<rect width="218" height="218" rx="50" transform="matrix(-1 0 0 1 224 6)" fill="#808080" fill-opacity="0.5"/>
<path d="M71.5833 110.35C67.727 110.35 64.4262 108.976 61.6807 106.227C58.9352 103.479 57.5625 100.13 57.5625 96.18V71.4199C57.5625 67.5229 58.9352 64.1873 61.6807 61.413C64.4262 58.6377 67.727 57.25 71.5833 57.25H96.4925C100.348 57.25 103.649 58.6377 106.395 61.413C109.14 64.1873 110.513 67.5229 110.513 71.4199V96.18C110.513 100.13 109.14 103.479 106.395 106.227C103.649 108.976 100.348 110.35 96.4925 110.35H71.5833ZM71.5833 172.25C67.727 172.25 64.4262 170.877 61.6807 168.132C58.9352 165.386 57.5625 162.085 57.5625 158.229V133.32C57.5625 129.465 58.9352 126.164 61.6807 123.418C64.4262 120.672 67.727 119.299 71.5833 119.299H96.4925C100.348 119.299 103.649 120.672 106.395 123.418C109.14 126.164 110.513 129.465 110.513 133.32V158.229C110.513 162.085 109.14 165.386 106.395 168.132C103.649 170.877 100.348 172.25 96.4925 172.25H71.5833ZM133.633 110.35C129.683 110.35 126.334 108.976 123.585 106.227C120.837 103.479 119.463 100.13 119.463 96.18V71.4199C119.463 67.5229 120.837 64.1873 123.585 61.413C126.334 58.6377 129.683 57.25 133.633 57.25H158.393C162.29 57.25 165.625 58.6377 168.4 61.413C171.175 64.1873 172.563 67.5229 172.563 71.4199V96.18C172.563 100.13 171.175 103.479 168.4 106.227C165.625 108.976 162.29 110.35 158.393 110.35H133.633ZM133.633 172.25C129.683 172.25 126.334 170.877 123.585 168.132C120.837 165.386 119.463 162.085 119.463 158.229V133.32C119.463 129.465 120.837 126.164 123.585 123.418C126.334 120.672 129.683 119.299 133.633 119.299H158.393C162.29 119.299 165.625 120.672 168.4 123.418C171.175 126.164 172.563 129.465 172.563 133.32V158.229C172.563 162.085 171.175 165.386 168.4 168.132C165.625 170.877 162.29 172.25 158.393 172.25H133.633ZM71.5833 96.18H96.4925V71.4199H71.5833V96.18ZM133.633 96.18H158.393V71.4199H133.633V96.18ZM133.633 158.229H158.393V133.32H133.633V158.229ZM71.5833 158.229H96.4925V133.32H71.5833V158.229Z" fill="#AAAAAA"/>
</svg>
