<svg width="150" height="150" viewBox="0 0 150 150" fill="none" xmlns="http://www.w3.org/2000/svg">
<path d="M22 28.625C22 24.9661 24.9661 22 28.625 22H41.875C45.5339 22 48.5 24.9661 48.5 28.625V41.875C48.5 45.5339 45.5339 48.5 41.875 48.5H28.625C24.9661 48.5 22 45.5339 22 41.875V28.625Z" stroke="#AAAAAA" stroke-width="9"/>
<path d="M61.75 28.625C61.75 24.9661 64.7161 22 68.375 22H81.625C85.2839 22 88.25 24.9661 88.25 28.625V41.875C88.25 45.5339 85.2839 48.5 81.625 48.5H68.375C64.7161 48.5 61.75 45.5339 61.75 41.875V28.625Z" stroke="#AAAAAA" stroke-width="9"/>
<path d="M101.5 28.625C101.5 24.9661 104.466 22 108.125 22H121.375C125.034 22 128 24.9661 128 28.625V41.875C128 45.5339 125.034 48.5 121.375 48.5H108.125C104.466 48.5 101.5 45.5339 101.5 41.875V28.625Z" stroke="#AAAAAA" stroke-width="9"/>
<path d="M22 68.375C22 64.7161 24.9661 61.75 28.625 61.75H41.875C45.5339 61.75 48.5 64.7161 48.5 68.375V81.625C48.5 85.2839 45.5339 88.25 41.875 88.25H28.625C24.9661 88.25 22 85.2839 22 81.625V68.375Z" stroke="#AAAAAA" stroke-width="9"/>
<path d="M61.75 68.375C61.75 64.7161 64.7161 61.75 68.375 61.75H81.625C85.2839 61.75 88.25 64.7161 88.25 68.375V81.625C88.25 85.2839 85.2839 88.25 81.625 88.25H68.375C64.7161 88.25 61.75 85.2839 61.75 81.625V68.375Z" stroke="#AAAAAA" stroke-width="9"/>
<path d="M101.5 68.375C101.5 64.7161 104.466 61.75 108.125 61.75H121.375C125.034 61.75 128 64.7161 128 68.375V81.625C128 85.2839 125.034 88.25 121.375 88.25H108.125C104.466 88.25 101.5 85.2839 101.5 81.625V68.375Z" stroke="#AAAAAA" stroke-width="9"/>
<path d="M22 108.125C22 104.466 24.9661 101.5 28.625 101.5H41.875C45.5339 101.5 48.5 104.466 48.5 108.125V121.375C48.5 125.034 45.5339 128 41.875 128H28.625C24.9661 128 22 125.034 22 121.375V108.125Z" stroke="#AAAAAA" stroke-width="9"/>
<path d="M61.75 108.125C61.75 104.466 64.7161 101.5 68.375 101.5H81.625C85.2839 101.5 88.25 104.466 88.25 108.125V121.375C88.25 125.034 85.2839 128 81.625 128H68.375C64.7161 128 61.75 125.034 61.75 121.375V108.125Z" stroke="#AAAAAA" stroke-width="9"/>
<path d="M101.5 108.125C101.5 104.466 104.466 101.5 108.125 101.5H121.375C125.034 101.5 128 104.466 128 108.125V121.375C128 125.034 125.034 128 121.375 128H108.125C104.466 128 101.5 125.034 101.5 121.375V108.125Z" stroke="#AAAAAA" stroke-width="9"/>
</svg>
