<svg width="150" height="150" viewBox="0 0 150 150" fill="none" xmlns="http://www.w3.org/2000/svg">
<path d="M120.778 16C128.08 16 134 21.8387 134 29.0411L134 51.3028C134 58.5052 128.08 64.3439 120.778 64.3439H100.944C93.6421 64.3439 87.7223 58.5052 87.7223 51.3028L87.7222 29.0411C87.7222 21.8387 93.642 16 100.944 16L120.778 16Z" stroke="#AAAAAA" stroke-width="14" stroke-linecap="round" stroke-linejoin="round"/>
<path d="M28.2222 16C20.9198 16 15 21.8387 15 29.0411L15.0001 51.3028C15.0001 58.5052 20.9199 64.3439 28.2223 64.3439H48.0556C55.358 64.3439 61.2778 58.5052 61.2778 51.3028L61.2778 29.0411C61.2778 21.8387 55.358 16 48.0555 16L28.2222 16Z" stroke="#AAAAAA" stroke-width="14" stroke-linecap="round" stroke-linejoin="round"/>
<path d="M120.778 86.6563C128.08 86.6563 134 92.495 134 99.6974V121.959C134 129.161 128.08 135 120.778 135H100.944C93.6421 135 87.7223 129.161 87.7223 121.959L87.7223 99.6974C87.7223 92.495 93.6421 86.6563 100.944 86.6563H120.778Z" stroke="#AAAAAA" stroke-width="14" stroke-linecap="round" stroke-linejoin="round"/>
<path d="M28.2223 86.6563C20.9198 86.6563 15.0001 92.495 15.0001 99.6974L15.0001 121.959C15.0001 129.161 20.9199 135 28.2223 135H48.0556C55.3581 135 61.2778 129.161 61.2778 121.959L61.2778 99.6974C61.2778 92.495 55.358 86.6563 48.0556 86.6563H28.2223Z" stroke="#AAAAAA" stroke-width="14" stroke-linecap="round" stroke-linejoin="round"/>
</svg>
