<svg width="230" height="230" viewBox="0 0 230 230" fill="none" xmlns="http://www.w3.org/2000/svg">
<path d="M95.4042 137.674C95.4041 134.599 92.852 131.951 89.51 131.951H70.7208C67.3787 131.951 64.8257 134.599 64.8257 137.674V158.764C64.8257 161.839 67.3787 164.487 70.7208 164.487H89.51C92.852 164.487 95.4051 161.839 95.4051 158.764L95.4042 137.674ZM164.299 137.674C164.299 134.599 161.747 131.951 158.405 131.951H139.615C136.273 131.951 133.721 134.599 133.721 137.674V158.764C133.721 161.839 136.273 164.487 139.615 164.487H158.405C161.747 164.487 164.299 161.838 164.299 158.764V137.674ZM95.4042 70.7362C95.4042 67.6614 92.852 65.0132 89.51 65.0132H70.7208C67.3787 65.0132 64.8257 67.6614 64.8257 70.7362V91.8263C64.8257 94.9011 67.3787 97.5493 70.7208 97.5493H89.51C92.8521 97.5493 95.4042 94.9011 95.4042 91.8263V70.7362ZM164.299 70.7362C164.299 67.6614 161.746 65.0132 158.404 65.0132H139.615C136.273 65.0132 133.721 67.6614 133.721 70.7362V91.8263C133.721 94.9011 136.273 97.5493 139.615 97.5493H158.404C161.746 97.5493 164.299 94.9011 164.299 91.8263V70.7362ZM108.668 158.764C108.668 169.335 100.004 177.75 89.51 177.75H70.7208C60.2267 177.75 51.5625 169.336 51.5625 158.764V137.674C51.5626 127.102 60.2268 118.688 70.7208 118.688H89.51C100.004 118.688 108.667 127.102 108.667 137.674L108.668 158.764ZM177.563 158.764C177.562 169.335 168.899 177.75 158.405 177.75H139.615C129.121 177.75 120.458 169.335 120.458 158.764V137.674C120.458 127.102 129.121 118.688 139.615 118.688H158.405C168.899 118.688 177.562 127.102 177.563 137.674V158.764ZM108.667 91.8263C108.667 102.398 100.004 110.812 89.51 110.813H70.7208C60.2267 110.813 51.5625 102.398 51.5625 91.8263V70.7362C51.5625 60.1645 60.2268 51.75 70.7208 51.75H89.51C100.004 51.7501 108.667 60.1645 108.667 70.7362V91.8263ZM177.563 91.8263C177.563 102.398 168.898 110.813 158.404 110.813H139.615C129.121 110.812 120.458 102.398 120.458 91.8263V70.7362C120.458 60.1645 129.121 51.75 139.615 51.75H158.404C168.898 51.75 177.562 60.1645 177.563 70.7362V91.8263Z" fill="#AAAAAA"/>
</svg>
