<svg width="150" height="150" viewBox="0 0 150 150" fill="none" xmlns="http://www.w3.org/2000/svg">
<path d="M135 23.5753L135 48.4561C135 53.1144 131.148 57.0314 126.222 57.0314H104.056C99.1295 57.0314 95.2778 53.1143 95.2778 48.4561L95.2778 23.5753C95.2778 18.9171 99.1294 15 104.056 15L126.222 15C131.148 15 135 18.9171 135 23.5753ZM14.0001 48.4561L14 23.5753C14 23.5753 14 23.5753 14 23.5753C14 18.9171 17.8516 15 22.7778 15L44.9444 15C49.8706 15 53.7222 18.9171 53.7222 23.5753L53.7223 48.4561C53.7223 53.1143 49.8706 57.0314 44.9445 57.0314H22.7778C17.8517 57.0314 14.0001 53.1143 14.0001 48.4561ZM135 102.544V127.425C135 132.083 131.148 136 126.222 136H104.056C99.1295 136 95.2778 132.083 95.2778 127.425L95.2778 102.544C95.2778 97.8859 99.1295 93.9688 104.056 93.9688H126.222C131.148 93.9688 135 97.8859 135 102.544ZM14.0001 127.425L14.0001 102.544C14.0001 97.8859 17.8517 93.9688 22.7778 93.9688H44.9445C49.8706 93.9688 53.7223 97.8859 53.7223 102.544L53.7223 127.425C53.7223 132.083 49.8706 136 44.9445 136H22.7779C17.8517 136 14.0001 132.083 14.0001 127.425Z" stroke="#AAAAAA" stroke-width="12" stroke-linecap="round" stroke-linejoin="round"/>
</svg>
