<svg width="230" height="230" viewBox="0 0 230 230" fill="none" xmlns="http://www.w3.org/2000/svg">
<rect width="218" height="218" rx="50" transform="matrix(-1 0 0 1 224 6)" fill="#808080" fill-opacity="0.5"/>
<path d="M95.2335 138.651C95.2334 135.479 92.6003 132.747 89.1522 132.747H69.7665C66.3183 132.747 63.6843 135.479 63.6842 138.651V160.411C63.6843 163.583 66.3183 166.316 69.7665 166.316H89.1522C92.6003 166.316 95.2344 163.583 95.2344 160.411L95.2335 138.651ZM166.316 138.651C166.316 135.479 163.682 132.747 160.234 132.747H140.848C137.4 132.747 134.767 135.479 134.767 138.651V160.411C134.767 163.583 137.4 166.316 140.848 166.316H160.234C163.682 166.316 166.316 163.583 166.316 160.411V138.651ZM95.2335 69.589C95.2335 66.4166 92.6003 63.6843 89.1522 63.6842H69.7665C66.3183 63.6842 63.6842 66.4165 63.6842 69.589V91.3485C63.6842 94.521 66.3183 97.2533 69.7665 97.2533H89.1522C92.6003 97.2533 95.2335 94.521 95.2335 91.3485V69.589ZM166.316 69.589C166.316 66.4165 163.682 63.6842 160.233 63.6842H140.848C137.4 63.6843 134.767 66.4166 134.767 69.589V91.3485C134.767 94.5209 137.4 97.2532 140.848 97.2533H160.233C163.682 97.2533 166.316 94.521 166.316 91.3485V69.589ZM108.919 160.411C108.919 171.318 99.9793 180 89.1522 180H69.7665C58.9393 180 50 171.318 50 160.411V138.651C50.0001 127.744 58.9393 119.063 69.7665 119.063H89.1522C99.9793 119.063 108.918 127.744 108.918 138.651L108.919 160.411ZM180 160.411C180 171.318 171.061 180 160.234 180H140.848C130.021 180 121.082 171.318 121.082 160.411V138.651C121.082 127.744 130.021 119.063 140.848 119.063H160.234C171.061 119.063 180 127.744 180 138.651V160.411ZM108.918 91.3485C108.918 102.256 99.9793 110.937 89.1522 110.938H69.7665C58.9393 110.938 50 102.256 50 91.3485V69.589C50 58.6816 58.9393 50 69.7665 50H89.1522C99.9793 50.0001 108.918 58.6816 108.918 69.589V91.3485ZM180 91.3485C180 102.256 171.061 110.938 160.233 110.938H140.848C130.021 110.937 121.082 102.256 121.082 91.3485V69.589C121.082 58.6816 130.021 50.0001 140.848 50H160.233C171.061 50 180 58.6816 180 69.589V91.3485Z" fill="#AAAAAA"/>
</svg>
