<svg width="230" height="230" viewBox="0 0 230 230" fill="none" xmlns="http://www.w3.org/2000/svg">
<rect width="218" height="218" rx="50" transform="matrix(-1 0 0 1 224 6)" fill="#808080" fill-opacity="0.5"/>
<path d="M95.4042 138.174C95.4041 135.099 92.852 132.451 89.51 132.451H70.7208C67.3787 132.451 64.8257 135.099 64.8257 138.174V159.264C64.8257 162.339 67.3787 164.987 70.7208 164.987H89.51C92.852 164.987 95.4051 162.339 95.4051 159.264L95.4042 138.174ZM164.299 138.174C164.299 135.099 161.747 132.451 158.405 132.451H139.615C136.273 132.451 133.721 135.099 133.721 138.174V159.264C133.721 162.339 136.273 164.987 139.615 164.987H158.405C161.747 164.987 164.299 162.338 164.299 159.264V138.174ZM95.4042 71.2362C95.4042 68.1614 92.852 65.5132 89.51 65.5132H70.7208C67.3787 65.5132 64.8257 68.1614 64.8257 71.2362V92.3263C64.8257 95.4011 67.3787 98.0493 70.7208 98.0493H89.51C92.8521 98.0493 95.4042 95.4011 95.4042 92.3263V71.2362ZM164.299 71.2362C164.299 68.1614 161.746 65.5132 158.404 65.5132H139.615C136.273 65.5132 133.721 68.1614 133.721 71.2362V92.3263C133.721 95.4011 136.273 98.0493 139.615 98.0493H158.404C161.746 98.0493 164.299 95.4011 164.299 92.3263V71.2362ZM108.668 159.264C108.668 169.835 100.004 178.25 89.51 178.25H70.7208C60.2267 178.25 51.5625 169.836 51.5625 159.264V138.174C51.5626 127.602 60.2268 119.188 70.7208 119.188H89.51C100.004 119.188 108.667 127.602 108.667 138.174L108.668 159.264ZM177.563 159.264C177.562 169.835 168.899 178.25 158.405 178.25H139.615C129.121 178.25 120.458 169.835 120.458 159.264V138.174C120.458 127.602 129.121 119.188 139.615 119.188H158.405C168.899 119.188 177.562 127.602 177.563 138.174V159.264ZM108.667 92.3263C108.667 102.898 100.004 111.312 89.51 111.313H70.7208C60.2267 111.313 51.5625 102.898 51.5625 92.3263V71.2362C51.5625 60.6645 60.2268 52.25 70.7208 52.25H89.51C100.004 52.2501 108.667 60.6645 108.667 71.2362V92.3263ZM177.563 92.3263C177.563 102.898 168.898 111.313 158.404 111.313H139.615C129.121 111.312 120.458 102.898 120.458 92.3263V71.2362C120.458 60.6645 129.121 52.25 139.615 52.25H158.404C168.898 52.25 177.562 60.6645 177.563 71.2362V92.3263Z" fill="#AAAAAA"/>
</svg>
