<svg width="230" height="230" viewBox="0 0 230 230" fill="none" xmlns="http://www.w3.org/2000/svg">
<path d="M71.5833 110.85C67.727 110.85 64.4262 109.476 61.6807 106.727C58.9352 103.979 57.5625 100.63 57.5625 96.68V71.9199C57.5625 68.0229 58.9352 64.6873 61.6807 61.913C64.4262 59.1377 67.727 57.75 71.5833 57.75H96.4925C100.348 57.75 103.649 59.1377 106.395 61.913C109.14 64.6873 110.513 68.0229 110.513 71.9199V96.68C110.513 100.63 109.14 103.979 106.395 106.727C103.649 109.476 100.348 110.85 96.4925 110.85H71.5833ZM71.5833 172.75C67.727 172.75 64.4262 171.377 61.6807 168.632C58.9352 165.886 57.5625 162.585 57.5625 158.729V133.82C57.5625 129.965 58.9352 126.664 61.6807 123.918C64.4262 121.172 67.727 119.799 71.5833 119.799H96.4925C100.348 119.799 103.649 121.172 106.395 123.918C109.14 126.664 110.513 129.965 110.513 133.82V158.729C110.513 162.585 109.14 165.886 106.395 168.632C103.649 171.377 100.348 172.75 96.4925 172.75H71.5833ZM133.633 110.85C129.683 110.85 126.334 109.476 123.585 106.727C120.837 103.979 119.463 100.63 119.463 96.68V71.9199C119.463 68.0229 120.837 64.6873 123.585 61.913C126.334 59.1377 129.683 57.75 133.633 57.75H158.393C162.29 57.75 165.625 59.1377 168.4 61.913C171.175 64.6873 172.563 68.0229 172.563 71.9199V96.68C172.563 100.63 171.175 103.979 168.4 106.727C165.625 109.476 162.29 110.85 158.393 110.85H133.633ZM133.633 172.75C129.683 172.75 126.334 171.377 123.585 168.632C120.837 165.886 119.463 162.585 119.463 158.729V133.82C119.463 129.965 120.837 126.664 123.585 123.918C126.334 121.172 129.683 119.799 133.633 119.799H158.393C162.29 119.799 165.625 121.172 168.4 123.918C171.175 126.664 172.563 129.965 172.563 133.82V158.729C172.563 162.585 171.175 165.886 168.4 168.632C165.625 171.377 162.29 172.75 158.393 172.75H133.633ZM71.5833 96.68H96.4925V71.9199H71.5833V96.68ZM133.633 96.68H158.393V71.9199H133.633V96.68ZM133.633 158.729H158.393V133.82H133.633V158.729ZM71.5833 158.729H96.4925V133.82H71.5833V158.729Z" fill="#AAAAAA"/>
</svg>
