<svg width="150" height="150" viewBox="0 0 150 150" fill="none" xmlns="http://www.w3.org/2000/svg">
<path d="M119 19C125.904 19 131.5 24.5198 131.5 31.3287L131.5 52.3745C131.5 59.1835 125.904 64.7033 119 64.7033H100.25C93.3465 64.7033 87.75 59.1835 87.75 52.3745L87.75 31.3287C87.75 24.5198 93.3464 19 100.25 19L119 19Z" stroke="#AAAAAA" stroke-width="12" stroke-linecap="round" stroke-linejoin="round"/>
<path d="M31.5 19C24.5964 19 19 24.5198 19 31.3287L19.0001 52.3745C19.0001 59.1835 24.5965 64.7033 31.5 64.7033H50.25C57.1536 64.7033 62.75 59.1835 62.75 52.3745L62.75 31.3287C62.75 24.5198 57.1535 19 50.25 19L31.5 19Z" stroke="#AAAAAA" stroke-width="12" stroke-linecap="round" stroke-linejoin="round"/>
<path d="M119 85.797C125.904 85.797 131.5 91.3167 131.5 98.1257V119.171C131.5 125.98 125.904 131.5 119 131.5H100.25C93.3465 131.5 87.7501 125.98 87.7501 119.171L87.75 98.1257C87.75 91.3167 93.3465 85.797 100.25 85.797H119Z" stroke="#AAAAAA" stroke-width="12" stroke-linecap="round" stroke-linejoin="round"/>
<path d="M31.5 85.797C24.5965 85.797 19 91.3167 19 98.1257L19.0001 119.171C19.0001 125.98 24.5965 131.5 31.5001 131.5H50.2501C57.1536 131.5 62.7501 125.98 62.7501 119.171L62.75 98.1257C62.75 91.3167 57.1536 85.797 50.25 85.797H31.5Z" stroke="#AAAAAA" stroke-width="12" stroke-linecap="round" stroke-linejoin="round"/>
</svg>
