<svg width="230" height="230" viewBox="0 0 230 230" fill="none" xmlns="http://www.w3.org/2000/svg">
<rect width="218" height="218" rx="50" transform="matrix(-1 0 0 1 224 6)" fill="#808080" fill-opacity="0.5"/>
<path d="M94.5357 139.311C94.5357 136.017 91.8013 133.179 88.2205 133.179H68.0893C64.5085 133.179 61.7731 136.017 61.773 139.311V161.908C61.7731 165.202 64.5085 168.039 68.0893 168.039H88.2205C91.8013 168.039 94.5367 165.202 94.5367 161.908L94.5357 139.311ZM168.352 139.311C168.352 136.017 165.617 133.18 162.037 133.179H141.904C138.324 133.179 135.589 136.017 135.589 139.311V161.908C135.589 165.202 138.324 168.039 141.904 168.039H162.037C165.617 168.039 168.352 165.202 168.352 161.908V139.311ZM94.5357 67.5924C94.5357 64.298 91.8013 61.4606 88.2205 61.4605H68.0893C64.5084 61.4605 61.7731 64.2979 61.773 67.5924V90.1889C61.773 93.4833 64.5084 96.3207 68.0893 96.3207H88.2205C91.8013 96.3207 94.5357 93.4833 94.5357 90.1889V67.5924ZM168.352 67.5924C168.352 64.2979 165.617 61.4605 162.036 61.4605H141.904C138.324 61.4606 135.589 64.298 135.589 67.5924V90.1889C135.589 93.4833 138.324 96.3206 141.904 96.3207H162.036C165.617 96.3207 168.352 93.4833 168.352 90.1889V67.5924ZM108.747 161.908C108.747 173.234 99.4641 182.25 88.2205 182.25H68.0893C56.8456 182.25 47.5625 173.234 47.5625 161.908V139.311C47.5626 127.984 56.8457 118.969 68.0893 118.969H88.2205C99.4641 118.969 108.746 127.984 108.746 139.311L108.747 161.908ZM182.562 161.908C182.562 173.234 173.28 182.25 162.037 182.25H141.904C130.661 182.25 121.379 173.234 121.379 161.908V139.311C121.379 127.984 130.661 118.969 141.904 118.969H162.037C173.28 118.969 182.562 127.984 182.562 139.311V161.908ZM108.746 90.1889C108.746 101.516 99.4641 110.531 88.2205 110.531H68.0893C56.8456 110.531 47.5625 101.516 47.5625 90.1889V67.5924C47.5625 56.2655 56.8456 47.25 68.0893 47.25H88.2205C99.4641 47.2501 108.746 56.2655 108.746 67.5924V90.1889ZM182.562 90.1889C182.562 101.516 173.279 110.531 162.036 110.531H141.904C130.661 110.531 121.379 101.516 121.379 90.1889V67.5924C121.379 56.2655 130.661 47.2501 141.904 47.25H162.036C173.279 47.25 182.562 56.2655 182.562 67.5924V90.1889Z" fill="#AAAAAA"/>
</svg>
