<svg width="230" height="230" viewBox="0 0 230 230" fill="none" xmlns="http://www.w3.org/2000/svg">
<path d="M92.7111 141.994C92.7111 138.407 89.7336 135.317 85.8345 135.317H63.9139C60.0148 135.317 57.0363 138.407 57.0362 141.994V166.599C57.0362 170.187 60.0148 173.276 63.9139 173.276H85.8345C89.7336 173.276 92.7122 170.187 92.7122 166.599L92.7111 141.994ZM173.089 141.994C173.089 138.407 170.111 135.318 166.212 135.317H144.29C140.391 135.318 137.414 138.407 137.414 141.994V166.599C137.414 170.187 140.391 173.276 144.29 173.276H166.212C170.111 173.276 173.089 170.187 173.089 166.599V141.994ZM92.7111 63.9006C92.7111 60.3133 89.7336 57.2238 85.8345 57.2237H63.9139C60.0147 57.2237 57.0362 60.3133 57.0362 63.9006V88.5057C57.0362 92.093 60.0147 95.1826 63.9139 95.1826H85.8345C89.7337 95.1825 92.7111 92.0929 92.7111 88.5057V63.9006ZM173.089 63.9006C173.089 60.3133 170.11 57.2237 166.211 57.2237H144.29C140.391 57.2237 137.414 60.3133 137.414 63.9006V88.5057C137.414 92.0929 140.391 95.1825 144.29 95.1826H166.211C170.11 95.1826 173.089 92.093 173.089 88.5057V63.9006ZM108.186 166.599C108.186 178.933 98.0776 188.75 85.8345 188.75H63.9139C51.6708 188.75 41.5625 178.933 41.5625 166.599V141.994C41.5626 129.661 51.6708 119.844 63.9139 119.844H85.8345C98.0775 119.844 108.185 129.661 108.185 141.994L108.186 166.599ZM188.562 166.599C188.562 178.933 178.455 188.75 166.212 188.75H144.29C132.047 188.75 121.94 178.933 121.94 166.599V141.994C121.94 129.661 132.047 119.844 144.29 119.844H166.212C178.455 119.844 188.562 129.661 188.562 141.994V166.599ZM108.185 88.5057C108.185 100.839 98.0776 110.656 85.8345 110.656H63.9139C51.6708 110.656 41.5625 100.839 41.5625 88.5057V63.9006C41.5625 51.5669 51.6708 41.75 63.9139 41.75H85.8345C98.0775 41.7501 108.185 51.5669 108.185 63.9006V88.5057ZM188.562 88.5057C188.562 100.839 178.454 110.656 166.211 110.656H144.29C132.047 110.656 121.94 100.839 121.94 88.5057V63.9006C121.94 51.5669 132.047 41.7501 144.29 41.75H166.211C178.454 41.75 188.562 51.5669 188.562 63.9006V88.5057Z" fill="#AAAAAA"/>
</svg>
