<svg width="230" height="230" viewBox="0 0 230 230" fill="none" xmlns="http://www.w3.org/2000/svg">
<rect width="218" height="218" rx="50" transform="matrix(-1 0 0 1 224 6)" fill="#808080" fill-opacity="0.5"/>
<path d="M92.7111 141.494C92.7111 137.907 89.7336 134.817 85.8345 134.817H63.9139C60.0148 134.817 57.0363 137.907 57.0362 141.494V166.099C57.0362 169.687 60.0148 172.776 63.9139 172.776H85.8345C89.7336 172.776 92.7122 169.687 92.7122 166.099L92.7111 141.494ZM173.089 141.494C173.089 137.907 170.111 134.818 166.212 134.817H144.29C140.391 134.818 137.414 137.907 137.414 141.494V166.099C137.414 169.687 140.391 172.776 144.29 172.776H166.212C170.111 172.776 173.089 169.687 173.089 166.099V141.494ZM92.7111 63.4006C92.7111 59.8133 89.7336 56.7238 85.8345 56.7237H63.9139C60.0147 56.7237 57.0362 59.8133 57.0362 63.4006V88.0057C57.0362 91.593 60.0147 94.6826 63.9139 94.6826H85.8345C89.7337 94.6825 92.7111 91.5929 92.7111 88.0057V63.4006ZM173.089 63.4006C173.089 59.8133 170.11 56.7237 166.211 56.7237H144.29C140.391 56.7237 137.414 59.8133 137.414 63.4006V88.0057C137.414 91.5929 140.391 94.6825 144.29 94.6826H166.211C170.11 94.6826 173.089 91.593 173.089 88.0057V63.4006ZM108.186 166.099C108.186 178.433 98.0776 188.25 85.8345 188.25H63.9139C51.6708 188.25 41.5625 178.433 41.5625 166.099V141.494C41.5626 129.161 51.6708 119.344 63.9139 119.344H85.8345C98.0775 119.344 108.185 129.161 108.185 141.494L108.186 166.099ZM188.562 166.099C188.562 178.433 178.455 188.25 166.212 188.25H144.29C132.047 188.25 121.94 178.433 121.94 166.099V141.494C121.94 129.161 132.047 119.344 144.29 119.344H166.212C178.455 119.344 188.562 129.161 188.562 141.494V166.099ZM108.185 88.0057C108.185 100.339 98.0776 110.156 85.8345 110.156H63.9139C51.6708 110.156 41.5625 100.339 41.5625 88.0057V63.4006C41.5625 51.0669 51.6708 41.25 63.9139 41.25H85.8345C98.0775 41.2501 108.185 51.0669 108.185 63.4006V88.0057ZM188.562 88.0057C188.562 100.339 178.454 110.156 166.211 110.156H144.29C132.047 110.156 121.94 100.339 121.94 88.0057V63.4006C121.94 51.0669 132.047 41.2501 144.29 41.25H166.211C178.454 41.25 188.562 51.0669 188.562 63.4006V88.0057Z" fill="#AAAAAA"/>
</svg>
