<svg width="150" height="150" viewBox="0 0 150 150" fill="none" xmlns="http://www.w3.org/2000/svg">
<mask id="mask0_28568_2" style="mask-type:luminance" maskUnits="userSpaceOnUse" x="26" y="9" width="99" height="133">
<path d="M124.977 9H26V142H124.977V9Z" fill="white"/>
</mask>
<g mask="url(#mask0_28568_2)">
<path d="M116.729 9.26709H34.2479C29.6926 9.26709 25.9999 12.9738 25.9999 17.5462V133.454C25.9999 138.026 29.6926 141.733 34.2479 141.733H116.729C121.284 141.733 124.977 138.026 124.977 133.454V17.5462C124.977 12.9738 121.284 9.26709 116.729 9.26709Z" fill="#364141"/>
<path d="M75.4883 108.616C98.2647 108.616 116.729 90.0827 116.729 67.2209C116.729 44.3587 98.2647 25.8252 75.4883 25.8252C52.712 25.8252 34.248 44.3587 34.248 67.2209C34.248 90.0827 52.712 108.616 75.4883 108.616Z" fill="#E4E4E4"/>
<path d="M38.372 25.825C40.6497 25.825 42.4961 23.9716 42.4961 21.6854C42.4961 19.3993 40.6497 17.5459 38.372 17.5459C36.0944 17.5459 34.248 19.3993 34.248 21.6854C34.248 23.9716 36.0944 25.825 38.372 25.825Z" fill="#929A9B"/>
<path d="M112.605 25.825C114.882 25.825 116.729 23.9716 116.729 21.6854C116.729 19.3993 114.882 17.5459 112.605 17.5459C110.327 17.5459 108.48 19.3993 108.48 21.6854C108.48 23.9716 110.327 25.825 112.605 25.825Z" fill="#929A9B"/>
<path d="M112.605 133.454C114.882 133.454 116.729 131.6 116.729 129.314C116.729 127.028 114.882 125.175 112.605 125.175C110.327 125.175 108.48 127.028 108.48 129.314C108.48 131.6 110.327 133.454 112.605 133.454Z" fill="#929A9B"/>
<path d="M75.4882 75.5001C80.0435 75.5001 83.7362 71.7934 83.7362 67.221C83.7362 62.6487 80.0435 58.9419 75.4882 58.9419C70.9329 58.9419 67.2401 62.6487 67.2401 67.221C67.2401 71.7934 70.9329 75.5001 75.4882 75.5001Z" fill="#364141"/>
<path d="M72.3039 77.9415C74.127 79.085 74.6575 81.8001 73.5636 84.3486L58.7919 122.408C58.6529 122.838 58.4884 123.263 58.2983 123.68L58.0898 124.209L58.0538 124.187C57.9005 124.486 57.7336 124.781 57.5528 125.072C53.9932 130.79 46.4102 132.479 40.6156 128.844C34.8209 125.21 33.009 117.628 36.5686 111.91C36.7493 111.62 36.9405 111.34 37.1413 111.07L37.1056 111.048L37.4636 110.657C37.7695 110.282 38.0948 109.929 38.4372 109.599L66.0146 79.6137C67.817 77.5096 70.4809 76.798 72.3039 77.9415Z" fill="#C8CCCC"/>
</g>
</svg>
