<svg width="129" height="129" viewBox="0 0 129 129" fill="none" xmlns="http://www.w3.org/2000/svg">
<g clip-path="url(#clip0_28567_11)">
<path d="M105 0.259277H24.9999C20.5816 0.259277 16.9999 3.85448 16.9999 8.28939V120.711C16.9999 125.146 20.5816 128.741 24.9999 128.741H105C109.418 128.741 113 125.146 113 120.711V8.28939C113 3.85448 109.418 0.259277 105 0.259277Z" fill="#364141"/>
<path d="M64.9999 96.6203C87.0913 96.6203 105 78.6442 105 56.47C105 34.2954 87.0913 16.3193 64.9999 16.3193C42.9086 16.3193 25 34.2954 25 56.47C25 78.6442 42.9086 96.6203 64.9999 96.6203Z" fill="#E4E4E4"/>
<path d="M28.9999 16.3192C31.2091 16.3192 33 14.5215 33 12.3041C33 10.0867 31.2091 8.28906 28.9999 8.28906C26.7908 8.28906 25 10.0867 25 12.3041C25 14.5215 26.7908 16.3192 28.9999 16.3192Z" fill="#929A9B"/>
<path d="M101 16.3192C103.209 16.3192 105 14.5215 105 12.3041C105 10.0867 103.209 8.28906 101 8.28906C98.7905 8.28906 96.9998 10.0867 96.9998 12.3041C96.9998 14.5215 98.7905 16.3192 101 16.3192Z" fill="#929A9B"/>
<path d="M101 120.711C103.209 120.711 105 118.913 105 116.696C105 114.478 103.209 112.681 101 112.681C98.7905 112.681 96.9998 114.478 96.9998 116.696C96.9998 118.913 98.7905 120.711 101 120.711Z" fill="#929A9B"/>
<path d="M64.9999 64.5001C69.4182 64.5001 72.9999 60.9049 72.9999 56.47C72.9999 52.0352 69.4182 48.4399 64.9999 48.4399C60.5816 48.4399 56.9999 52.0352 56.9999 56.47C56.9999 60.9049 60.5816 64.5001 64.9999 64.5001Z" fill="#364141"/>
<path d="M61.9113 66.868C63.6796 67.9771 64.1941 70.6106 63.1331 73.0824L48.8057 109.997C48.6708 110.414 48.5113 110.826 48.3269 111.231L48.1247 111.744L48.0898 111.723C47.9411 112.013 47.7792 112.299 47.6038 112.581C44.1513 118.127 36.7963 119.765 31.176 116.24C25.5556 112.715 23.7982 105.361 27.2507 99.8149C27.426 99.5336 27.6114 99.2616 27.8062 99.0005L27.7716 98.9787L28.1188 98.5995C28.4155 98.2358 28.731 97.8931 29.0631 97.5737L55.8111 68.4899C57.5593 66.4491 60.1431 65.7589 61.9113 66.868Z" fill="#C8CCCC"/>
</g>
<defs>
<clipPath id="clip0_28567_11">
<rect width="96" height="129" fill="white" transform="translate(17)"/>
</clipPath>
</defs>
</svg>
