<svg width="150" height="150" viewBox="0 0 150 150" fill="none" xmlns="http://www.w3.org/2000/svg">
<path d="M116.667 8.26904H33.3333C28.7309 8.26904 25 11.9907 25 16.5815V132.957C25 137.548 28.7309 141.269 33.3333 141.269H116.667C121.269 141.269 125 137.548 125 132.957V16.5815C125 11.9907 121.269 8.26904 116.667 8.26904Z" fill="#364141"/>
<path d="M74.9998 108.019C98.0117 108.019 116.667 89.4105 116.667 66.4565C116.667 43.5021 98.0117 24.8938 74.9998 24.8938C51.988 24.8938 33.3333 43.5021 33.3333 66.4565C33.3333 89.4105 51.988 108.019 74.9998 108.019Z" fill="#E4E4E4"/>
<path d="M74.9998 74.769C79.6022 74.769 83.3332 71.0474 83.3332 66.4565C83.3332 61.8658 79.6022 58.144 74.9998 58.144C70.3974 58.144 66.6665 61.8658 66.6665 66.4565C66.6665 71.0474 70.3974 74.769 74.9998 74.769Z" fill="#364141"/>
<path d="M71.7825 77.2203C73.6245 78.3684 74.1605 81.0945 73.0553 83.6532L58.1309 121.866C57.9904 122.298 57.8242 122.724 57.6321 123.143L57.4215 123.674L57.3851 123.653C57.2303 123.953 57.0616 124.249 56.8789 124.541C53.2825 130.282 45.6211 131.977 39.7666 128.329C33.912 124.68 32.0814 117.067 35.6777 111.326C35.8604 111.035 36.0535 110.753 36.2564 110.483L36.2204 110.46L36.582 110.068C36.8911 109.691 37.2197 109.336 37.5657 109.006L65.4282 78.8992C67.2492 76.7866 69.9407 76.0722 71.7825 77.2203Z" fill="#C8CCCC"/>
<path d="M37.372 24.7678C39.6497 24.7678 41.4961 22.9208 41.4961 20.6426C41.4961 18.3643 39.6497 16.5173 37.372 16.5173C35.0944 16.5173 33.248 18.3643 33.248 20.6426C33.248 22.9208 35.0944 24.7678 37.372 24.7678Z" fill="#929A9B"/>
<path d="M111.605 24.7678C113.882 24.7678 115.729 22.9208 115.729 20.6426C115.729 18.3643 113.882 16.5173 111.605 16.5173C109.327 16.5173 107.48 18.3643 107.48 20.6426C107.48 22.9208 109.327 24.7678 111.605 24.7678Z" fill="#929A9B"/>
<path d="M111.605 132.025C113.882 132.025 115.729 130.177 115.729 127.899C115.729 125.62 113.882 123.774 111.605 123.774C109.327 123.774 107.48 125.62 107.48 127.899C107.48 130.177 109.327 132.025 111.605 132.025Z" fill="#929A9B"/>
</svg>
