<svg width="150" height="150" viewBox="0 0 150 150" fill="none" xmlns="http://www.w3.org/2000/svg">
<mask id="mask0_28588_2" style="mask-type:luminance" maskUnits="userSpaceOnUse" x="26" y="9" width="99" height="133">
<path d="M124.977 9H26V142H124.977V9Z" fill="white"/>
</mask>
<g mask="url(#mask0_28588_2)">
<path d="M116.729 9.26709H34.2481C29.6928 9.26709 26 12.9738 26 17.5462V133.454C26 138.026 29.6928 141.733 34.2481 141.733H116.729C121.284 141.733 124.977 138.026 124.977 133.454V17.5462C124.977 12.9738 121.284 9.26709 116.729 9.26709Z" fill="#364141"/>
<path d="M75.4883 108.616C98.2647 108.616 116.729 90.0824 116.729 67.2206C116.729 44.3585 98.2647 25.825 75.4883 25.825C52.712 25.825 34.248 44.3585 34.248 67.2206C34.248 90.0824 52.712 108.616 75.4883 108.616Z" fill="#E4E4E4"/>
<path d="M75.4883 75.4998C80.0436 75.4998 83.7364 71.7932 83.7364 67.2207C83.7364 62.6484 80.0436 58.9417 75.4883 58.9417C70.933 58.9417 67.2402 62.6484 67.2402 67.2207C67.2402 71.7932 70.933 75.4998 75.4883 75.4998Z" fill="#364141"/>
<path d="M72.3039 77.9415C74.127 79.085 74.6575 81.8001 73.5636 84.3486L58.7919 122.408C58.6529 122.838 58.4884 123.263 58.2983 123.68L58.0898 124.209L58.0538 124.187C57.9005 124.486 57.7336 124.781 57.5528 125.072C53.9932 130.79 46.4102 132.479 40.6156 128.844C34.8209 125.21 33.009 117.628 36.5686 111.91C36.7493 111.62 36.9405 111.34 37.1413 111.07L37.1056 111.048L37.4636 110.657C37.7695 110.282 38.0948 109.929 38.4372 109.599L66.0146 79.6137C67.817 77.5096 70.4809 76.798 72.3039 77.9415Z" fill="#C8CCCC"/>
</g>
</svg>
