<svg width="512" height="512" viewBox="0 0 512 512" fill="none" xmlns="http://www.w3.org/2000/svg">
<g filter="url(#filter0_d_28572_15)">
<rect x="50" y="50" width="412" height="412" rx="92" fill="#292323"/>
</g>
<path d="M156.331 276.415V251.734H193.353C202.417 251.734 209.459 249.433 214.479 244.831C219.569 240.16 222.113 233.536 222.113 224.961V224.751C222.113 216.176 219.569 209.587 214.479 204.985C209.459 200.384 202.417 198.083 193.353 198.083H156.331V173.088H201.092C211.69 173.088 220.963 175.249 228.911 179.572C236.859 183.825 243.03 189.821 247.422 197.56C251.884 205.299 254.116 214.328 254.116 224.647V224.856C254.116 235.245 251.884 244.308 247.422 252.047C243.03 259.787 236.859 265.783 228.911 270.036C220.963 274.289 211.69 276.415 201.092 276.415H156.331ZM140.435 324V173.088H172.018V324H140.435ZM337.564 326.071C330.285 326.071 323.979 324.376 318.645 320.988C313.311 317.537 309.264 312.799 306.503 306.775H305.938V324H278.454V188.179H305.938V240.606H306.503C309.264 234.519 313.343 229.75 318.739 226.299C324.198 222.785 330.504 221.028 337.658 221.028C346.129 221.028 353.408 223.13 359.495 227.335C365.644 231.476 370.382 237.469 373.707 245.312C377.033 253.093 378.696 262.474 378.696 273.455V273.55C378.696 284.468 377.033 293.849 373.707 301.693C370.382 309.536 365.644 315.56 359.495 319.764C353.345 323.969 346.035 326.071 337.564 326.071ZM328.434 303.293C333.014 303.293 336.968 302.1 340.293 299.716C343.619 297.269 346.192 293.818 348.012 289.362C349.831 284.907 350.741 279.636 350.741 273.55V273.455C350.741 267.306 349.831 262.035 348.012 257.643C346.192 253.187 343.588 249.768 340.199 247.383C336.874 244.999 332.952 243.806 328.434 243.806C323.979 243.806 320.057 245.03 316.668 247.477C313.343 249.862 310.707 253.281 308.762 257.737C306.879 262.129 305.938 267.369 305.938 273.455V273.55C305.938 279.636 306.879 284.907 308.762 289.362C310.644 293.818 313.28 297.269 316.668 299.716C320.057 302.1 323.979 303.293 328.434 303.293Z" fill="#FF7700"/>
<defs>
<filter id="filter0_d_28572_15" x="40" y="44" width="432" height="432" filterUnits="userSpaceOnUse" color-interpolation-filters="sRGB">
<feFlood flood-opacity="0" result="BackgroundImageFix"/>
<feColorMatrix in="SourceAlpha" type="matrix" values="0 0 0 0 0 0 0 0 0 0 0 0 0 0 0 0 0 0 127 0" result="hardAlpha"/>
<feOffset dy="4"/>
<feGaussianBlur stdDeviation="5"/>
<feComposite in2="hardAlpha" operator="out"/>
<feColorMatrix type="matrix" values="0 0 0 0 0 0 0 0 0 0 0 0 0 0 0 0 0 0 0.25 0"/>
<feBlend mode="normal" in2="BackgroundImageFix" result="effect1_dropShadow_28572_15"/>
<feBlend mode="normal" in="SourceGraphic" in2="effect1_dropShadow_28572_15" result="shape"/>
</filter>
</defs>
</svg>
