<svg width="150" height="150" viewBox="0 0 150 150" fill="none" xmlns="http://www.w3.org/2000/svg">
<mask id="mask0_28568_25" style="mask-type:luminance" maskUnits="userSpaceOnUse" x="8" y="9" width="133" height="133">
<path d="M141 9H8V142H141V9Z" fill="white"/>
</mask>
<g mask="url(#mask0_28568_25)">
<path d="M123.518 35.4577V128.7C123.518 136.045 117.563 142 110.218 142H37.0685C29.7231 142 23.7684 136.045 23.7684 128.7V22.3C23.7684 14.9546 29.7231 9 37.0685 9H94.7128L123.518 35.4577Z" fill="#F2F4F7"/>
<g filter="url(#filter0_d_28568_25)">
<path d="M123.518 35.4577H98.0378C96.2014 35.4577 94.7129 33.969 94.7129 32.1326V9L123.518 35.4577Z" fill="#F2F4F7"/>
</g>
<path d="M51.0709 87.8478V108.855H45.9537V87.8478H51.0709ZM78.5696 87.8478V108.855H73.4524V96.2567L68.7542 108.855H64.6246L59.8965 96.2268V108.855H54.7793V87.8478H60.8241L66.7193 102.391L72.5547 87.8478H78.5696ZM96.1944 94.4912C95.8155 93.7929 95.2668 93.2642 94.5487 92.9052C93.8503 92.5261 93.0225 92.3366 92.0648 92.3366C90.409 92.3366 89.0823 92.8851 88.0849 93.9825C87.0874 95.0598 86.5886 96.506 86.5886 98.3215C86.5886 100.257 87.1073 101.773 88.1447 102.87C89.2021 103.947 90.6484 104.486 92.4838 104.486C93.7407 104.486 94.798 104.167 95.6558 103.529C96.5336 102.89 97.1721 101.972 97.571 100.775H91.0773V97.0048H102.209V101.763C101.83 103.04 101.182 104.227 100.264 105.324C99.3666 106.421 98.2194 107.309 96.823 107.987C95.4264 108.666 93.8503 109.005 92.0948 109.005C90.02 109.005 88.1647 108.556 86.5287 107.658C84.9128 106.74 83.6459 105.474 82.7282 103.858C81.8305 102.242 81.3816 100.396 81.3816 98.3215C81.3816 96.2467 81.8305 94.4014 82.7282 92.7855C83.6459 91.1495 84.9128 89.8827 86.5287 88.985C88.1447 88.0673 89.99 87.6084 92.0648 87.6084C94.5785 87.6084 96.6932 88.2169 98.409 89.4338C100.145 90.6508 101.292 92.3366 101.85 94.4912H96.1944Z" fill="#475467"/>
</g>
<defs>
<filter id="filter0_d_28568_25" x="88.387" y="6.89136" width="37.2394" height="34.8921" filterUnits="userSpaceOnUse" color-interpolation-filters="sRGB">
<feFlood flood-opacity="0" result="BackgroundImageFix"/>
<feColorMatrix in="SourceAlpha" type="matrix" values="0 0 0 0 0 0 0 0 0 0 0 0 0 0 0 0 0 0 127 0" result="hardAlpha"/>
<feOffset dx="-2.10864" dy="2.10864"/>
<feGaussianBlur stdDeviation="2.10864"/>
<feComposite in2="hardAlpha" operator="out"/>
<feColorMatrix type="matrix" values="0 0 0 0 0 0 0 0 0 0 0 0 0 0 0 0 0 0 0.2 0"/>
<feBlend mode="normal" in2="BackgroundImageFix" result="effect1_dropShadow_28568_25"/>
<feBlend mode="normal" in="SourceGraphic" in2="effect1_dropShadow_28568_25" result="shape"/>
</filter>
</defs>
</svg>
