<svg width="85" height="85" viewBox="0 0 85 85" fill="none" xmlns="http://www.w3.org/2000/svg">
<g clip-path="url(#clip0_2001_4702)">
<path d="M73.2589 16.7789V75.9112C73.2589 80.5695 69.4826 84.3458 64.8243 84.3458H18.4346C13.7763 84.3458 10 80.5695 10 75.9112V8.43458C10 3.7763 13.7763 0 18.4346 0H54.9914L73.2589 16.7789Z" fill="#F2F4F7"/>
<g filter="url(#filter0_d_2001_4702)">
<path d="M73.2589 16.7789H57.1001C55.9355 16.7789 54.9915 15.8348 54.9915 14.6702V0L73.2589 16.7789Z" fill="#F2F4F7"/>
</g>
<path d="M27.3146 50.0035V63.3259H24.0694V50.0035H27.3146ZM44.7537 50.0035V63.3259H41.5085V55.3363L38.529 63.3259H35.9101L32.9116 55.3173V63.3259H29.6664V50.0035H33.4999L37.2385 59.2267L40.9392 50.0035H44.7537ZM55.931 54.2166C55.6907 53.7738 55.3427 53.4385 54.8873 53.2108C54.4444 52.9704 53.9194 52.8502 53.3121 52.8502C52.262 52.8502 51.4206 53.1981 50.7881 53.894C50.1555 54.5772 49.8392 55.4944 49.8392 56.6457C49.8392 57.873 50.1681 58.8345 50.826 59.5304C51.4966 60.2136 52.4138 60.5552 53.5778 60.5552C54.3749 60.5552 55.0454 60.3527 55.5894 59.9479C56.1461 59.543 56.551 58.961 56.804 58.2019H52.6858V55.8107H59.7456V58.8282C59.5052 59.6379 59.094 60.3907 58.512 61.0865C57.9427 61.7824 57.2152 62.3454 56.3296 62.7756C55.4439 63.2057 54.4444 63.4208 53.3311 63.4208C52.0153 63.4208 50.8387 63.1361 49.8012 62.5668C48.7764 61.9848 47.973 61.1814 47.391 60.1566C46.8217 59.1318 46.537 57.9615 46.537 56.6457C46.537 55.3299 46.8217 54.1597 47.391 53.1349C47.973 52.0974 48.7764 51.294 49.8012 50.7247C50.826 50.1427 51.9963 49.8517 53.3121 49.8517C54.9062 49.8517 56.2473 50.2376 57.3354 51.0093C58.4361 51.7811 59.1636 52.8502 59.5178 54.2166H55.931Z" fill="#475467"/>
</g>
<defs>
<filter id="filter0_d_2001_4702" x="48.6655" y="-2.10864" width="26.702" height="25.2134" filterUnits="userSpaceOnUse" color-interpolation-filters="sRGB">
<feFlood flood-opacity="0" result="BackgroundImageFix"/>
<feColorMatrix in="SourceAlpha" type="matrix" values="0 0 0 0 0 0 0 0 0 0 0 0 0 0 0 0 0 0 127 0" result="hardAlpha"/>
<feOffset dx="-2.10864" dy="2.10864"/>
<feGaussianBlur stdDeviation="2.10864"/>
<feComposite in2="hardAlpha" operator="out"/>
<feColorMatrix type="matrix" values="0 0 0 0 0 0 0 0 0 0 0 0 0 0 0 0 0 0 0.2 0"/>
<feBlend mode="normal" in2="BackgroundImageFix" result="effect1_dropShadow_2001_4702"/>
<feBlend mode="normal" in="SourceGraphic" in2="effect1_dropShadow_2001_4702" result="shape"/>
</filter>
<clipPath id="clip0_2001_4702">
<rect width="84.3458" height="84.3458" fill="white"/>
</clipPath>
</defs>
</svg>
