<svg width="1000" height="1000" viewBox="0 0 1000 1000" fill="none" xmlns="http://www.w3.org/2000/svg">
<path d="M549.749 460.458V553.7C549.749 561.045 543.795 567 536.449 567H463.3C455.955 567 450 561.045 450 553.7V447.3C450 439.955 455.955 434 463.3 434H520.944L549.749 460.458Z" fill="#F2F4F7"/>
<path d="M549.749 460.458H524.269C522.433 460.458 520.944 458.969 520.944 457.133V434L549.749 460.458Z" fill="#DEDEDE"/>
<path d="M477.302 512.848V533.855H472.185V512.848H477.302ZM504.801 512.848V533.855H499.684V521.257L494.986 533.855H490.856L486.128 521.227V533.855H481.011V512.848H487.056L492.951 527.391L498.786 512.848H504.801ZM522.426 519.491C522.047 518.793 521.498 518.264 520.78 517.905C520.082 517.526 519.254 517.337 518.296 517.337C516.641 517.337 515.314 517.885 514.316 518.982C513.319 520.06 512.82 521.506 512.82 523.321C512.82 525.257 513.339 526.773 514.376 527.87C515.434 528.947 516.88 529.486 518.715 529.486C519.972 529.486 521.03 529.167 521.887 528.529C522.765 527.89 523.404 526.972 523.803 525.775H517.309V522.005H528.441V526.763C528.062 528.04 527.414 529.227 526.496 530.324C525.598 531.421 524.451 532.309 523.055 532.987C521.658 533.666 520.082 534.005 518.326 534.005C516.252 534.005 514.396 533.556 512.76 532.658C511.144 531.74 509.877 530.474 508.96 528.858C508.062 527.242 507.613 525.396 507.613 523.321C507.613 521.247 508.062 519.401 508.96 517.785C509.877 516.15 511.144 514.883 512.76 513.985C514.376 513.067 516.222 512.608 518.296 512.608C520.81 512.608 522.925 513.217 524.641 514.434C526.376 515.651 527.523 517.337 528.082 519.491H522.426Z" fill="#475467"/>
</svg>
