<svg width="230" height="230" viewBox="0 0 230 230" fill="none" xmlns="http://www.w3.org/2000/svg">
<path d="M54.5679 56.75H102.562L117.654 75.6453H175.307C179.08 75.6453 182.25 77.3081 184.513 79.5756C186.777 81.843 188.438 85.0174 188.438 88.7965V160.599C188.438 164.378 186.777 167.552 184.513 169.82C182.25 172.087 179.08 173.75 175.307 173.75H54.5679C50.7948 173.75 47.6254 172.087 45.3615 169.82C43.0977 167.552 41.4375 164.378 41.4375 160.599V69.9012C41.4375 65.9709 43.2486 63.0988 45.5124 60.8314C47.7763 58.564 50.6439 56.75 54.5679 56.75ZM114.787 92.5756C113.428 92.5756 111.919 93.1802 110.863 94.2384L88.2239 116.913C86.7147 118.576 86.2619 120.994 87.0166 123.11C87.9221 125.227 90.035 126.587 92.2989 126.587H103.618V153.041C103.618 155.157 105.278 156.82 107.391 156.82H122.484C124.597 156.82 126.257 155.157 126.257 153.041V126.587H137.576C139.84 126.587 141.953 125.227 142.858 123.11C143.613 120.994 143.16 118.576 141.651 116.913L119.012 94.2384C117.956 93.1802 116.447 92.5756 114.938 92.5756C114.938 92.5756 114.938 92.5756 114.787 92.5756Z" fill="#AAAAAA"/>
</svg>
