<svg width="230" height="230" viewBox="0 0 230 230" fill="none" xmlns="http://www.w3.org/2000/svg">
<rect width="218" height="218" rx="50" transform="matrix(-1 0 0 1 224 6)" fill="#808080" fill-opacity="0.5"/>
<path d="M61.6119 63H104.055L117.402 79.6344H168.388C171.725 79.6344 174.528 81.0982 176.53 83.0943C178.532 85.0904 180 87.885 180 91.2119V154.422C180 157.749 178.532 160.544 176.53 162.54C174.528 164.536 171.725 166 168.388 166H61.6119C58.2752 166 55.4723 164.536 53.4702 162.54C51.4682 160.544 50 157.749 50 154.422V74.5775C50 71.1176 51.6016 68.5891 53.6037 66.593C55.6057 64.5969 58.1417 63 61.6119 63ZM114.867 94.5388C113.665 94.5388 112.331 95.0711 111.396 96.0026L91.3758 115.964C90.0411 117.428 89.6407 119.557 90.308 121.42C91.1088 123.283 92.9774 124.481 94.9795 124.481H104.99V147.769C104.99 149.632 106.458 151.096 108.326 151.096H121.674C123.542 151.096 125.01 149.632 125.01 147.769V124.481H135.021C137.023 124.481 138.891 123.283 139.692 121.42C140.359 119.557 139.959 117.428 138.624 115.964L118.604 96.0026C117.669 95.0711 116.335 94.5388 115 94.5388C115 94.5388 115 94.5388 114.867 94.5388Z" fill="#AAAAAA"/>
</svg>
