<svg width="230" height="230" viewBox="0 0 230 230" fill="none" xmlns="http://www.w3.org/2000/svg">
<rect width="218" height="218" rx="50" transform="matrix(-1 0 0 1 224 6)" fill="#808080" fill-opacity="0.5"/>
<path d="M67.0239 165.25C63.2611 165.25 60.0558 163.9 57.4079 161.201C54.761 158.502 53.4375 155.318 53.4375 151.647V78.9982C53.4375 75.2876 54.761 72.0686 57.4079 69.3412C60.0558 66.6137 63.2611 65.25 67.0239 65.25H99.1108C100.912 65.25 102.663 65.6359 104.363 66.4077C106.065 67.1796 107.546 68.1969 108.808 69.4598L115.075 75.6697H162.707C166.412 75.6697 169.627 77.0189 172.351 79.7174C175.075 82.4169 176.437 85.6021 176.437 89.2732V151.647C176.437 155.318 175.075 158.502 172.351 161.201C169.627 163.9 166.412 165.25 162.707 165.25H67.0239ZM67.0239 151.647H162.707V89.2732H109.373L99.1108 78.9982H67.0239V151.647ZM118.985 143.234C120.093 142.161 120.647 140.817 120.647 139.201V118.94L124.405 122.703C125.465 123.764 126.693 124.295 128.09 124.295C129.487 124.295 130.812 123.62 132.065 122.269C133.221 121.208 133.799 119.911 133.799 118.38C133.799 116.85 133.221 115.493 132.065 114.309L119.779 102.008C118.36 100.658 116.705 99.9823 114.813 99.9823C112.921 99.9823 111.3 100.658 109.951 102.008L97.6655 114.309C96.5092 115.493 95.931 116.85 95.931 118.38C95.931 119.911 96.6055 121.352 97.9545 122.703C99.0636 123.764 100.305 124.295 101.678 124.295C103.05 124.295 104.266 123.764 105.326 122.703L109.084 118.94V139.201C109.084 140.817 109.656 142.161 110.799 143.234C111.943 144.308 113.316 144.845 114.919 144.845C116.521 144.845 117.876 144.308 118.985 143.234Z" fill="#AAAAAA"/>
</svg>
