<svg width="230" height="230" viewBox="0 0 230 230" fill="none" xmlns="http://www.w3.org/2000/svg">
<rect width="218" height="218" rx="50" transform="matrix(-1 0 0 1 224 6)" fill="#808080" fill-opacity="0.5"/>
<path d="M49.6398 52.25H101.551L117.876 72.5988H180.235C184.316 72.5988 187.744 74.3895 190.193 76.8314C192.642 79.2733 194.437 82.6919 194.437 86.7616V164.087C194.437 168.157 192.642 171.576 190.193 174.017C187.744 176.459 184.316 178.25 180.235 178.25H49.6398C45.5586 178.25 42.1305 176.459 39.6819 174.017C37.2332 171.576 35.4375 168.157 35.4375 164.087V66.4128C35.4375 62.1802 37.3964 59.0872 39.8451 56.6453C42.2938 54.2035 45.3954 52.25 49.6398 52.25ZM114.774 90.8314C113.305 90.8314 111.673 91.4826 110.53 92.6221L86.0432 117.041C84.4108 118.831 83.9211 121.436 84.7373 123.715C85.7168 125.994 88.0022 127.459 90.4508 127.459H102.694V155.948C102.694 158.227 104.49 160.017 106.775 160.017H123.1C125.385 160.017 127.181 158.227 127.181 155.948V127.459H139.424C141.873 127.459 144.158 125.994 145.138 123.715C145.954 121.436 145.464 118.831 143.832 117.041L119.345 92.6221C118.202 91.4826 116.57 90.8314 114.937 90.8314C114.937 90.8314 114.937 90.8314 114.774 90.8314Z" fill="#AAAAAA"/>
</svg>
