<svg width="230" height="230" viewBox="0 0 230 230" fill="none" xmlns="http://www.w3.org/2000/svg">
<path d="M45.6223 47.75H101.125L118.579 69.5523H185.253C189.616 69.5523 193.281 71.4709 195.9 74.0872C198.518 76.7035 200.437 80.3663 200.437 84.7267V167.576C200.437 171.936 198.518 175.599 195.9 178.215C193.281 180.831 189.616 182.75 185.253 182.75H45.6223C41.2589 182.75 37.5936 180.831 34.9755 178.215C32.3574 175.599 30.4375 171.936 30.4375 167.576V62.9244C30.4375 58.3895 32.532 55.0756 35.15 52.4593C37.7681 49.843 41.0843 47.75 45.6223 47.75ZM115.263 89.0872C113.692 89.0872 111.947 89.7849 110.725 91.0058L84.5443 117.169C82.7989 119.087 82.2753 121.878 83.148 124.32C84.1952 126.762 86.6387 128.331 89.2568 128.331H102.347V158.855C102.347 161.297 104.267 163.215 106.711 163.215H124.164C126.608 163.215 128.528 161.297 128.528 158.855V128.331H141.618C144.236 128.331 146.68 126.762 147.727 124.32C148.6 121.878 148.076 119.087 146.331 117.169L120.15 91.0058C118.928 89.7849 117.183 89.0872 115.437 89.0872C115.437 89.0872 115.437 89.0872 115.263 89.0872Z" fill="#AAAAAA"/>
</svg>
