<svg width="230" height="230" viewBox="0 0 230 230" fill="none" xmlns="http://www.w3.org/2000/svg">
<rect width="218" height="218" rx="50" transform="matrix(-1 0 0 1 224 6)" fill="#808080" fill-opacity="0.5"/>
<path d="M45.6223 47.25H101.125L118.579 69.0523H185.253C189.616 69.0523 193.281 70.9709 195.9 73.5872C198.518 76.2035 200.437 79.8663 200.437 84.2267V167.076C200.437 171.436 198.518 175.099 195.9 177.715C193.281 180.331 189.616 182.25 185.253 182.25H45.6223C41.2589 182.25 37.5936 180.331 34.9755 177.715C32.3574 175.099 30.4375 171.436 30.4375 167.076V62.4244C30.4375 57.8895 32.532 54.5756 35.15 51.9593C37.7681 49.343 41.0843 47.25 45.6223 47.25ZM115.263 88.5872C113.692 88.5872 111.947 89.2849 110.725 90.5058L84.5443 116.669C82.7989 118.587 82.2753 121.378 83.148 123.82C84.1952 126.262 86.6387 127.831 89.2568 127.831H102.347V158.355C102.347 160.797 104.267 162.715 106.711 162.715H124.164C126.608 162.715 128.528 160.797 128.528 158.355V127.831H141.618C144.236 127.831 146.68 126.262 147.727 123.82C148.6 121.378 148.076 118.587 146.331 116.669L120.15 90.5058C118.928 89.2849 117.183 88.5872 115.437 88.5872C115.437 88.5872 115.437 88.5872 115.263 88.5872Z" fill="#AAAAAA"/>
</svg>
