<svg width="230" height="230" viewBox="0 0 230 230" fill="none" xmlns="http://www.w3.org/2000/svg">
<path d="M67.0239 164.75C63.2611 164.75 60.0558 163.4 57.4079 160.701C54.761 158.002 53.4375 154.818 53.4375 151.147V78.4982C53.4375 74.7876 54.761 71.5686 57.4079 68.8412C60.0558 66.1137 63.2611 64.75 67.0239 64.75H99.1108C100.912 64.75 102.663 65.1359 104.363 65.9077C106.065 66.6796 107.546 67.6969 108.808 68.9598L115.075 75.1697H162.707C166.412 75.1697 169.627 76.5189 172.351 79.2174C175.075 81.9169 176.437 85.1021 176.437 88.7732V151.147C176.437 154.818 175.075 158.002 172.351 160.701C169.627 163.4 166.412 164.75 162.707 164.75H67.0239ZM67.0239 151.147H162.707V88.7732H109.373L99.1108 78.4982H67.0239V151.147ZM118.985 142.734C120.093 141.661 120.647 140.317 120.647 138.701V118.44L124.405 122.203C125.465 123.264 126.693 123.795 128.09 123.795C129.487 123.795 130.812 123.12 132.065 121.769C133.221 120.708 133.799 119.411 133.799 117.88C133.799 116.35 133.221 114.993 132.065 113.809L119.779 101.508C118.36 100.158 116.705 99.4823 114.813 99.4823C112.921 99.4823 111.3 100.158 109.951 101.508L97.6655 113.809C96.5092 114.993 95.931 116.35 95.931 117.88C95.931 119.411 96.6055 120.852 97.9545 122.203C99.0636 123.264 100.305 123.795 101.678 123.795C103.05 123.795 104.266 123.264 105.326 122.203L109.084 118.44V138.701C109.084 140.317 109.656 141.661 110.799 142.734C111.943 143.808 113.316 144.345 114.919 144.345C116.521 144.345 117.876 143.808 118.985 142.734Z" fill="#AAAAAA"/>
</svg>
