<svg width="230" height="230" viewBox="0 0 230 230" fill="none" xmlns="http://www.w3.org/2000/svg">
<rect width="218" height="218" rx="50" transform="matrix(-1 0 0 1 224 6)" fill="#808080" fill-opacity="0.5"/>
<path d="M54.5679 57.25H102.562L117.654 75.9838H175.307C179.08 75.9838 182.25 77.6324 184.513 79.8805C186.777 82.1286 188.438 85.2758 188.438 89.0226V160.211C188.438 163.958 186.777 167.105 184.513 169.353C182.25 171.601 179.08 173.25 175.307 173.25H54.5679C50.7948 173.25 47.6254 171.601 45.3615 169.353C43.0977 167.105 41.4375 163.958 41.4375 160.211V70.2888C41.4375 66.3921 43.2486 63.5446 45.5124 61.2965C47.7763 59.0484 50.6439 57.25 54.5679 57.25ZM114.787 92.7694C113.428 92.7694 111.919 93.3689 110.863 94.418L88.2239 116.899C86.7147 118.547 86.2619 120.945 87.0166 123.043C87.9221 125.141 90.035 126.49 92.2989 126.49H103.618V152.718C103.618 154.816 105.278 156.464 107.391 156.464H122.484C124.597 156.464 126.257 154.816 126.257 152.718V126.49H137.576C139.84 126.49 141.953 125.141 142.858 123.043C143.613 120.945 143.16 118.547 141.651 116.899L119.012 94.418C117.956 93.3689 116.447 92.7694 114.938 92.7694C114.938 92.7694 114.938 92.7694 114.787 92.7694Z" fill="#AAAAAA"/>
</svg>
