<svg width="230" height="230" viewBox="0 0 230 230" fill="none" xmlns="http://www.w3.org/2000/svg">
<path d="M49.6398 51.75H101.551L117.876 72.0988H180.235C184.316 72.0988 187.744 73.8895 190.193 76.3314C192.642 78.7733 194.437 82.1919 194.437 86.2616V163.587C194.437 167.657 192.642 171.076 190.193 173.517C187.744 175.959 184.316 177.75 180.235 177.75H49.6398C45.5586 177.75 42.1305 175.959 39.6819 173.517C37.2332 171.076 35.4375 167.657 35.4375 163.587V65.9128C35.4375 61.6802 37.3964 58.5872 39.8451 56.1453C42.2938 53.7035 45.3954 51.75 49.6398 51.75ZM114.774 90.3314C113.305 90.3314 111.673 90.9826 110.53 92.1221L86.0432 116.541C84.4108 118.331 83.9211 120.936 84.7373 123.215C85.7168 125.494 88.0022 126.959 90.4508 126.959H102.694V155.448C102.694 157.727 104.49 159.517 106.775 159.517H123.1C125.385 159.517 127.181 157.727 127.181 155.448V126.959H139.424C141.873 126.959 144.158 125.494 145.138 123.215C145.954 120.936 145.464 118.331 143.832 116.541L119.345 92.1221C118.202 90.9826 116.57 90.3314 114.937 90.3314C114.937 90.3314 114.937 90.3314 114.774 90.3314Z" fill="#AAAAAA"/>
</svg>
