<svg width="230" height="230" viewBox="0 0 230 230" fill="none" xmlns="http://www.w3.org/2000/svg">
<path d="M107.905 159.385C105.842 159.385 104.133 158.705 102.779 157.346C101.423 155.988 100.746 154.324 100.746 152.354C100.746 150.384 101.423 148.729 102.779 147.388C104.133 146.047 105.842 145.376 107.905 145.376H165.778C167.73 145.376 169.411 146.056 170.821 147.415C172.232 148.773 172.938 150.437 172.938 152.407C172.938 154.376 172.232 156.032 170.821 157.373C169.411 158.714 167.73 159.385 165.778 159.385H107.905ZM107.905 121.829C105.842 121.829 104.133 121.149 102.779 119.79C101.423 118.432 100.746 116.768 100.746 114.798C100.746 112.828 101.423 111.173 102.779 109.832C104.133 108.491 105.842 107.82 107.905 107.82H165.778C167.73 107.82 169.411 108.5 170.821 109.859C172.232 111.217 172.938 112.881 172.938 114.851C172.938 116.821 172.232 118.476 170.821 119.817C169.411 121.158 167.73 121.829 165.778 121.829H107.905ZM107.905 84.1241C105.842 84.1241 104.133 83.4445 102.779 82.0853C101.423 80.7271 100.746 79.063 100.746 77.0928C100.746 75.1236 101.423 73.4683 102.779 72.127C104.133 70.7858 105.842 70.1151 107.905 70.1151H165.778C167.73 70.1151 169.411 70.7947 170.821 72.1539C172.232 73.512 172.938 75.1762 172.938 77.1464C172.938 79.1156 172.232 80.7709 170.821 82.1121C169.411 83.4534 167.73 84.1241 165.778 84.1241H107.905ZM70.416 164.75C66.9645 164.75 64.0216 163.581 61.5874 161.243C59.1541 158.905 57.9375 155.976 57.9375 152.455C57.9375 149.027 59.1308 146.096 61.5173 143.662C63.9038 141.228 66.8452 140.011 70.3414 140.011C73.8386 140.011 76.7472 141.229 79.0671 143.665C81.388 146.101 82.5484 149.058 82.5484 152.535C82.5484 155.932 81.3691 158.817 79.0104 161.19C76.6507 163.563 73.7859 164.75 70.416 164.75ZM70.416 127.194C66.9645 127.194 64.0216 126 61.5874 123.611C59.1541 121.222 57.9375 118.291 57.9375 114.819C57.9375 111.345 59.1541 108.416 61.5874 106.032C64.0216 103.647 66.9645 102.455 70.416 102.455C73.7859 102.455 76.6507 103.649 79.0104 106.038C81.3691 108.427 82.5484 111.358 82.5484 114.83C82.5484 118.304 81.3691 121.233 79.0104 123.617C76.6507 126.002 73.7859 127.194 70.416 127.194ZM61.5173 85.9065C59.1308 83.517 57.9375 80.5861 57.9375 77.1136C57.9375 73.6402 59.1228 70.7113 61.4934 68.3268C63.863 65.9423 66.7716 64.75 70.2191 64.75C73.6656 64.75 76.5821 65.9442 78.9686 68.3327C81.3551 70.7222 82.5484 73.6531 82.5484 77.1256C82.5484 80.599 81.3631 83.5279 78.9925 85.9124C76.6229 88.2969 73.7143 89.4892 70.2668 89.4892C66.8203 89.4892 63.9038 88.295 61.5173 85.9065Z" fill="#AAAAAA"/>
</svg>
