<svg width="230" height="230" viewBox="0 0 230 230" fill="none" xmlns="http://www.w3.org/2000/svg">
<path d="M47.1537 160.419C53.3067 160.419 58.2947 165.418 58.2947 171.585C58.2947 177.751 53.3067 182.75 47.1537 182.75H47.0785C40.9255 182.75 35.9375 177.751 35.9375 171.585C35.9375 165.418 40.9255 160.419 47.0785 160.419H47.1537ZM182.796 160.419C188.949 160.419 193.937 165.418 193.937 171.585C193.937 177.751 188.949 182.75 182.796 182.75H84.7784C78.6254 182.75 73.6374 177.751 73.6374 171.585C73.6374 165.418 78.6254 160.419 84.7784 160.419H182.796ZM47.1537 104.085C53.3067 104.085 58.2947 109.084 58.2947 115.25C58.2947 121.416 53.3067 126.415 47.1537 126.415H47.0785C40.9255 126.415 35.9375 121.416 35.9375 115.25C35.9375 109.084 40.9255 104.085 47.0785 104.085H47.1537ZM182.796 104.085C188.949 104.085 193.937 109.084 193.937 115.25C193.937 121.416 188.949 126.415 182.796 126.415H84.7784C78.6254 126.415 73.6374 121.416 73.6374 115.25C73.6374 109.084 78.6254 104.085 84.7784 104.085H182.796ZM47.1537 47.75C53.3067 47.75 58.2947 52.7489 58.2947 58.9154C58.2947 65.0819 53.3067 70.0808 47.1537 70.0808H47.0785C40.9255 70.0808 35.9375 65.0819 35.9375 58.9154C35.9375 52.7489 40.9255 47.75 47.0785 47.75H47.1537ZM182.796 47.75C188.949 47.75 193.937 52.7489 193.937 58.9154C193.937 65.0819 188.949 70.0808 182.796 70.0808H84.7784C78.6254 70.0808 73.6374 65.0819 73.6374 58.9154C73.6374 52.7489 78.6254 47.75 84.7784 47.75H182.796Z" fill="#AAAAAA"/>
</svg>
