<svg width="230" height="230" viewBox="0 0 230 230" fill="none" xmlns="http://www.w3.org/2000/svg">
<path d="M59.2285 151.639C64.2911 151.639 68.3952 155.749 68.3952 160.82C68.3952 165.89 64.2911 170 59.2285 170H59.1667C54.1041 170 50 165.89 50 160.82C50 155.749 54.1041 151.639 59.1667 151.639H59.2285ZM170.833 151.639C175.896 151.639 180 155.749 180 160.82C180 165.89 175.896 170 170.833 170H90.1855C85.1229 170 81.0189 165.89 81.0189 160.82C81.0189 155.749 85.1229 151.639 90.1855 151.639H170.833ZM59.2285 105.32C64.2911 105.32 68.3952 109.43 68.3952 114.5C68.3952 119.57 64.2911 123.68 59.2285 123.68H59.1667C54.1041 123.68 50 119.57 50 114.5C50 109.43 54.1041 105.32 59.1667 105.32H59.2285ZM170.833 105.32C175.896 105.32 180 109.43 180 114.5C180 119.57 175.896 123.68 170.833 123.68H90.1855C85.1229 123.68 81.0189 119.57 81.0189 114.5C81.0189 109.43 85.1229 105.32 90.1855 105.32H170.833ZM59.2285 59C64.2911 59 68.3952 63.1102 68.3952 68.1805C68.3952 73.2507 64.2911 77.3609 59.2285 77.3609H59.1667C54.1041 77.3609 50 73.2507 50 68.1805C50 63.1102 54.1041 59 59.1667 59H59.2285ZM170.833 59C175.896 59 180 63.1102 180 68.1805C180 73.2507 175.896 77.3609 170.833 77.3609H90.1855C85.1229 77.3609 81.0189 73.2507 81.0189 68.1805C81.0189 63.1102 85.1229 59 90.1855 59H170.833Z" fill="#AAAAAA"/>
</svg>
