<svg width="230" height="230" viewBox="0 0 230 230" fill="none" xmlns="http://www.w3.org/2000/svg">
<path d="M52.3728 156.908C58.0975 156.908 62.7382 161.574 62.7382 167.329C62.7382 173.084 58.0975 177.75 52.3728 177.75H52.3029C46.5782 177.75 41.9375 173.084 41.9375 167.329C41.9375 161.574 46.5782 156.908 52.3029 156.908H52.3728ZM178.572 156.908C184.297 156.908 188.938 161.574 188.938 167.329C188.938 173.084 184.297 177.75 178.572 177.75H87.3781C81.6534 177.75 77.0127 173.084 77.0127 167.329C77.0127 161.574 81.6534 156.908 87.3781 156.908H178.572ZM52.3728 104.329C58.0975 104.329 62.7382 108.995 62.7382 114.75C62.7382 120.505 58.0975 125.171 52.3728 125.171H52.3029C46.5782 125.171 41.9375 120.505 41.9375 114.75C41.9375 108.995 46.5782 104.329 52.3029 104.329H52.3728ZM178.572 104.329C184.297 104.329 188.938 108.995 188.938 114.75C188.938 120.505 184.297 125.171 178.572 125.171H87.3781C81.6534 125.171 77.0127 120.505 77.0127 114.75C77.0127 108.995 81.6534 104.329 87.3781 104.329H178.572ZM52.3728 51.75C58.0975 51.75 62.7382 56.4157 62.7382 62.1711C62.7382 67.9264 58.0975 72.5921 52.3728 72.5921H52.3029C46.5782 72.5921 41.9375 67.9264 41.9375 62.1711C41.9375 56.4157 46.5782 51.75 52.3029 51.75H52.3728ZM178.572 51.75C184.297 51.75 188.938 56.4157 188.938 62.1711C188.938 67.9264 184.297 72.5921 178.572 72.5921H87.3781C81.6534 72.5921 77.0127 67.9264 77.0127 62.1711C77.0127 56.4157 81.6534 51.75 87.3781 51.75H178.572Z" fill="#AAAAAA"/>
</svg>
