<svg width="230" height="230" viewBox="0 0 230 230" fill="none" xmlns="http://www.w3.org/2000/svg">
<rect width="218" height="218" rx="50" transform="matrix(-1 0 0 1 224 6)" fill="#808080" fill-opacity="0.5"/>
<path d="M107.905 159.885C105.842 159.885 104.133 159.205 102.779 157.846C101.423 156.488 100.746 154.824 100.746 152.854C100.746 150.884 101.423 149.229 102.779 147.888C104.133 146.547 105.842 145.876 107.905 145.876H165.778C167.73 145.876 169.411 146.556 170.821 147.915C172.232 149.273 172.938 150.937 172.938 152.907C172.938 154.876 172.232 156.532 170.821 157.873C169.411 159.214 167.73 159.885 165.778 159.885H107.905ZM107.905 122.329C105.842 122.329 104.133 121.649 102.779 120.29C101.423 118.932 100.746 117.268 100.746 115.298C100.746 113.328 101.423 111.673 102.779 110.332C104.133 108.991 105.842 108.32 107.905 108.32H165.778C167.73 108.32 169.411 109 170.821 110.359C172.232 111.717 172.938 113.381 172.938 115.351C172.938 117.321 172.232 118.976 170.821 120.317C169.411 121.658 167.73 122.329 165.778 122.329H107.905ZM107.905 84.6241C105.842 84.6241 104.133 83.9445 102.779 82.5853C101.423 81.2271 100.746 79.563 100.746 77.5928C100.746 75.6236 101.423 73.9683 102.779 72.627C104.133 71.2858 105.842 70.6151 107.905 70.6151H165.778C167.73 70.6151 169.411 71.2947 170.821 72.6539C172.232 74.012 172.938 75.6762 172.938 77.6464C172.938 79.6156 172.232 81.2709 170.821 82.6121C169.411 83.9534 167.73 84.6241 165.778 84.6241H107.905ZM70.416 165.25C66.9645 165.25 64.0216 164.081 61.5874 161.743C59.1541 159.405 57.9375 156.476 57.9375 152.955C57.9375 149.527 59.1308 146.596 61.5173 144.162C63.9038 141.728 66.8452 140.511 70.3414 140.511C73.8386 140.511 76.7472 141.729 79.0671 144.165C81.388 146.601 82.5484 149.558 82.5484 153.035C82.5484 156.432 81.3691 159.317 79.0104 161.69C76.6507 164.063 73.7859 165.25 70.416 165.25ZM70.416 127.694C66.9645 127.694 64.0216 126.5 61.5874 124.111C59.1541 121.722 57.9375 118.791 57.9375 115.319C57.9375 111.845 59.1541 108.916 61.5874 106.532C64.0216 104.147 66.9645 102.955 70.416 102.955C73.7859 102.955 76.6507 104.149 79.0104 106.538C81.3691 108.927 82.5484 111.858 82.5484 115.33C82.5484 118.804 81.3691 121.733 79.0104 124.117C76.6507 126.502 73.7859 127.694 70.416 127.694ZM61.5173 86.4065C59.1308 84.017 57.9375 81.0861 57.9375 77.6136C57.9375 74.1402 59.1228 71.2113 61.4934 68.8268C63.863 66.4423 66.7716 65.25 70.2191 65.25C73.6656 65.25 76.5821 66.4442 78.9686 68.8327C81.3551 71.2222 82.5484 74.1531 82.5484 77.6256C82.5484 81.099 81.3631 84.0279 78.9925 86.4124C76.6229 88.7969 73.7143 89.9892 70.2668 89.9892C66.8203 89.9892 63.9038 88.795 61.5173 86.4065Z" fill="#AAAAAA"/>
</svg>
