<svg width="230" height="230" viewBox="0 0 230 230" fill="none" xmlns="http://www.w3.org/2000/svg">
<rect width="218" height="218" rx="50" transform="matrix(-1 0 0 1 224 6)" fill="#808080" fill-opacity="0.5"/>
<path d="M51.4438 157.408C57.2074 157.408 61.8797 162.074 61.8797 167.829C61.8797 173.584 57.2074 178.25 51.4438 178.25H51.3734C45.6098 178.25 40.9375 173.584 40.9375 167.829C40.9375 162.074 45.6098 157.408 51.3734 157.408H51.4438ZM178.502 157.408C184.265 157.408 188.938 162.074 188.938 167.829C188.938 173.584 184.265 178.25 178.502 178.25H86.6872C80.9236 178.25 76.2513 173.584 76.2513 167.829C76.2513 162.074 80.9236 157.408 86.6872 157.408H178.502ZM51.4438 104.829C57.2074 104.829 61.8797 109.495 61.8797 115.25C61.8797 121.005 57.2074 125.671 51.4438 125.671H51.3734C45.6098 125.671 40.9375 121.005 40.9375 115.25C40.9375 109.495 45.6098 104.829 51.3734 104.829H51.4438ZM178.502 104.829C184.265 104.829 188.938 109.495 188.938 115.25C188.938 121.005 184.265 125.671 178.502 125.671H86.6872C80.9236 125.671 76.2513 121.005 76.2513 115.25C76.2513 109.495 80.9236 104.829 86.6872 104.829H178.502ZM51.4438 52.25C57.2074 52.25 61.8797 56.9157 61.8797 62.6711C61.8797 68.4264 57.2074 73.0921 51.4438 73.0921H51.3734C45.6098 73.0921 40.9375 68.4264 40.9375 62.6711C40.9375 56.9157 45.6098 52.25 51.3734 52.25H51.4438ZM178.502 52.25C184.265 52.25 188.938 56.9157 188.938 62.6711C188.938 68.4264 184.265 73.0921 178.502 73.0921H86.6872C80.9236 73.0921 76.2513 68.4264 76.2513 62.6711C76.2513 56.9157 80.9236 52.25 86.6872 52.25H178.502Z" fill="#AAAAAA"/>
</svg>
