<svg width="230" height="230" viewBox="0 0 230 230" fill="none" xmlns="http://www.w3.org/2000/svg">
<rect width="218" height="218" rx="50" transform="matrix(-1 0 0 1 224 6)" fill="#808080" fill-opacity="0.5"/>
<path d="M47.1537 159.919C53.3067 159.919 58.2947 164.918 58.2947 171.085C58.2947 177.251 53.3067 182.25 47.1537 182.25H47.0785C40.9255 182.25 35.9375 177.251 35.9375 171.085C35.9375 164.918 40.9255 159.919 47.0785 159.919H47.1537ZM182.796 159.919C188.949 159.919 193.937 164.918 193.937 171.085C193.937 177.251 188.949 182.25 182.796 182.25H84.7784C78.6254 182.25 73.6374 177.251 73.6374 171.085C73.6374 164.918 78.6254 159.919 84.7784 159.919H182.796ZM47.1537 103.585C53.3067 103.585 58.2947 108.584 58.2947 114.75C58.2947 120.916 53.3067 125.915 47.1537 125.915H47.0785C40.9255 125.915 35.9375 120.916 35.9375 114.75C35.9375 108.584 40.9255 103.585 47.0785 103.585H47.1537ZM182.796 103.585C188.949 103.585 193.937 108.584 193.937 114.75C193.937 120.916 188.949 125.915 182.796 125.915H84.7784C78.6254 125.915 73.6374 120.916 73.6374 114.75C73.6374 108.584 78.6254 103.585 84.7784 103.585H182.796ZM47.1537 47.25C53.3067 47.25 58.2947 52.2489 58.2947 58.4154C58.2947 64.5819 53.3067 69.5808 47.1537 69.5808H47.0785C40.9255 69.5808 35.9375 64.5819 35.9375 58.4154C35.9375 52.2489 40.9255 47.25 47.0785 47.25H47.1537ZM182.796 47.25C188.949 47.25 193.937 52.2489 193.937 58.4154C193.937 64.5819 188.949 69.5808 182.796 69.5808H84.7784C78.6254 69.5808 73.6374 64.5819 73.6374 58.4154C73.6374 52.2489 78.6254 47.25 84.7784 47.25H182.796Z" fill="#AAAAAA"/>
</svg>
