<svg width="230" height="230" viewBox="0 0 230 230" fill="none" xmlns="http://www.w3.org/2000/svg">
<rect width="218" height="218" rx="50" transform="matrix(-1 0 0 1 224 6)" fill="#808080" fill-opacity="0.5"/>
<path d="M52.3728 156.573C58.0975 156.573 62.7382 161.202 62.7382 166.912C62.7382 172.621 58.0975 177.25 52.3728 177.25H52.3029C46.5782 177.25 41.9375 172.621 41.9375 166.912C41.9375 161.202 46.5782 156.573 52.3029 156.573H52.3728ZM178.572 156.573C184.297 156.573 188.938 161.202 188.938 166.912C188.938 172.621 184.297 177.25 178.572 177.25H87.3781C81.6534 177.25 77.0127 172.621 77.0127 166.912C77.0127 161.202 81.6534 156.573 87.3781 156.573H178.572ZM52.3728 104.412C58.0975 104.412 62.7382 109.04 62.7382 114.75C62.7382 120.46 58.0975 125.088 52.3728 125.088H52.3029C46.5782 125.088 41.9375 120.46 41.9375 114.75C41.9375 109.04 46.5782 104.412 52.3029 104.412H52.3728ZM178.572 104.412C184.297 104.412 188.938 109.04 188.938 114.75C188.938 120.46 184.297 125.088 178.572 125.088H87.3781C81.6534 125.088 77.0127 120.46 77.0127 114.75C77.0127 109.04 81.6534 104.412 87.3781 104.412H178.572ZM52.3728 52.25C58.0975 52.25 62.7382 56.8786 62.7382 62.5883C62.7382 68.2981 58.0975 72.9267 52.3728 72.9267H52.3029C46.5782 72.9267 41.9375 68.2981 41.9375 62.5883C41.9375 56.8786 46.5782 52.25 52.3029 52.25H52.3728ZM178.572 52.25C184.297 52.25 188.938 56.8786 188.938 62.5883C188.938 68.2981 184.297 72.9267 178.572 72.9267H87.3781C81.6534 72.9267 77.0127 68.2981 77.0127 62.5883C77.0127 56.8786 81.6534 52.25 87.3781 52.25H178.572Z" fill="#AAAAAA"/>
</svg>
