<svg width="230" height="230" viewBox="0 0 230 230" fill="none" xmlns="http://www.w3.org/2000/svg">
<path d="M52.3512 177.75C47.6774 177.75 43.648 176.084 40.2631 172.752C36.8794 169.419 35.1875 165.489 35.1875 160.962V68.7222C35.1875 64.1434 36.8794 60.1703 40.2631 56.8029C43.648 53.4343 47.6774 51.75 52.3512 51.75H94.9775C97.2484 51.75 99.4583 52.2137 101.607 53.141C103.755 54.0695 105.574 55.3332 107.066 56.9321L114.867 64.4791H176.835C181.517 64.4791 185.579 66.145 189.021 69.4767C192.465 72.8097 194.188 76.7397 194.188 81.2668V160.962C194.188 165.489 192.465 169.419 189.021 172.752C185.579 176.084 181.517 177.75 176.835 177.75H52.3512ZM52.3512 160.962H176.835V81.2668H107.803L94.9775 68.7222H52.3512V160.962ZM127.607 129.416V141.149C127.607 142.939 128.227 144.475 129.467 145.757C130.707 147.039 132.247 147.68 134.088 147.68C136.105 147.68 137.698 147.088 138.868 145.903C140.037 144.72 140.622 143.178 140.622 141.278V129.416H153.242C154.935 129.416 156.431 128.81 157.727 127.597C159.023 126.385 159.671 124.847 159.671 122.985C159.671 121.123 159.111 119.608 157.991 118.44C156.871 117.271 155.293 116.687 153.259 116.687H140.622V104.604C140.622 102.938 140.031 101.461 138.849 100.172C137.667 98.8835 136.121 98.239 134.211 98.239C132.194 98.239 130.589 98.865 129.395 100.117C128.203 101.369 127.607 102.865 127.607 104.604V116.687H115.344C113.416 116.687 111.835 117.282 110.6 118.473C109.364 119.662 108.746 121.188 108.746 123.05C108.746 124.912 109.307 126.439 110.429 127.63C111.552 128.821 113.191 129.416 115.348 129.416H127.607Z" fill="#AAAAAA"/>
</svg>
