<svg width="150" height="150" viewBox="0 0 150 150" fill="none" xmlns="http://www.w3.org/2000/svg">
<path d="M16.1922 135C11.7829 135 7.98161 133.387 4.78826 130.161C1.59609 126.934 0 123.129 0 118.745V29.4334C0 24.9999 1.59609 21.153 4.78826 17.8925C7.98161 14.6308 11.7829 13 16.1922 13H56.4057C58.548 13 60.6329 13.4489 62.6601 14.3468C64.6862 15.2459 66.4027 16.4695 67.8096 18.0175L75.169 25.325H133.63C138.046 25.325 141.878 26.938 145.126 30.164C148.375 33.3911 150 37.1964 150 41.5798V118.745C150 123.129 148.375 126.934 145.126 130.161C141.878 133.387 138.046 135 133.63 135H16.1922ZM16.1922 118.745H133.63V41.5798H68.5053L56.4057 29.4334H16.1922V118.745ZM87.1886 88.2006V99.5611C87.1886 101.294 87.7734 102.781 88.9431 104.023C90.1127 105.264 91.5658 105.884 93.3025 105.884C95.2052 105.884 96.7082 105.311 97.8114 104.164C98.9146 103.019 99.4662 101.526 99.4662 99.6861V88.2006H111.372C112.97 88.2006 114.38 87.6135 115.603 86.4394C116.826 85.2652 117.438 83.7767 117.438 81.9738C117.438 80.1709 116.909 78.7038 115.852 77.5725C114.795 76.4412 113.307 75.8755 111.388 75.8755H99.4662V64.1757C99.4662 62.5633 98.9087 61.1331 97.7936 59.8852C96.6785 58.6372 95.22 58.0132 93.4182 58.0132C91.5154 58.0132 90.0012 58.6193 88.8754 59.8316C87.7509 61.0438 87.1886 62.4919 87.1886 64.1757V75.8755H75.6192C73.8007 75.8755 72.309 76.4519 71.1441 77.6046C69.9781 78.7562 69.395 80.2334 69.395 82.0363C69.395 83.8392 69.9241 85.3176 70.9822 86.4715C72.0415 87.6242 73.5884 88.2006 75.6228 88.2006H87.1886Z" fill="#AAAAAA"/>
</svg>
