<svg width="230" height="230" viewBox="0 0 230 230" fill="none" xmlns="http://www.w3.org/2000/svg">
<path d="M57.0558 173.75C52.7348 173.75 49.0095 172.203 45.88 169.109C42.7517 166.015 41.1875 162.365 41.1875 158.161V72.5099C41.1875 68.2581 42.7517 64.5688 45.88 61.442C49.0095 58.314 52.7348 56.75 57.0558 56.75H96.4651C98.5646 56.75 100.608 57.1805 102.594 58.0416C104.58 58.9038 106.262 60.0773 107.641 61.5619L114.853 68.5699H172.145C176.473 68.5699 180.228 70.1168 183.411 73.2105C186.595 76.3054 188.187 79.9547 188.187 84.1585V158.161C188.187 162.365 186.595 166.015 183.411 169.109C180.228 172.203 176.473 173.75 172.145 173.75H57.0558ZM57.0558 158.161H172.145V84.1585H108.323L96.4651 72.5099H57.0558V158.161ZM126.632 128.869V139.763C126.632 141.425 127.205 142.851 128.352 144.043C129.498 145.233 130.922 145.828 132.624 145.828C134.489 145.828 135.962 145.278 137.043 144.178C138.124 143.079 138.664 141.648 138.664 139.883V128.869H150.332C151.898 128.869 153.28 128.306 154.479 127.18C155.677 126.054 156.276 124.626 156.276 122.897C156.276 121.168 155.759 119.761 154.723 118.676C153.687 117.591 152.229 117.049 150.348 117.049H138.664V105.828C138.664 104.282 138.118 102.91 137.025 101.714C135.932 100.517 134.503 99.9184 132.737 99.9184C130.873 99.9184 129.389 100.5 128.285 101.662C127.183 102.825 126.632 104.214 126.632 105.828V117.049H115.294C113.512 117.049 112.05 117.601 110.909 118.707C109.766 119.811 109.195 121.228 109.195 122.957C109.195 124.686 109.713 126.104 110.75 127.21C111.788 128.316 113.304 128.869 115.298 128.869H126.632Z" fill="#AAAAAA"/>
</svg>
