<svg width="150" height="150" viewBox="0 0 150 150" fill="none" xmlns="http://www.w3.org/2000/svg">
<path d="M22.0703 142C18.2209 142 14.9132 140.618 12.1472 137.853C9.3824 135.087 8 131.779 8 127.93V23.1715C8 19.2949 9.3824 15.9641 12.1472 13.1792C14.9132 10.3931 18.2209 9 22.0703 9H68.0163C69.9949 9 71.6621 9.70097 73.0178 11.1029C74.3736 12.5037 75.0515 14.1945 75.0515 16.1755C75.0515 18.1564 74.3736 19.8177 73.0178 21.1592C71.6621 22.5008 69.9949 23.1715 68.0163 23.1715H22.0703V127.93H126.828V81.9837C126.828 80.0051 127.509 78.3379 128.871 76.9822C130.234 75.6264 131.906 74.9485 133.887 74.9485C135.868 74.9485 137.548 75.6264 138.929 76.9822C140.31 78.3379 141 80.0051 141 81.9837V127.93C141 131.779 139.607 135.087 136.821 137.853C134.036 140.618 130.705 142 126.828 142H22.0703ZM107.021 42.9786H92.0399C90.2816 42.9786 88.7867 42.3582 87.5552 41.1173C86.3238 39.8764 85.7081 38.3691 85.7081 36.5953C85.7081 34.8228 86.3238 33.3326 87.5552 32.1249C88.7867 30.9171 90.2816 30.3132 92.0399 30.3132H107.021V15.3336C107.021 13.5741 107.642 12.0786 108.883 10.8472C110.124 9.61572 111.631 9 113.405 9C115.177 9 116.667 9.61572 117.875 10.8472C119.083 12.0786 119.687 13.5741 119.687 15.3336V30.3132H134.666C136.426 30.3132 137.921 30.9337 139.153 32.1746C140.384 33.4155 141 34.9228 141 36.6966C141 38.4703 140.384 39.9604 139.153 41.167C137.921 42.3748 136.426 42.9786 134.666 42.9786H119.687V57.9601C119.687 59.7184 119.066 61.2133 117.825 62.4448C116.584 63.6762 115.077 64.2919 113.303 64.2919C111.53 64.2919 110.04 63.6762 108.833 62.4448C107.625 61.2133 107.021 59.7184 107.021 57.9601V42.9786Z" fill="#AAAAAA"/>
</svg>
