<svg width="230" height="230" viewBox="0 0 230 230" fill="none" xmlns="http://www.w3.org/2000/svg">
<rect width="218" height="218" rx="50" transform="matrix(-1 0 0 1 224 6)" fill="#808080" fill-opacity="0.5"/>
<path d="M48.5386 182.25C43.5415 182.25 39.2333 180.465 35.6142 176.895C31.9964 173.324 30.1875 169.114 30.1875 164.263V65.4345C30.1875 60.5286 31.9964 56.2717 35.6142 52.6638C39.2333 49.0546 43.5415 47.25 48.5386 47.25H94.114C96.5419 47.25 98.9047 47.7468 101.202 48.7403C103.499 49.7352 105.444 51.0892 107.038 52.8022L115.379 60.8884H181.635C186.64 60.8884 190.983 62.6732 194.664 66.2429C198.346 69.8139 200.188 74.0247 200.188 78.8752V164.263C200.188 169.114 198.346 173.324 194.664 176.895C190.983 180.465 186.64 182.25 181.635 182.25H48.5386ZM48.5386 164.263H181.635V78.8752H107.827L94.114 65.4345H48.5386V164.263ZM129.001 130.464V143.035C129.001 144.952 129.664 146.598 130.99 147.972C132.315 149.345 133.962 150.032 135.93 150.032C138.087 150.032 139.79 149.397 141.04 148.128C142.291 146.861 142.916 145.209 142.916 143.173V130.464H156.409C158.22 130.464 159.818 129.814 161.204 128.515C162.591 127.216 163.284 125.568 163.284 123.573C163.284 121.578 162.685 119.955 161.487 118.703C160.289 117.451 158.602 116.825 156.427 116.825H142.916V103.879C142.916 102.095 142.284 100.512 141.02 99.1311C139.756 97.7501 138.104 97.0597 136.061 97.0597C133.905 97.0597 132.189 97.7304 130.913 99.0718C129.639 100.413 129.001 102.016 129.001 103.879V116.825H115.889C113.828 116.825 112.138 117.463 110.818 118.739C109.496 120.013 108.835 121.648 108.835 123.643C108.835 125.638 109.435 127.274 110.634 128.55C111.835 129.826 113.588 130.464 115.893 130.464H129.001Z" fill="#AAAAAA"/>
</svg>
