<svg width="230" height="230" viewBox="0 0 230 230" fill="none" xmlns="http://www.w3.org/2000/svg">
<rect width="218" height="218" rx="50" transform="matrix(-1 0 0 1 224 6)" fill="#808080" fill-opacity="0.5"/>
<path d="M57.0558 173.25C52.7348 173.25 49.0095 171.716 45.88 168.649C42.7517 165.581 41.1875 161.963 41.1875 157.795V72.8752C41.1875 68.6598 42.7517 65.002 45.88 61.9019C49.0095 58.8006 52.7348 57.25 57.0558 57.25H96.4651C98.5646 57.25 100.608 57.6769 102.594 58.5306C104.58 59.3854 106.262 60.5488 107.641 62.0208L114.853 68.9689H172.145C176.473 68.9689 180.228 70.5025 183.411 73.5698C186.595 76.6383 188.187 80.2564 188.187 84.4242V157.795C188.187 161.963 186.595 165.581 183.411 168.649C180.228 171.716 176.473 173.25 172.145 173.25H57.0558ZM57.0558 157.795H172.145V84.4242H108.323L96.4651 72.8752H57.0558V157.795ZM126.632 128.752V139.554C126.632 141.201 127.205 142.616 128.352 143.797C129.498 144.976 130.922 145.566 132.624 145.566C134.489 145.566 135.962 145.021 137.043 143.931C138.124 142.841 138.664 141.422 138.664 139.673V128.752H150.332C151.898 128.752 153.28 128.194 154.479 127.078C155.677 125.961 156.276 124.546 156.276 122.832C156.276 121.117 155.759 119.722 154.723 118.647C153.687 117.571 152.229 117.033 150.348 117.033H138.664V105.909C138.664 104.376 138.118 103.016 137.025 101.829C135.932 100.643 134.503 100.049 132.737 100.049C130.873 100.049 129.389 100.626 128.285 101.778C127.183 102.931 126.632 104.308 126.632 105.909V117.033H115.294C113.512 117.033 112.05 117.581 110.909 118.677C109.766 119.772 109.195 121.177 109.195 122.891C109.195 124.605 109.713 126.011 110.75 127.108C111.788 128.204 113.304 128.752 115.298 128.752H126.632Z" fill="#AAAAAA"/>
</svg>
