<svg width="230" height="230" viewBox="0 0 230 230" fill="none" xmlns="http://www.w3.org/2000/svg">
<rect width="218" height="218" rx="50" transform="matrix(-1 0 0 1 224 6)" fill="#808080" fill-opacity="0.5"/>
<path d="M52.3512 178.25C47.6774 178.25 43.648 176.584 40.2631 173.252C36.8794 169.919 35.1875 165.989 35.1875 161.462V69.2222C35.1875 64.6434 36.8794 60.6703 40.2631 57.3029C43.648 53.9343 47.6774 52.25 52.3512 52.25H94.9775C97.2484 52.25 99.4583 52.7137 101.607 53.641C103.755 54.5695 105.574 55.8332 107.066 57.4321L114.867 64.9791H176.835C181.517 64.9791 185.579 66.645 189.021 69.9767C192.465 73.3097 194.188 77.2397 194.188 81.7668V161.462C194.188 165.989 192.465 169.919 189.021 173.252C185.579 176.584 181.517 178.25 176.835 178.25H52.3512ZM52.3512 161.462H176.835V81.7668H107.803L94.9775 69.2222H52.3512V161.462ZM127.607 129.916V141.649C127.607 143.439 128.227 144.975 129.467 146.257C130.707 147.539 132.247 148.18 134.088 148.18C136.105 148.18 137.698 147.588 138.868 146.403C140.037 145.22 140.622 143.678 140.622 141.778V129.916H153.242C154.935 129.916 156.431 129.31 157.727 128.097C159.023 126.885 159.671 125.347 159.671 123.485C159.671 121.623 159.111 120.108 157.991 118.94C156.871 117.771 155.293 117.187 153.259 117.187H140.622V105.104C140.622 103.438 140.031 101.961 138.849 100.672C137.667 99.3835 136.121 98.739 134.211 98.739C132.194 98.739 130.589 99.365 129.395 100.617C128.203 101.869 127.607 103.365 127.607 105.104V117.187H115.344C113.416 117.187 111.835 117.782 110.6 118.973C109.364 120.162 108.746 121.688 108.746 123.55C108.746 125.412 109.307 126.939 110.429 128.13C111.552 129.321 113.191 129.916 115.348 129.916H127.607Z" fill="#AAAAAA"/>
</svg>
