<svg width="230" height="230" viewBox="0 0 230 230" fill="none" xmlns="http://www.w3.org/2000/svg">
<path d="M48.5386 182.75C43.5415 182.75 39.2333 180.965 35.6142 177.395C31.9964 173.824 30.1875 169.614 30.1875 164.763V65.9345C30.1875 61.0286 31.9964 56.7717 35.6142 53.1638C39.2333 49.5546 43.5415 47.75 48.5386 47.75H94.114C96.5419 47.75 98.9047 48.2468 101.202 49.2403C103.499 50.2352 105.444 51.5892 107.038 53.3022L115.379 61.3884H181.635C186.64 61.3884 190.983 63.1732 194.664 66.7429C198.346 70.3139 200.188 74.5247 200.188 79.3752V164.763C200.188 169.614 198.346 173.824 194.664 177.395C190.983 180.965 186.64 182.75 181.635 182.75H48.5386ZM48.5386 164.763H181.635V79.3752H107.827L94.114 65.9345H48.5386V164.763ZM129.001 130.964V143.535C129.001 145.452 129.664 147.098 130.99 148.472C132.315 149.845 133.962 150.532 135.93 150.532C138.087 150.532 139.79 149.897 141.04 148.628C142.291 147.361 142.916 145.709 142.916 143.673V130.964H156.409C158.22 130.964 159.818 130.314 161.204 129.015C162.591 127.716 163.284 126.068 163.284 124.073C163.284 122.078 162.685 120.455 161.487 119.203C160.289 117.951 158.602 117.325 156.427 117.325H142.916V104.379C142.916 102.595 142.284 101.012 141.02 99.6311C139.756 98.2501 138.104 97.5597 136.061 97.5597C133.905 97.5597 132.189 98.2304 130.913 99.5718C129.639 100.913 129.001 102.516 129.001 104.379V117.325H115.889C113.828 117.325 112.138 117.963 110.818 119.239C109.496 120.513 108.835 122.148 108.835 124.143C108.835 126.138 109.435 127.774 110.634 129.05C111.835 130.326 113.588 130.964 115.893 130.964H129.001Z" fill="#AAAAAA"/>
</svg>
