<svg width="230" height="230" viewBox="0 0 230 230" fill="none" xmlns="http://www.w3.org/2000/svg">
<rect width="218" height="218" rx="50" transform="matrix(-1 0 0 1 224 6)" fill="#808080" fill-opacity="0.5"/>
<path d="M66.7739 165.25C63.0111 165.25 59.8058 163.9 57.1579 161.201C54.511 158.502 53.1875 155.318 53.1875 151.647V78.9982C53.1875 75.2876 54.511 72.0686 57.1579 69.3412C59.8058 66.6137 63.0111 65.25 66.7739 65.25H98.8608C100.662 65.25 102.413 65.6359 104.113 66.4077C105.815 67.1796 107.296 68.1969 108.558 69.4598L114.825 75.6697H162.457C166.162 75.6697 169.377 77.0189 172.101 79.7174C174.825 82.4169 176.187 85.6021 176.187 89.2732V151.647C176.187 155.318 174.825 158.502 172.101 161.201C169.377 163.9 166.162 165.25 162.457 165.25H66.7739ZM66.7739 151.647H162.457V89.2732H109.123L98.8608 78.9982H66.7739V151.647ZM124.444 127.189V136.249C124.444 137.749 124.934 139.002 125.915 140.008C126.895 141.014 128.119 141.516 129.586 141.516C131.054 141.516 132.298 141.038 133.318 140.081C134.34 139.123 134.85 137.879 134.85 136.35V127.189H144.232C145.662 127.189 146.889 126.698 147.913 125.716C148.937 124.735 149.448 123.481 149.448 121.953C149.448 120.427 148.97 119.181 148.015 118.217C147.058 117.252 145.801 116.77 144.245 116.77H134.85V107.565C134.85 106.065 134.331 104.812 133.294 103.806C132.256 102.8 131.003 102.298 129.536 102.298C128.068 102.298 126.853 102.804 125.889 103.816C124.925 104.829 124.444 106.084 124.444 107.58V116.77H115.046C113.53 116.77 112.285 117.261 111.31 118.243C110.334 119.224 109.846 120.478 109.846 122.005C109.846 123.532 110.323 124.777 111.279 125.742C112.236 126.707 113.493 127.189 115.049 127.189H124.444Z" fill="#AAAAAA"/>
</svg>
