<svg width="230" height="230" viewBox="0 0 230 230" fill="none" xmlns="http://www.w3.org/2000/svg">
<rect width="218" height="218" rx="50" transform="matrix(-1 0 0 1 224 6)" fill="#808080" fill-opacity="0.5"/>
<path d="M64.0332 166C60.2119 166 56.9174 164.638 54.1498 161.915C51.3833 159.19 50 155.977 50 152.277V76.8741C50 73.1311 51.3833 69.8833 54.1498 67.1306C56.9174 64.3769 60.2119 63 64.0332 63H98.8849C100.742 63 102.548 63.379 104.305 64.1371C106.061 64.8961 107.549 65.9291 108.768 67.2361L115.147 73.4056H165.813C169.64 73.4056 172.961 74.7673 175.776 77.4909C178.592 80.2154 180 83.4281 180 87.1288V152.277C180 155.977 178.592 159.19 175.776 161.915C172.961 164.638 169.64 166 165.813 166H64.0332ZM64.0332 152.277H165.813V87.1288H109.371L98.8849 76.8741H64.0332V152.277ZM125.563 126.489V136.08C125.563 137.543 126.07 138.799 127.084 139.847C128.098 140.895 129.357 141.419 130.862 141.419C132.511 141.419 133.814 140.935 134.77 139.966C135.726 138.999 136.204 137.739 136.204 136.186V126.489H146.522C147.907 126.489 149.129 125.993 150.189 125.002C151.249 124.011 151.779 122.754 151.779 121.232C151.779 119.71 151.321 118.471 150.405 117.516C149.489 116.561 148.2 116.083 146.536 116.083H136.204V106.206C136.204 104.844 135.721 103.637 134.754 102.583C133.788 101.53 132.524 101.003 130.962 101.003C129.313 101.003 128.001 101.515 127.025 102.538C126.051 103.562 125.563 104.784 125.563 106.206V116.083H115.537C113.961 116.083 112.668 116.57 111.658 117.543C110.648 118.515 110.142 119.763 110.142 121.285C110.142 122.807 110.601 124.055 111.518 125.029C112.436 126.002 113.777 126.489 115.54 126.489H125.563Z" fill="#AAAAAA"/>
</svg>
