<svg width="230" height="230" viewBox="0 0 230 230" fill="none" xmlns="http://www.w3.org/2000/svg">
<path d="M66.7739 164.75C63.0111 164.75 59.8058 163.4 57.1579 160.701C54.511 158.002 53.1875 154.818 53.1875 151.147V78.4982C53.1875 74.7876 54.511 71.5686 57.1579 68.8412C59.8058 66.1137 63.0111 64.75 66.7739 64.75H98.8608C100.662 64.75 102.413 65.1359 104.113 65.9077C105.815 66.6796 107.296 67.6969 108.558 68.9598L114.825 75.1697H162.457C166.162 75.1697 169.377 76.5189 172.101 79.2174C174.825 81.9169 176.187 85.1021 176.187 88.7732V151.147C176.187 154.818 174.825 158.002 172.101 160.701C169.377 163.4 166.162 164.75 162.457 164.75H66.7739ZM66.7739 151.147H162.457V88.7732H109.123L98.8608 78.4982H66.7739V151.147ZM124.444 126.689V135.749C124.444 137.249 124.934 138.502 125.915 139.508C126.895 140.514 128.119 141.016 129.586 141.016C131.054 141.016 132.298 140.538 133.318 139.581C134.34 138.623 134.85 137.379 134.85 135.85V126.689H144.232C145.662 126.689 146.889 126.198 147.913 125.216C148.937 124.235 149.448 122.981 149.448 121.453C149.448 119.927 148.97 118.681 148.015 117.717C147.058 116.752 145.801 116.27 144.245 116.27H134.85V107.065C134.85 105.565 134.331 104.312 133.294 103.306C132.256 102.3 131.003 101.798 129.536 101.798C128.068 101.798 126.853 102.304 125.889 103.316C124.925 104.329 124.444 105.584 124.444 107.08V116.27H115.046C113.53 116.27 112.285 116.761 111.31 117.743C110.334 118.724 109.846 119.978 109.846 121.505C109.846 123.032 110.323 124.277 111.279 125.242C112.236 126.207 113.493 126.689 115.049 126.689H124.444Z" fill="#AAAAAA"/>
</svg>
