<svg width="140" height="133" viewBox="0 0 140 133" fill="none" xmlns="http://www.w3.org/2000/svg">
<path d="M65.5195 11.0462C67.3559 7.33842 72.6441 7.33841 74.4805 11.0462L89.5388 41.4487C90.2678 42.9205 91.6732 43.9405 93.2986 44.1773L126.953 49.0795C131.058 49.6775 132.691 54.7258 129.714 57.6151L105.392 81.2242C104.208 82.3737 103.667 84.0335 103.947 85.6599L109.689 119.025C110.392 123.107 106.11 126.224 102.441 124.301L72.321 108.516C70.8675 107.754 69.1325 107.754 67.679 108.516L37.5593 124.301C33.8902 126.224 29.6081 123.107 30.3107 119.025L36.0527 85.6599C36.3326 84.0335 35.7919 82.3737 34.6077 81.2242L10.2855 57.6151C7.309 54.7258 8.94248 49.6775 13.0474 49.0795L46.7014 44.1773C48.3268 43.9405 49.7322 42.9205 50.4612 41.4487L65.5195 11.0462Z" stroke="#AAAAAA" stroke-width="16" stroke-linecap="round" stroke-linejoin="round"/>
</svg>
