<svg width="151" height="150" viewBox="0 0 151 150" fill="none" xmlns="http://www.w3.org/2000/svg">
<path d="M70.5195 21.0462C72.3559 17.3384 77.6441 17.3384 79.4805 21.0462L94.5388 51.4487C95.2678 52.9205 96.6732 53.9405 98.2986 54.1773L131.953 59.0795C136.058 59.6775 137.691 64.7258 134.714 67.6151L110.392 91.2242C109.208 92.3737 108.667 94.0335 108.947 95.6599L114.689 129.025C115.392 133.107 111.11 136.224 107.441 134.301L77.321 118.516C75.8675 117.754 74.1325 117.754 72.679 118.516L42.5593 134.301C38.8902 136.224 34.6081 133.107 35.3107 129.025L41.0527 95.6599C41.3326 94.0335 40.7919 92.3737 39.6077 91.2242L15.2855 67.6151C12.309 64.7258 13.9425 59.6775 18.0474 59.0795L51.7014 54.1773C53.3268 53.9405 54.7322 52.9205 55.4612 51.4487L70.5195 21.0462Z" stroke="#AAAAAA" stroke-width="16" stroke-linecap="round" stroke-linejoin="round"/>
</svg>
