<svg width="230" height="230" viewBox="0 0 230 230" fill="none" xmlns="http://www.w3.org/2000/svg">
<rect width="218" height="218" rx="50" transform="matrix(-1 0 0 1 224 6)" fill="#808080" fill-opacity="0.5"/>
<path d="M171.431 114.75C171.431 112.897 171.431 111.414 171.053 109.561L185.019 99.1828C188.038 96.959 188.793 92.8818 186.906 89.546L172.94 65.454C171.053 62.1182 166.901 61.0062 163.504 62.4888L147.273 69.1604C144.631 67.3072 141.612 65.454 138.592 63.9714L136.327 46.9216C135.95 43.2152 132.553 40.25 128.778 40.25H100.469C96.6947 40.25 93.2976 43.2152 92.9202 46.9216L90.6555 63.9714C87.6358 65.454 84.6162 66.9366 81.974 69.1604L65.7435 62.4888C62.3465 61.0062 58.1945 62.4888 56.3072 65.454L42.3414 89.546C40.4542 92.8818 41.2091 96.959 44.2287 99.1828L58.1945 109.561C58.1945 111.414 58.1945 112.897 58.1945 114.75C58.1945 116.603 58.1945 118.086 58.5719 119.939L44.6061 130.317C41.5865 132.541 40.8316 136.618 42.7189 139.954L56.6847 164.046C58.5719 167.382 62.7239 168.494 66.121 167.011L82.3515 160.34C84.9937 162.193 88.0133 164.046 91.0329 165.529L93.2976 182.578C93.6751 186.285 97.0722 189.25 100.847 189.25H129.156C132.93 189.25 136.327 186.285 136.705 182.578L138.97 165.529C141.989 164.046 145.009 162.563 147.651 160.34L163.881 167.011C167.279 168.494 171.431 167.011 173.318 164.046L187.284 139.954C189.171 136.618 188.416 132.541 185.396 130.317L171.431 119.939C171.431 118.086 171.431 116.603 171.431 114.75ZM115.19 140.695C100.469 140.695 88.7682 129.205 88.7682 114.75C88.7682 100.295 100.469 88.8047 115.19 88.8047C129.911 88.8047 141.612 100.295 141.612 114.75C141.612 129.205 129.533 140.695 115.19 140.695Z" fill="#AAAAAA"/>
</svg>
