<svg width="150" height="150" viewBox="0 0 150 150" fill="none" xmlns="http://www.w3.org/2000/svg">
<path d="M38.2884 61.957L110.741 61.9565C123.603 61.9565 134.03 51.4449 134.03 38.4783C134.03 25.5116 123.603 15 110.741 15L38.2884 15.0005M38.2884 61.957C25.4266 61.957 15 51.4454 15 38.4787C15 25.5121 25.4266 15.0005 38.2884 15.0005M38.2884 61.957C51.1502 61.957 61.5768 51.4454 61.5768 38.4787C61.5768 25.5121 51.1502 15.0005 38.2884 15.0005M111.712 88.0435H38.2884C25.4266 88.0435 15 98.555 15 111.522C15 124.488 25.4266 135 38.2884 135H111.712M111.712 88.0435C124.573 88.0435 135 98.555 135 111.522C135 124.488 124.573 135 111.712 135M111.712 88.0435C98.8497 88.0435 88.4232 98.555 88.4232 111.522C88.4232 124.488 98.8497 135 111.712 135" stroke="#AAAAAA" stroke-width="13"/>
</svg>
