<svg width="230" height="230" viewBox="0 0 230 230" fill="none" xmlns="http://www.w3.org/2000/svg">
<path d="M163.072 114.75C163.072 113.183 163.072 111.929 162.754 110.362L174.534 101.586C177.081 99.7052 177.718 96.2575 176.126 93.4366L164.346 73.0634C162.754 70.2425 159.251 69.3022 156.386 70.556L142.695 76.1978C140.466 74.6306 137.919 73.0634 135.371 71.8097L133.461 57.3918C133.143 54.2575 130.277 51.75 127.093 51.75H103.213C100.029 51.75 97.1639 54.2575 96.8455 57.3918L94.9351 71.8097C92.388 73.0634 89.8408 74.3172 87.612 76.1978L73.921 70.556C71.0554 69.3022 67.5531 70.556 65.9611 73.0634L54.1804 93.4366C52.5885 96.2575 53.2252 99.7052 55.7724 101.586L67.5531 110.362C67.5531 111.929 67.5531 113.183 67.5531 114.75C67.5531 116.317 67.5531 117.571 67.8715 119.138L56.0908 127.914C53.5436 129.795 52.9069 133.243 54.4988 136.063L66.2795 156.437C67.8715 159.257 71.3738 160.198 74.2394 158.944L87.9304 153.302C90.1592 154.869 92.7064 156.437 95.2535 157.69L97.1639 172.108C97.4823 175.243 100.348 177.75 103.532 177.75H127.412C130.596 177.75 133.461 175.243 133.779 172.108L135.69 157.69C138.237 156.437 140.784 155.183 143.013 153.302L156.704 158.944C159.57 160.198 163.072 158.944 164.664 156.437L176.445 136.063C178.037 133.243 177.4 129.795 174.853 127.914L163.072 119.138C163.072 117.571 163.072 116.317 163.072 114.75ZM115.631 136.69C103.213 136.69 93.3432 126.974 93.3432 114.75C93.3432 102.526 103.213 92.8097 115.631 92.8097C128.048 92.8097 137.919 102.526 137.919 114.75C137.919 126.974 127.73 136.69 115.631 136.69Z" fill="#AAAAAA"/>
</svg>
