<svg width="230" height="230" viewBox="0 0 230 230" fill="none" xmlns="http://www.w3.org/2000/svg">
<path d="M171.431 115.25C171.431 113.397 171.431 111.914 171.053 110.061L185.019 99.6828C188.038 97.459 188.793 93.3818 186.906 90.046L172.94 65.954C171.053 62.6182 166.901 61.5062 163.504 62.9888L147.273 69.6604C144.631 67.8072 141.612 65.954 138.592 64.4714L136.327 47.4216C135.95 43.7152 132.553 40.75 128.778 40.75H100.469C96.6947 40.75 93.2976 43.7152 92.9202 47.4216L90.6555 64.4714C87.6358 65.954 84.6162 67.4366 81.974 69.6604L65.7435 62.9888C62.3465 61.5062 58.1945 62.9888 56.3072 65.954L42.3414 90.046C40.4542 93.3818 41.2091 97.459 44.2287 99.6828L58.1945 110.061C58.1945 111.914 58.1945 113.397 58.1945 115.25C58.1945 117.103 58.1945 118.586 58.5719 120.439L44.6061 130.817C41.5865 133.041 40.8316 137.118 42.7189 140.454L56.6847 164.546C58.5719 167.882 62.7239 168.994 66.121 167.511L82.3515 160.84C84.9937 162.693 88.0133 164.546 91.0329 166.029L93.2976 183.078C93.6751 186.785 97.0722 189.75 100.847 189.75H129.156C132.93 189.75 136.327 186.785 136.705 183.078L138.97 166.029C141.989 164.546 145.009 163.063 147.651 160.84L163.881 167.511C167.279 168.994 171.431 167.511 173.318 164.546L187.284 140.454C189.171 137.118 188.416 133.041 185.396 130.817L171.431 120.439C171.431 118.586 171.431 117.103 171.431 115.25ZM115.19 141.195C100.469 141.195 88.7682 129.705 88.7682 115.25C88.7682 100.795 100.469 89.3047 115.19 89.3047C129.911 89.3047 141.612 100.795 141.612 115.25C141.612 129.705 129.533 141.195 115.19 141.195Z" fill="#AAAAAA"/>
</svg>
