<svg width="230" height="230" viewBox="0 0 230 230" fill="none" xmlns="http://www.w3.org/2000/svg">
<path d="M166.038 115.25C166.038 113.571 166.038 112.228 165.697 110.549L178.333 101.146C181.065 99.1306 181.748 95.4366 180.04 92.4142L167.404 70.5858C165.697 67.5634 161.94 66.556 158.867 67.8993L144.182 73.944C141.791 72.2649 139.059 70.5858 136.327 69.2425L134.278 53.7948C133.937 50.4366 130.863 47.75 127.448 47.75H101.835C98.4202 47.75 95.3467 50.4366 95.0052 53.7948L92.9561 69.2425C90.2241 70.5858 87.4921 71.9291 85.1015 73.944L70.4168 67.8993C67.3432 66.556 63.5867 67.8993 61.8791 70.5858L49.2434 92.4142C47.5359 95.4366 48.2189 99.1306 50.951 101.146L63.5867 110.549C63.5867 112.228 63.5867 113.571 63.5867 115.25C63.5867 116.929 63.5867 118.272 63.9282 119.951L51.2925 129.354C48.5604 131.369 47.8774 135.063 49.5849 138.086L62.2206 159.914C63.9282 162.937 67.6847 163.944 70.7583 162.601L85.443 156.556C87.8336 158.235 90.5656 159.914 93.2976 161.257L95.3467 176.705C95.6882 180.063 98.7617 182.75 102.177 182.75H127.79C131.205 182.75 134.278 180.063 134.62 176.705L136.669 161.257C139.401 159.914 142.133 158.571 144.523 156.556L159.208 162.601C162.282 163.944 166.038 162.601 167.746 159.914L180.382 138.086C182.089 135.063 181.406 131.369 178.674 129.354L166.038 119.951C166.038 118.272 166.038 116.929 166.038 115.25ZM115.154 138.757C101.835 138.757 91.2486 128.347 91.2486 115.25C91.2486 102.153 101.835 91.7425 115.154 91.7425C128.473 91.7425 139.059 102.153 139.059 115.25C139.059 128.347 128.131 138.757 115.154 138.757Z" fill="#AAAAAA"/>
</svg>
