<svg width="230" height="230" viewBox="0 0 230 230" fill="none" xmlns="http://www.w3.org/2000/svg">
<path d="M162.957 115.25C162.957 113.695 162.957 112.451 162.636 110.897L174.512 102.19C177.079 100.325 177.721 96.9042 176.117 94.1057L164.241 73.8943C162.636 71.0958 159.106 70.1629 156.217 71.4067L142.415 77.0037C140.169 75.449 137.601 73.8943 135.033 72.6505L133.107 58.347C132.786 55.2376 129.898 52.75 126.688 52.75H102.616C99.4062 52.75 96.5176 55.2376 96.1966 58.347L94.2708 72.6505C91.7031 73.8943 89.1354 75.1381 86.8886 77.0037L73.0872 71.4067C70.1985 70.1629 66.6679 71.4067 65.0631 73.8943L53.1874 94.1057C51.5826 96.9042 52.2245 100.325 54.7923 102.19L66.6679 110.897C66.6679 112.451 66.6679 113.695 66.6679 115.25C66.6679 116.805 66.6679 118.049 66.9889 119.603L55.1132 128.31C52.5455 130.175 51.9036 133.596 53.5084 136.394L65.3841 156.606C66.9889 159.404 70.5195 160.337 73.4082 159.093L87.2096 153.496C89.4564 155.051 92.0241 156.606 94.5918 157.85L96.5176 172.153C96.8385 175.262 99.7272 177.75 102.937 177.75H127.009C130.219 177.75 133.107 175.262 133.428 172.153L135.354 157.85C137.922 156.606 140.49 155.362 142.736 153.496L156.538 159.093C159.426 160.337 162.957 159.093 164.562 156.606L176.438 136.394C178.042 133.596 177.4 130.175 174.833 128.31L162.957 119.603C162.957 118.049 162.957 116.805 162.957 115.25ZM115.133 137.016C102.616 137.016 92.666 127.377 92.666 115.25C92.666 103.123 102.616 93.4838 115.133 93.4838C127.651 93.4838 137.601 103.123 137.601 115.25C137.601 127.377 127.33 137.016 115.133 137.016Z" fill="#AAAAAA"/>
</svg>
