<svg width="230" height="230" viewBox="0 0 230 230" fill="none" xmlns="http://www.w3.org/2000/svg">
<rect width="218" height="218" rx="50" transform="matrix(-1 0 0 1 224 6)" fill="#808080" fill-opacity="0.5"/>
<path d="M166.038 114.75C166.038 113.071 166.038 111.728 165.697 110.049L178.333 100.646C181.065 98.6306 181.748 94.9366 180.04 91.9142L167.404 70.0858C165.697 67.0634 161.94 66.056 158.867 67.3993L144.182 73.444C141.791 71.7649 139.059 70.0858 136.327 68.7425L134.278 53.2948C133.937 49.9366 130.863 47.25 127.448 47.25H101.835C98.4202 47.25 95.3467 49.9366 95.0052 53.2948L92.9561 68.7425C90.2241 70.0858 87.4921 71.4291 85.1015 73.444L70.4168 67.3993C67.3432 66.056 63.5867 67.3993 61.8791 70.0858L49.2434 91.9142C47.5359 94.9366 48.2189 98.6306 50.951 100.646L63.5867 110.049C63.5867 111.728 63.5867 113.071 63.5867 114.75C63.5867 116.429 63.5867 117.772 63.9282 119.451L51.2925 128.854C48.5604 130.869 47.8774 134.563 49.5849 137.586L62.2206 159.414C63.9282 162.437 67.6847 163.444 70.7583 162.101L85.443 156.056C87.8336 157.735 90.5656 159.414 93.2976 160.757L95.3467 176.205C95.6882 179.563 98.7617 182.25 102.177 182.25H127.79C131.205 182.25 134.278 179.563 134.62 176.205L136.669 160.757C139.401 159.414 142.133 158.071 144.523 156.056L159.208 162.101C162.282 163.444 166.038 162.101 167.746 159.414L180.382 137.586C182.089 134.563 181.406 130.869 178.674 128.854L166.038 119.451C166.038 117.772 166.038 116.429 166.038 114.75ZM115.154 138.257C101.835 138.257 91.2486 127.847 91.2486 114.75C91.2486 101.653 101.835 91.2425 115.154 91.2425C128.473 91.2425 139.059 101.653 139.059 114.75C139.059 127.847 128.131 138.257 115.154 138.257Z" fill="#AAAAAA"/>
</svg>
