<svg width="230" height="230" viewBox="0 0 230 230" fill="none" xmlns="http://www.w3.org/2000/svg">
<rect width="218" height="218" rx="50" transform="matrix(-1 0 0 1 224 6)" fill="#808080" fill-opacity="0.5"/>
<path d="M165.07 115C165.07 113.358 165.07 112.045 164.737 110.403L177.087 101.209C179.758 99.2388 180.425 95.6269 178.756 92.6717L166.406 71.3284C164.737 68.3731 161.065 67.3881 158.061 68.7015L143.707 74.6119C141.37 72.9702 138.7 71.3284 136.03 70.0149L134.027 54.9104C133.693 51.6269 130.689 49 127.351 49H102.316C98.9775 49 95.9733 51.6269 95.6395 54.9104L93.6366 70.0149C90.9662 71.3284 88.2958 72.6418 85.9592 74.6119L71.6057 68.7015C68.6015 67.3881 64.9296 68.7015 63.2606 71.3284L50.9099 92.6717C49.2409 95.6269 49.9085 99.2388 52.5789 101.209L64.9296 110.403C64.9296 112.045 64.9296 113.358 64.9296 115C64.9296 116.642 64.9296 117.955 65.2634 119.597L52.9127 128.791C50.2423 130.761 49.5747 134.373 51.2437 137.328L63.5944 158.672C65.2634 161.627 68.9353 162.612 71.9395 161.299L86.293 155.388C88.6296 157.03 91.3 158.672 93.9704 159.985L95.9733 175.09C96.3071 178.373 99.3113 181 102.649 181H127.684C131.023 181 134.027 178.373 134.361 175.09L136.363 159.985C139.034 158.672 141.704 157.358 144.041 155.388L158.394 161.299C161.399 162.612 165.07 161.299 166.739 158.672L179.09 137.328C180.759 134.373 180.091 130.761 177.421 128.791L165.07 119.597C165.07 117.955 165.07 116.642 165.07 115ZM115.334 137.985C102.316 137.985 91.9676 127.806 91.9676 115C91.9676 102.194 102.316 92.0149 115.334 92.0149C128.352 92.0149 138.7 102.194 138.7 115C138.7 127.806 128.018 137.985 115.334 137.985Z" fill="#AAAAAA"/>
</svg>
