<svg width="230" height="230" viewBox="0 0 230 230" fill="none" xmlns="http://www.w3.org/2000/svg">
<rect width="218" height="218" rx="50" transform="matrix(-1 0 0 1 224 6)" fill="#808080" fill-opacity="0.5"/>
<path d="M162.957 114.75C162.957 113.195 162.957 111.951 162.636 110.397L174.512 101.69C177.079 99.8246 177.721 96.4042 176.117 93.6057L164.241 73.3943C162.636 70.5958 159.106 69.6629 156.217 70.9067L142.415 76.5037C140.169 74.949 137.601 73.3943 135.033 72.1505L133.107 57.847C132.786 54.7376 129.898 52.25 126.688 52.25H102.616C99.4062 52.25 96.5176 54.7376 96.1966 57.847L94.2708 72.1505C91.7031 73.3943 89.1354 74.6381 86.8886 76.5037L73.0872 70.9067C70.1985 69.6629 66.6679 70.9067 65.0631 73.3943L53.1874 93.6057C51.5826 96.4042 52.2245 99.8246 54.7923 101.69L66.6679 110.397C66.6679 111.951 66.6679 113.195 66.6679 114.75C66.6679 116.305 66.6679 117.549 66.9889 119.103L55.1132 127.81C52.5455 129.675 51.9036 133.096 53.5084 135.894L65.3841 156.106C66.9889 158.904 70.5195 159.837 73.4082 158.593L87.2096 152.996C89.4564 154.551 92.0241 156.106 94.5918 157.35L96.5176 171.653C96.8385 174.762 99.7272 177.25 102.937 177.25H127.009C130.219 177.25 133.107 174.762 133.428 171.653L135.354 157.35C137.922 156.106 140.49 154.862 142.736 152.996L156.538 158.593C159.426 159.837 162.957 158.593 164.562 156.106L176.438 135.894C178.042 133.096 177.4 129.675 174.833 127.81L162.957 119.103C162.957 117.549 162.957 116.305 162.957 114.75ZM115.133 136.516C102.616 136.516 92.666 126.877 92.666 114.75C92.666 102.623 102.616 92.9838 115.133 92.9838C127.651 92.9838 137.601 102.623 137.601 114.75C137.601 126.877 127.33 136.516 115.133 136.516Z" fill="#AAAAAA"/>
</svg>
