<svg width="230" height="230" viewBox="0 0 230 230" fill="none" xmlns="http://www.w3.org/2000/svg">
<rect width="218" height="218" rx="50" transform="matrix(-1 0 0 1 224 6)" fill="#808080" fill-opacity="0.5"/>
<path d="M163.072 115.25C163.072 113.683 163.072 112.429 162.754 110.862L174.534 102.086C177.081 100.205 177.718 96.7575 176.126 93.9366L164.346 73.5634C162.754 70.7425 159.251 69.8022 156.386 71.056L142.695 76.6978C140.466 75.1306 137.919 73.5634 135.371 72.3097L133.461 57.8918C133.143 54.7575 130.277 52.25 127.093 52.25H103.213C100.029 52.25 97.1639 54.7575 96.8455 57.8918L94.9351 72.3097C92.388 73.5634 89.8408 74.8172 87.612 76.6978L73.921 71.056C71.0554 69.8022 67.5531 71.056 65.9611 73.5634L54.1804 93.9366C52.5885 96.7575 53.2252 100.205 55.7724 102.086L67.5531 110.862C67.5531 112.429 67.5531 113.683 67.5531 115.25C67.5531 116.817 67.5531 118.071 67.8715 119.638L56.0908 128.414C53.5436 130.295 52.9069 133.743 54.4988 136.563L66.2795 156.937C67.8715 159.757 71.3738 160.698 74.2394 159.444L87.9304 153.802C90.1592 155.369 92.7064 156.937 95.2535 158.19L97.1639 172.608C97.4823 175.743 100.348 178.25 103.532 178.25H127.412C130.596 178.25 133.461 175.743 133.779 172.608L135.69 158.19C138.237 156.937 140.784 155.683 143.013 153.802L156.704 159.444C159.57 160.698 163.072 159.444 164.664 156.937L176.445 136.563C178.037 133.743 177.4 130.295 174.853 128.414L163.072 119.638C163.072 118.071 163.072 116.817 163.072 115.25ZM115.631 137.19C103.213 137.19 93.3432 127.474 93.3432 115.25C93.3432 103.026 103.213 93.3097 115.631 93.3097C128.048 93.3097 137.919 103.026 137.919 115.25C137.919 127.474 127.73 137.19 115.631 137.19Z" fill="#AAAAAA"/>
</svg>
