<svg width="150" height="150" viewBox="0 0 150 150" fill="none" xmlns="http://www.w3.org/2000/svg">
<g clip-path="url(#clip0_28917_52)">
<circle cx="75" cy="75" r="75" transform="matrix(0 -1 -1 0 150 150)" fill="#808080" fill-opacity="0.4"/>
<path d="M106.159 93.6884L74.9156 62.4445H74.515L44.0723 92.8873C40.8678 96.0918 35.2599 96.4923 32.0554 92.8873C29.2514 89.6828 29.2515 85.2766 32.456 82.0721L69.3077 45.6209C72.5122 42.4164 77.7195 42.4164 80.924 45.6209L117.375 82.0721C120.179 84.876 120.98 89.6828 118.577 92.8873C114.972 96.8929 109.364 96.8929 106.159 93.6884Z" fill="white"/>
</g>
<defs>
<clipPath id="clip0_28917_52">
<rect width="150" height="150" fill="white" transform="matrix(0 -1 -1 0 150 150)"/>
</clipPath>
</defs>
</svg>
