<svg width="230" height="230" viewBox="0 0 230 230" fill="none" xmlns="http://www.w3.org/2000/svg">
<rect width="218" height="218" rx="50" transform="matrix(-1 0 0 1 224 6)" fill="#808080" fill-opacity="0.5"/>
<path d="M116.234 182.25C106.896 182.25 98.0304 180.492 89.6386 176.977C81.248 173.462 73.9928 168.631 67.8731 162.485C61.7545 156.339 56.8812 149.15 53.253 140.917C49.626 132.683 47.8125 123.861 47.8125 114.449C47.8125 105.036 49.626 96.2847 53.253 88.1941C56.8812 80.1024 61.7545 73.0427 67.8731 67.0152C73.9928 60.9865 81.2486 56.1851 89.6404 52.6111C98.031 49.037 106.928 47.25 116.33 47.25C125.703 47.25 134.661 49.2258 143.203 53.1773C151.746 57.1288 159.339 62.4663 165.983 69.1897V58.3968C165.983 56.7714 166.551 55.3919 167.685 54.2583C168.819 53.1248 170.213 52.558 171.867 52.558C173.521 52.558 174.941 53.1248 176.128 54.2583C177.314 55.3919 177.907 56.7714 177.907 58.3968V83.5213C177.907 85.8332 177.149 87.7677 175.633 89.3247C174.118 90.8817 172.206 91.6602 169.899 91.6602H144.271C142.687 91.6602 141.283 91.048 140.059 89.8237C138.833 88.5981 138.22 87.1355 138.22 85.4357C138.22 83.5697 138.795 82.0763 139.945 80.9558C141.095 79.8352 142.537 79.2749 144.271 79.2749H152.992C147.977 74.4069 142.343 70.5657 136.09 67.7512C129.837 64.9356 123.251 63.5279 116.33 63.5279C101.905 63.5279 89.5787 68.3829 79.3502 78.093C69.1218 87.8031 64.0076 99.7166 64.0076 113.833C64.0076 128.422 69.0631 140.789 79.1741 150.933C89.285 161.077 101.656 166.149 116.288 166.149C129.288 166.149 140.434 161.899 149.728 153.399C159.022 144.899 164.619 134.405 166.517 121.916C166.873 119.675 167.882 117.964 169.543 116.785C171.204 115.605 173.142 115.015 175.357 115.015C177.532 115.015 179.39 115.812 180.933 117.404C182.475 118.996 183.068 120.795 182.712 122.8C180.654 139.564 173.381 153.664 160.893 165.098C148.406 176.533 133.52 182.25 116.234 182.25Z" fill="#AAAAAA"/>
</svg>
