<svg width="230" height="230" viewBox="0 0 230 230" fill="none" xmlns="http://www.w3.org/2000/svg">
<path d="M116.234 182.75C106.896 182.75 98.0304 180.992 89.6386 177.477C81.248 173.962 73.9928 169.131 67.8731 162.985C61.7545 156.839 56.8812 149.65 53.253 141.417C49.626 133.183 47.8125 124.361 47.8125 114.949C47.8125 105.536 49.626 96.7847 53.253 88.6941C56.8812 80.6024 61.7545 73.5427 67.8731 67.5152C73.9928 61.4865 81.2486 56.6851 89.6404 53.1111C98.031 49.537 106.928 47.75 116.33 47.75C125.703 47.75 134.661 49.7258 143.203 53.6773C151.746 57.6288 159.339 62.9663 165.983 69.6897V58.8968C165.983 57.2714 166.551 55.8919 167.685 54.7583C168.819 53.6248 170.213 53.058 171.867 53.058C173.521 53.058 174.941 53.6248 176.128 54.7583C177.314 55.8919 177.907 57.2714 177.907 58.8968V84.0213C177.907 86.3332 177.149 88.2677 175.633 89.8247C174.118 91.3817 172.206 92.1602 169.899 92.1602H144.271C142.687 92.1602 141.283 91.548 140.059 90.3237C138.833 89.0981 138.22 87.6355 138.22 85.9357C138.22 84.0697 138.795 82.5763 139.945 81.4558C141.095 80.3352 142.537 79.7749 144.271 79.7749H152.992C147.977 74.9069 142.343 71.0657 136.09 68.2512C129.837 65.4356 123.251 64.0279 116.33 64.0279C101.905 64.0279 89.5787 68.8829 79.3502 78.593C69.1218 88.3031 64.0076 100.217 64.0076 114.333C64.0076 128.922 69.0631 141.289 79.1741 151.433C89.285 161.577 101.656 166.649 116.288 166.649C129.288 166.649 140.434 162.399 149.728 153.899C159.022 145.399 164.619 134.905 166.517 122.416C166.873 120.175 167.882 118.464 169.543 117.285C171.204 116.105 173.142 115.515 175.357 115.515C177.532 115.515 179.39 116.312 180.933 117.904C182.475 119.496 183.068 121.295 182.712 123.3C180.654 140.064 173.381 154.164 160.893 165.598C148.406 177.033 133.52 182.75 116.234 182.75Z" fill="#AAAAAA"/>
</svg>
