<svg width="150" height="150" viewBox="0 0 150 150" fill="none" xmlns="http://www.w3.org/2000/svg">
<g clip-path="url(#clip0_28649_14)">
<path d="M76.0241 150C65.6479 150 55.7976 148.047 46.4734 144.142C37.1505 140.236 29.0892 134.868 22.2895 128.039C15.4911 121.21 10.0763 113.222 6.04499 104.074C2.015 94.926 0 85.1232 0 74.6658C0 64.2071 2.015 54.483 6.04499 45.4934C10.0763 36.5026 15.4911 28.6586 22.2895 21.9613C29.0892 15.2628 37.1512 9.92791 46.4754 5.95675C55.7983 1.98558 65.6835 0 76.1308 0C86.5453 0 96.4983 2.19528 105.99 6.58585C115.482 10.9764 123.919 16.9069 131.301 24.3775V12.3853C131.301 10.5793 131.931 9.04652 133.191 7.78702C134.452 6.52752 136.001 5.89777 137.838 5.89777C139.676 5.89777 141.254 6.52752 142.572 7.78702C143.891 9.04652 144.55 10.5793 144.55 12.3853V40.3014C144.55 42.8703 143.707 45.0197 142.023 46.7497C140.339 48.4797 138.215 49.3447 135.651 49.3447H107.176C105.416 49.3447 103.856 48.6645 102.496 47.3041C101.134 45.9423 100.453 44.3172 100.453 42.4286C100.453 40.3552 101.092 38.6959 102.369 37.4509C103.647 36.2058 105.249 35.5832 107.176 35.5832H116.866C111.293 30.1743 105.034 25.9063 98.0862 22.7792C91.1388 19.6507 83.8204 18.0865 76.1308 18.0865C60.1032 18.0865 46.4069 23.481 35.0419 34.27C23.677 45.059 17.9946 58.2962 17.9946 73.9817C17.9946 90.1914 23.6118 103.932 34.8462 115.203C46.0806 126.474 59.8263 132.11 76.0834 132.11C90.5278 132.11 102.913 127.388 113.239 117.944C123.567 108.499 129.785 96.8388 131.894 82.962C132.29 80.4718 133.41 78.5714 135.256 77.2608C137.101 75.9502 139.255 75.2949 141.716 75.2949C144.132 75.2949 146.198 76.1796 147.911 77.9489C149.625 79.7182 150.284 81.7169 149.889 83.945C147.602 102.571 139.52 118.237 125.646 130.942C111.771 143.647 95.2301 150 76.0241 150Z" fill="#AAAAAA"/>
</g>
<defs>
<clipPath id="clip0_28649_14">
<rect width="150" height="150" fill="white"/>
</clipPath>
</defs>
</svg>
