<svg width="230" height="230" viewBox="0 0 230 230" fill="none" xmlns="http://www.w3.org/2000/svg">
<rect width="218" height="218" rx="50" transform="matrix(-1 0 0 1 224 6)" fill="#808080" fill-opacity="0.5"/>
<path d="M115.888 180C106.895 180 98.358 178.308 90.277 174.923C82.1971 171.538 75.2107 166.886 69.3176 160.967C63.4257 155.049 58.7328 148.126 55.239 140.198C51.7463 132.269 50 123.773 50 114.71C50 105.646 51.7463 97.2186 55.239 89.4277C58.7328 81.6356 63.4257 74.8374 69.3176 69.0332C75.2107 63.2277 82.1977 58.6042 90.2787 55.1625C98.3585 51.7208 106.926 50 115.98 50C125.006 50 133.632 51.9026 141.858 55.7077C150.084 59.5129 157.396 64.6527 163.794 71.1271V60.7339C163.794 59.1687 164.34 57.8403 165.433 56.7488C166.525 55.6572 167.867 55.1114 169.46 55.1114C171.053 55.1114 172.42 55.6572 173.563 56.7488C174.705 57.8403 175.276 59.1687 175.276 60.7339V84.9279C175.276 87.1542 174.546 89.017 173.086 90.5164C171.627 92.0157 169.787 92.7654 167.564 92.7654H142.886C141.361 92.7654 140.009 92.1759 138.83 90.9969C137.65 89.8167 137.059 88.4082 137.059 86.7714C137.059 84.9745 137.613 83.5365 138.72 82.4574C139.827 81.3783 141.216 80.8388 142.886 80.8388H151.284C146.454 76.1511 141.029 72.4521 135.008 69.7419C128.987 67.0306 122.644 65.675 115.98 65.675C102.089 65.675 90.2193 70.3502 80.3697 79.7007C70.5201 89.0511 65.5953 100.523 65.5953 114.117C65.5953 128.166 70.4635 140.074 80.2 149.843C89.9365 159.611 101.849 164.495 115.939 164.495C128.457 164.495 139.191 160.403 148.141 152.218C157.091 144.033 162.48 133.927 164.308 121.9C164.651 119.742 165.622 118.095 167.222 116.959C168.821 115.824 170.688 115.256 172.821 115.256C174.915 115.256 176.705 116.022 178.19 117.556C179.675 119.089 180.246 120.821 179.904 122.752C177.921 138.895 170.918 152.472 158.893 163.483C146.868 174.494 132.533 180 115.888 180Z" fill="#AAAAAA"/>
</svg>
