<svg width="230" height="230" viewBox="0 0 230 230" fill="none" xmlns="http://www.w3.org/2000/svg">
<rect width="218" height="218" rx="50" transform="matrix(-1 0 0 1 223.812 6.25)" fill="#808080" fill-opacity="0.5"/>
<path d="M114.31 165.25C100.633 165.25 88.9636 160.378 79.3032 150.634C69.6427 140.889 64.8125 129.119 64.8125 115.322C64.8125 101.526 69.6427 89.7314 79.3032 79.9389C88.9636 70.1463 100.633 65.25 114.31 65.25C123.014 65.25 130.69 67.0107 137.338 70.5322C143.985 74.0537 149.7 78.9982 154.483 85.3658V70.4598C154.483 69.0127 154.961 67.7826 155.917 66.7695C156.874 65.7565 158.093 65.25 159.576 65.25C161.058 65.25 162.302 65.7565 163.306 66.7695C164.31 67.7826 164.812 69.0127 164.812 70.4598V100.561C164.812 102.491 164.143 104.107 162.804 105.409C161.465 106.712 159.839 107.363 157.926 107.363H127.94C126.505 107.363 125.31 106.856 124.353 105.843C123.397 104.83 122.919 103.6 122.919 102.153C122.919 100.706 123.421 99.4999 124.425 98.5351C125.429 97.5703 126.649 97.0879 128.084 97.0879H146.448C142.718 91.6851 138.222 87.3195 132.962 83.991C127.701 80.6624 121.484 78.9982 114.31 78.9982C104.267 78.9982 95.7546 82.5197 88.7723 89.5626C81.79 96.6055 78.2989 105.192 78.2989 115.322C78.2989 125.453 81.79 134.039 88.7723 141.082C95.7546 148.125 104.267 151.647 114.31 151.647C120.719 151.647 126.745 150.031 132.388 146.798C138.031 143.566 142.431 139.153 145.587 133.557C146.639 132.013 148.026 130.904 149.748 130.228C151.47 129.553 153.191 129.601 154.913 130.373C156.635 131.048 157.83 132.182 158.5 133.774C159.169 135.366 159.121 136.934 158.356 138.477C154.148 146.678 148.098 153.19 140.207 158.014C132.316 162.838 123.684 165.25 114.31 165.25Z" fill="#AAAAAA"/>
</svg>
