<svg width="230" height="230" viewBox="0 0 230 230" fill="none" xmlns="http://www.w3.org/2000/svg">
<path d="M116.316 188.75C106.147 188.75 96.4942 186.836 87.3565 183.009C78.22 179.181 70.3199 173.921 63.6562 167.228C56.9938 160.536 51.6873 152.708 47.7366 143.743C43.7872 134.777 41.8125 125.171 41.8125 114.922C41.8125 104.673 43.7872 95.1433 47.7366 86.3336C51.6873 77.5226 56.9938 69.8354 63.6562 63.2721C70.3199 56.7075 78.2207 51.4794 87.3584 47.5876C96.4948 43.6959 106.182 41.75 116.421 41.75C126.627 41.75 136.381 43.9014 145.683 48.2041C154.984 52.5069 163.253 58.3188 170.487 65.6399V53.8876C170.487 52.1177 171.105 50.6156 172.34 49.3813C173.575 48.147 175.093 47.5298 176.894 47.5298C178.695 47.5298 180.241 48.147 181.533 49.3813C182.825 50.6156 183.471 52.1177 183.471 53.8876V81.2454C183.471 83.7628 182.646 85.8693 180.995 87.5647C179.345 89.2601 177.264 90.1078 174.751 90.1078H146.845C145.121 90.1078 143.592 89.4412 142.258 88.108C140.924 86.7735 140.257 85.1808 140.257 83.33C140.257 81.2981 140.883 79.672 142.134 78.4518C143.386 77.2317 144.957 76.6216 146.845 76.6216H156.341C150.88 71.3208 144.745 67.1382 137.937 64.0736C131.129 61.0077 123.956 59.4748 116.421 59.4748C100.714 59.4748 87.2912 64.7614 76.1536 75.3346C65.016 85.9078 59.4472 98.8803 59.4472 114.252C59.4472 130.138 64.952 143.603 75.9618 154.649C86.9715 165.695 100.442 171.218 116.374 171.218C130.53 171.218 142.667 166.59 152.787 157.335C162.908 148.079 169.002 136.652 171.069 123.053C171.456 120.612 172.555 118.75 174.363 117.466C176.172 116.181 178.282 115.539 180.694 115.539C183.062 115.539 185.086 116.406 186.766 118.14C188.445 119.874 189.091 121.833 188.704 124.016C186.462 142.27 178.543 157.622 164.945 170.073C151.348 182.525 135.138 188.75 116.316 188.75Z" fill="#AAAAAA"/>
</svg>
