<svg width="230" height="230" viewBox="0 0 230 230" fill="none" xmlns="http://www.w3.org/2000/svg">
<path d="M114.31 164.75C100.633 164.75 88.9636 159.878 79.3032 150.134C69.6427 140.389 64.8125 128.619 64.8125 114.822C64.8125 101.026 69.6427 89.2314 79.3032 79.4389C88.9636 69.6463 100.633 64.75 114.31 64.75C123.014 64.75 130.69 66.5107 137.338 70.0322C143.985 73.5537 149.7 78.4982 154.483 84.8658V69.9598C154.483 68.5127 154.961 67.2826 155.917 66.2695C156.874 65.2565 158.093 64.75 159.576 64.75C161.058 64.75 162.302 65.2565 163.306 66.2695C164.31 67.2826 164.812 68.5127 164.812 69.9598V100.061C164.812 101.991 164.143 103.607 162.804 104.909C161.465 106.212 159.839 106.863 157.926 106.863H127.94C126.505 106.863 125.31 106.356 124.353 105.343C123.397 104.33 122.919 103.1 122.919 101.653C122.919 100.206 123.421 98.9999 124.425 98.0351C125.429 97.0703 126.649 96.5879 128.084 96.5879H146.448C142.718 91.1851 138.222 86.8195 132.962 83.491C127.701 80.1624 121.484 78.4982 114.31 78.4982C104.267 78.4982 95.7546 82.0197 88.7723 89.0626C81.79 96.1055 78.2989 104.692 78.2989 114.822C78.2989 124.953 81.79 133.539 88.7723 140.582C95.7546 147.625 104.267 151.147 114.31 151.147C120.719 151.147 126.745 149.531 132.388 146.298C138.031 143.066 142.431 138.653 145.587 133.057C146.639 131.513 148.026 130.404 149.748 129.728C151.47 129.053 153.191 129.101 154.913 129.873C156.635 130.548 157.83 131.682 158.5 133.274C159.169 134.866 159.121 136.434 158.356 137.977C154.148 146.178 148.098 152.69 140.207 157.514C132.316 162.338 123.684 164.75 114.31 164.75Z" fill="#AAAAAA"/>
</svg>
