<svg width="230" height="230" viewBox="0 0 230 230" fill="none" xmlns="http://www.w3.org/2000/svg">
<path d="M115.673 177.75C106.957 177.75 98.6825 176.11 90.8502 172.829C83.0189 169.548 76.2475 165.039 70.5357 159.302C64.8251 153.567 60.2766 146.857 56.8903 139.172C53.5051 131.488 51.8125 123.253 51.8125 114.469C51.8125 105.684 53.5051 97.5157 56.8903 89.9645C60.2766 82.4122 64.8251 75.8232 70.5357 70.1975C76.2475 64.5707 83.0195 60.0894 90.8518 56.7537C98.6831 53.4179 106.987 51.75 115.762 51.75C124.511 51.75 132.871 53.594 140.844 57.2821C148.817 60.9702 155.904 65.9518 162.105 72.2271V62.1537C162.105 60.6366 162.635 59.3491 163.693 58.2911C164.752 57.2331 166.053 56.7041 167.597 56.7041C169.14 56.7041 170.466 57.2331 171.573 58.2911C172.681 59.3491 173.234 60.6366 173.234 62.1537V85.6032C173.234 87.761 172.527 89.5665 171.111 91.0197C169.697 92.4729 167.913 93.1995 165.76 93.1995H141.841C140.362 93.1995 139.052 92.6282 137.909 91.4854C136.765 90.3416 136.193 88.9764 136.193 87.39C136.193 85.6483 136.73 84.2546 137.803 83.2087C138.876 82.1628 140.222 81.6399 141.841 81.6399H149.98C145.299 77.0964 140.041 73.5113 134.205 70.8845C128.369 68.2566 122.222 66.9427 115.762 66.9427C102.299 66.9427 90.7943 71.474 81.2477 80.5368C71.7012 89.5995 66.9279 100.719 66.9279 113.895C66.9279 127.511 71.6464 139.053 81.0833 148.521C90.5202 157.989 102.067 162.722 115.723 162.722C127.856 162.722 138.259 158.756 146.933 150.823C155.608 142.889 160.832 133.095 162.604 121.438C162.936 119.346 163.877 117.75 165.427 116.649C166.978 115.548 168.787 114.998 170.854 114.998C172.884 114.998 174.618 115.741 176.058 117.227C177.498 118.713 178.051 120.392 177.719 122.264C175.798 137.91 169.01 151.069 157.355 161.742C145.7 172.414 131.806 177.75 115.673 177.75Z" fill="#AAAAAA"/>
</svg>
