<svg width="230" height="230" viewBox="0 0 230 230" fill="none" xmlns="http://www.w3.org/2000/svg">
<rect width="218" height="218" rx="50" transform="matrix(-1 0 0 1 224 6)" fill="#808080" fill-opacity="0.5"/>
<path d="M115.673 178.25C106.957 178.25 98.6825 176.61 90.8502 173.329C83.0189 170.048 76.2475 165.539 70.5357 159.802C64.8251 154.067 60.2766 147.357 56.8903 139.672C53.5051 131.988 51.8125 123.753 51.8125 114.969C51.8125 106.184 53.5051 98.0157 56.8903 90.4645C60.2766 82.9122 64.8251 76.3232 70.5357 70.6975C76.2475 65.0707 83.0195 60.5894 90.8518 57.2537C98.6831 53.9179 106.987 52.25 115.762 52.25C124.511 52.25 132.871 54.094 140.844 57.7821C148.817 61.4702 155.904 66.4518 162.105 72.7271V62.6537C162.105 61.1366 162.635 59.8491 163.693 58.7911C164.752 57.7331 166.053 57.2041 167.597 57.2041C169.14 57.2041 170.466 57.7331 171.573 58.7911C172.681 59.8491 173.234 61.1366 173.234 62.6537V86.1032C173.234 88.261 172.527 90.0665 171.111 91.5197C169.697 92.9729 167.913 93.6995 165.76 93.6995H141.841C140.362 93.6995 139.052 93.1282 137.909 91.9854C136.765 90.8416 136.193 89.4764 136.193 87.89C136.193 86.1483 136.73 84.7546 137.803 83.7087C138.876 82.6628 140.222 82.1399 141.841 82.1399H149.98C145.299 77.5964 140.041 74.0113 134.205 71.3845C128.369 68.7566 122.222 67.4427 115.762 67.4427C102.299 67.4427 90.7943 71.974 81.2477 81.0368C71.7012 90.0995 66.9279 101.219 66.9279 114.395C66.9279 128.011 71.6464 139.553 81.0833 149.021C90.5202 158.489 102.067 163.222 115.723 163.222C127.856 163.222 138.259 159.256 146.933 151.323C155.608 143.389 160.832 133.595 162.604 121.938C162.936 119.846 163.877 118.25 165.427 117.149C166.978 116.048 168.787 115.498 170.854 115.498C172.884 115.498 174.618 116.241 176.058 117.727C177.498 119.213 178.051 120.892 177.719 122.764C175.798 138.41 169.01 151.569 157.355 162.242C145.7 172.914 131.806 178.25 115.673 178.25Z" fill="#AAAAAA"/>
</svg>
