<svg width="230" height="230" viewBox="0 0 230 230" fill="none" xmlns="http://www.w3.org/2000/svg">
<rect width="218" height="218" rx="50" transform="matrix(-1 0 0 1 224 6)" fill="#808080" fill-opacity="0.5"/>
<path d="M116.316 188.25C106.147 188.25 96.4942 186.336 87.3565 182.509C78.22 178.681 70.3199 173.421 63.6562 166.728C56.9938 160.036 51.6873 152.208 47.7366 143.243C43.7872 134.277 41.8125 124.671 41.8125 114.422C41.8125 104.173 43.7872 94.6433 47.7366 85.8336C51.6873 77.0226 56.9938 69.3354 63.6562 62.7721C70.3199 56.2075 78.2207 50.9794 87.3584 47.0876C96.4948 43.1959 106.182 41.25 116.421 41.25C126.627 41.25 136.381 43.4014 145.683 47.7041C154.984 52.0069 163.253 57.8188 170.487 65.1399V53.3876C170.487 51.6177 171.105 50.1156 172.34 48.8813C173.575 47.647 175.093 47.0298 176.894 47.0298C178.695 47.0298 180.241 47.647 181.533 48.8813C182.825 50.1156 183.471 51.6177 183.471 53.3876V80.7454C183.471 83.2628 182.646 85.3693 180.995 87.0647C179.345 88.7601 177.264 89.6078 174.751 89.6078H146.845C145.121 89.6078 143.592 88.9412 142.258 87.608C140.924 86.2735 140.257 84.6808 140.257 82.83C140.257 80.7981 140.883 79.172 142.134 77.9518C143.386 76.7317 144.957 76.1216 146.845 76.1216H156.341C150.88 70.8208 144.745 66.6382 137.937 63.5736C131.129 60.5077 123.956 58.9748 116.421 58.9748C100.714 58.9748 87.2912 64.2614 76.1536 74.8346C65.016 85.4078 59.4472 98.3803 59.4472 113.752C59.4472 129.638 64.952 143.103 75.9618 154.149C86.9715 165.195 100.442 170.718 116.374 170.718C130.53 170.718 142.667 166.09 152.787 156.835C162.908 147.579 169.002 136.152 171.069 122.553C171.456 120.112 172.555 118.25 174.363 116.966C176.172 115.681 178.282 115.039 180.694 115.039C183.062 115.039 185.086 115.906 186.766 117.64C188.445 119.374 189.091 121.333 188.704 123.516C186.462 141.77 178.543 157.122 164.945 169.573C151.348 182.025 135.138 188.25 116.316 188.25Z" fill="#AAAAAA"/>
</svg>
