<svg width="156" height="156" viewBox="0 0 156 156" fill="none" xmlns="http://www.w3.org/2000/svg">
<g clip-path="url(#clip0_28586_355)">
<path d="M10.6616 110.517L59.2187 26.5409L59.411 26.2354C61.4291 22.9472 64.1528 20.1491 67.3851 18.0436C70.4479 16.0785 74.0053 15.0231 77.6439 15C81.3007 14.9954 84.8802 16.0527 87.948 18.0436C91.1673 20.1559 93.8727 22.9628 95.8656 26.258C96.0088 26.4994 96.1446 26.737 96.2727 26.9708L144.038 109.952L144.31 110.45C146.097 114.028 147.016 117.979 146.99 121.979C146.967 125.283 146.123 128.529 144.536 131.427C142.749 134.66 140.013 137.267 136.697 138.894C136.482 139.007 136.256 139.098 136.041 139.189C132.795 140.602 129.276 141.278 125.737 141.169H27.9218C27.673 141.169 27.4241 141.169 27.1866 141.169C24.7909 141.149 22.4172 140.709 20.1739 139.867C16.6068 138.516 13.5422 136.098 11.3968 132.943C9.23568 129.741 8.05633 125.978 8.00355 122.115C7.94771 118.734 8.55088 115.376 9.77934 112.226C10.0056 111.626 10.2977 111.053 10.6503 110.517H10.6616Z" fill="#AAAAAA"/>
<path fill-rule="evenodd" clip-rule="evenodd" d="M18.1833 115.417L66.9553 31.0214C72.8821 21.6869 82.27 21.4493 88.2987 31.0214L136.29 114.398C140.125 122.104 138.224 132.502 125.737 132.241H27.9218C19.7102 132.445 14.4168 125.238 18.1833 115.417Z" fill="#FEC901"/>
<path d="M73.1195 109.793C74.163 108.761 75.5363 108.128 76.9991 108.006C77.9229 107.941 78.8495 108.08 79.7137 108.413C80.563 108.738 81.3339 109.239 81.9759 109.884C82.7079 110.611 83.2498 111.508 83.5535 112.495C83.8573 113.481 83.9137 114.528 83.7177 115.541C83.6178 116.067 83.4584 116.579 83.2427 117.069C82.7297 118.196 81.8961 119.147 80.846 119.803C79.796 120.459 78.576 120.791 77.3384 120.757C76.4505 120.736 75.5765 120.532 74.7709 120.157C73.3518 119.481 72.2407 118.293 71.6604 116.831C71.464 116.371 71.3272 115.888 71.2532 115.394C71.175 114.904 71.1522 114.407 71.1854 113.912C71.2781 113.128 71.4957 112.364 71.8301 111.649C72.1331 110.978 72.5722 110.377 73.1195 109.884V109.793ZM82.3378 98.2072C82.1229 103.627 72.9386 103.638 72.735 98.2072C71.8075 88.918 69.4322 65.0104 69.5001 56.2868C69.5793 53.594 71.7622 51.9986 74.6578 51.3876C76.5247 51.0166 78.4463 51.0166 80.3132 51.3876C83.2653 52.0212 85.5727 53.6505 85.5727 56.4113V56.6828L82.3378 98.2072Z" fill="#AAAAAA"/>
</g>
<defs>
<clipPath id="clip0_28586_355">
<rect width="155.294" height="155.294" fill="white"/>
</clipPath>
</defs>
</svg>
