<svg width="920" height="200" viewBox="0 0 920 200" fill="none" xmlns="http://www.w3.org/2000/svg">
<rect width="920" height="200" rx="60" fill="#808080" fill-opacity="0.5"/>
<path d="M154.725 121.734H147.917L145.504 119.359C155.846 107.049 161.189 90.253 158.259 72.4023C154.208 47.9564 134.215 28.435 110.086 25.4452C73.6338 20.8726 42.9551 52.1773 47.4363 89.3736C50.3663 113.995 69.4973 134.396 93.4542 138.529C110.948 141.519 127.408 136.067 139.472 125.515L141.799 127.977V134.924L178.51 172.296C182.043 175.901 187.731 175.901 191.264 172.296L191.35 172.208C194.883 168.603 194.883 162.799 191.35 159.194L154.725 121.734ZM103.02 121.734C81.5619 121.734 64.2406 104.059 64.2406 82.163C64.2406 60.2673 81.5619 42.5924 103.02 42.5924C124.478 42.5924 141.799 60.2673 141.799 82.163C141.799 104.059 124.478 121.734 103.02 121.734ZM85.7846 77.7663H120.255C122.668 77.7663 124.564 79.7008 124.564 82.163C124.564 84.6252 122.668 86.5597 120.255 86.5597H85.7846C83.3716 86.5597 81.4758 84.6252 81.4758 82.163C81.4758 79.7008 83.3716 77.7663 85.7846 77.7663Z" fill="white"/>
<path d="M380.721 121.734H373.913L371.5 119.359C381.842 107.049 387.185 90.253 384.255 72.4023C380.204 47.9564 360.209 28.435 336.078 25.4452C299.622 20.8726 269.026 52.1773 273.422 89.3736C276.352 113.995 295.485 134.396 319.444 138.529C336.94 141.519 353.401 136.067 365.467 125.515L367.794 127.977V134.924L404.508 172.296C408.042 175.901 413.73 175.901 417.264 172.296L417.35 172.208C420.883 168.603 420.883 162.799 417.35 159.194L380.721 121.734ZM329.011 121.734C307.551 121.734 290.228 104.059 290.228 82.163C290.228 60.2673 307.551 42.5924 329.011 42.5924C350.471 42.5924 367.794 60.2673 367.794 82.163C367.794 104.059 350.471 121.734 329.011 121.734ZM329.011 60.1794C326.597 60.1794 324.701 62.1139 324.701 64.5761V77.7663H311.774C309.361 77.7663 307.465 79.7008 307.465 82.163C307.465 84.6252 309.361 86.5597 311.774 86.5597H324.701V99.7499C324.701 102.212 326.597 104.147 329.011 104.147C331.424 104.147 333.32 102.212 333.32 99.7499V86.5597H346.248C348.661 86.5597 350.557 84.6252 350.557 82.163C350.557 79.7008 348.661 77.7663 346.248 77.7663H333.32V64.5761C333.32 62.1139 331.424 60.1794 329.011 60.1794Z" fill="white"/>
<path d="M630.201 77.5701H602.724C598.218 77.5701 594.481 73.757 594.481 69.1589V41.1215C594.481 36.5234 598.218 32.7103 602.724 32.7103C607.23 32.7103 610.967 36.5234 610.967 41.1215V48.8598L631.959 27.4393C635.147 24.1869 640.422 24.1869 643.61 27.4393C646.797 30.6916 646.797 36.0748 643.61 39.3271L622.617 60.7477H630.201C634.707 60.7477 638.444 64.5608 638.444 69.1589C638.444 73.757 634.707 77.5701 630.201 77.5701ZM506.556 69.1589C506.556 64.5608 510.293 60.7477 514.799 60.7477H522.383L501.39 39.3271C498.203 36.0748 498.203 30.6916 501.39 27.4393C504.578 24.1869 509.853 24.1869 513.041 27.4393L534.033 48.8598V41.1215C534.033 36.5234 537.77 32.7103 542.276 32.7103C546.782 32.7103 550.519 36.5234 550.519 41.1215V69.1589C550.519 73.757 546.782 77.5701 542.276 77.5701H514.799C510.293 77.5701 506.556 73.757 506.556 69.1589ZM638.444 130.841C638.444 135.439 634.707 139.252 630.201 139.252H622.617L643.61 160.673C646.797 163.925 646.797 169.308 643.61 172.561C640.422 175.813 635.147 175.813 631.959 172.561L610.967 151.14V158.879C610.967 163.477 607.23 167.29 602.724 167.29C598.218 167.29 594.481 163.477 594.481 158.879V130.841C594.481 126.243 598.218 122.43 602.724 122.43H630.201C634.707 122.43 638.444 126.243 638.444 130.841ZM514.799 122.43H542.276C546.782 122.43 550.519 126.243 550.519 130.841V158.879C550.519 163.477 546.782 167.29 542.276 167.29C537.77 167.29 534.033 163.477 534.033 158.879V151.14L513.041 172.561C509.853 175.813 504.578 175.813 501.39 172.561C498.203 169.308 498.203 163.925 501.39 160.673L522.383 139.252H514.799C510.293 139.252 506.556 135.439 506.556 130.841C506.556 126.243 510.293 122.43 514.799 122.43Z" fill="white"/>
<path d="M798.5 117.422L745.505 171.32C743.197 173.68 740.357 174.905 736.984 174.995C733.611 175.086 730.859 173.861 728.728 171.32C726.243 168.961 725 166.103 725 162.746C725 159.388 726.243 156.439 728.728 153.899L781.723 100L728.728 45.8295C726.243 43.4703 725 40.612 725 37.2547C725 33.8974 726.243 30.9484 728.728 28.4077C730.859 26.0485 733.611 24.9143 736.984 25.005C740.357 25.0958 743.197 26.3207 745.505 28.6799L798.5 82.5784L851.495 28.6799C853.803 26.3207 856.643 25.0958 860.016 25.005C863.389 24.9143 866.141 26.0485 868.272 28.4077C870.757 30.9484 872 33.8974 872 37.2547C872 40.612 870.846 43.4703 868.538 45.8295L815.543 100L868.538 153.899C870.846 156.439 872 159.388 872 162.746C872 166.103 870.757 168.961 868.272 171.32C866.141 173.861 863.389 175.086 860.016 174.995C856.643 174.905 853.803 173.68 851.495 171.32L798.5 117.422Z" fill="white"/>
</svg>
