<svg width="920" height="200" viewBox="0 0 920 200" fill="none" xmlns="http://www.w3.org/2000/svg">
<rect width="920" height="200" rx="60" fill="#808080" fill-opacity="0.5"/>
<g clip-path="url(#clip0_29018_21)">
<path d="M86.6166 85.7239C84.9075 85.7239 83.4752 85.1421 82.3197 83.9786C81.1629 82.8164 80.5844 81.3753 80.5844 79.6555C80.5844 77.937 81.1629 76.508 82.3197 75.3686C83.4752 74.2292 84.9075 73.6595 86.6166 73.6595H114.968C116.677 73.6595 118.11 74.2413 119.267 75.4048C120.422 76.567 121 78.008 121 79.7279C121 81.4464 120.422 82.8753 119.267 84.0147C118.11 85.1542 116.677 85.7239 114.968 85.7239H86.6166ZM101.295 134.786C85.8579 134.786 72.7828 129.424 62.0697 118.7C51.3566 107.976 46 95.0402 46 79.8928C46 64.7453 51.3619 51.8097 62.0858 41.0858C72.8097 30.3619 85.7788 25 100.993 25C116.208 25 129.143 30.3619 139.8 41.0858C150.457 51.8097 155.786 64.7554 155.786 79.9229C155.786 85.935 154.948 91.5214 153.272 96.6823C151.597 101.843 149.083 106.702 145.732 111.26L193.185 158.311C195.062 160.263 196 162.56 196 165.204C196 167.847 195.062 170.107 193.185 171.984C191.237 173.995 188.926 175 186.25 175C183.576 175 181.33 173.995 179.512 171.984L132.26 124.933C128.373 128.005 123.784 130.416 118.495 132.164C113.205 133.912 107.472 134.786 101.295 134.786ZM101.164 115.885C111.204 115.885 119.668 112.399 126.556 105.429C133.442 98.4584 136.885 89.9464 136.885 79.8928C136.885 69.8391 133.432 61.3271 126.525 54.3566C119.619 47.3861 111.166 43.9008 101.164 43.9008C91.0529 43.9008 82.4812 47.3861 75.4491 54.3566C68.4169 61.3271 64.9008 69.8391 64.9008 79.8928C64.9008 89.9464 68.4068 98.4584 75.4189 105.429C82.431 112.399 91.0127 115.885 101.164 115.885Z" fill="white"/>
</g>
<g clip-path="url(#clip1_29018_21)">
<path d="M320.861 85.7239H311.41C309.701 85.7239 308.269 85.1421 307.113 83.9786C305.956 82.8164 305.378 81.3753 305.378 79.6555C305.378 77.937 305.956 76.508 307.113 75.3686C308.269 74.2292 309.701 73.6595 311.41 73.6595H320.861V64.2091C320.861 62.634 321.442 61.2346 322.606 60.0107C323.768 58.7882 325.209 58.1769 326.929 58.1769C328.647 58.1769 330.076 58.7882 331.216 60.0107C332.355 61.2346 332.925 62.634 332.925 64.2091V73.6595H342.375C343.95 73.6595 345.35 74.2413 346.574 75.4048C347.796 76.567 348.408 78.008 348.408 79.7279C348.408 81.4464 347.796 82.8753 346.574 84.0147C345.35 85.1542 343.95 85.7239 342.375 85.7239H332.925V95.1139C332.925 96.8633 332.343 98.3157 331.18 99.4712C330.017 100.628 328.576 101.206 326.857 101.206C325.138 101.206 323.709 100.628 322.57 99.4712C321.43 98.3157 320.861 96.8633 320.861 95.1139V85.7239ZM327.295 134.786C311.858 134.786 298.783 129.424 288.07 118.7C277.357 107.976 272 95.0402 272 79.8928C272 64.7453 277.362 51.8097 288.086 41.0858C298.81 30.3619 311.779 25 326.993 25C342.208 25 355.143 30.3619 365.8 41.0858C376.457 51.8097 381.786 64.7554 381.786 79.9229C381.786 85.935 380.948 91.5214 379.272 96.6823C377.597 101.843 375.083 106.702 371.732 111.26L419.185 158.311C421.062 160.263 422 162.56 422 165.204C422 167.847 421.095 170.107 419.286 171.984C417.271 173.995 414.926 175 412.25 175C409.576 175 407.33 173.995 405.512 171.984L358.26 124.933C354.373 128.005 349.784 130.416 344.495 132.164C339.205 133.912 333.472 134.786 327.295 134.786ZM327.164 115.885C337.204 115.885 345.668 112.399 352.556 105.429C359.442 98.4584 362.885 89.9464 362.885 79.8928C362.885 69.8391 359.432 61.3271 352.525 54.3566C345.619 47.3861 337.166 43.9008 327.164 43.9008C317.053 43.9008 308.481 47.3861 301.449 54.3566C294.417 61.3271 290.901 69.8391 290.901 79.8928C290.901 89.9464 294.407 98.4584 301.419 105.429C308.431 112.399 317.013 115.885 327.164 115.885Z" fill="white"/>
</g>
<path d="M535.52 150.004L517.655 167.869C515.813 169.711 513.757 170.57 511.485 170.447C509.214 170.325 507.188 169.373 505.407 167.593C503.627 165.812 502.737 163.725 502.737 161.331C502.737 158.936 503.658 156.818 505.499 154.977L522.996 137.48H510.656C508.231 137.48 506.183 136.64 504.51 134.96C502.837 133.282 502 131.225 502 128.79C502 126.357 502.837 124.311 504.51 122.654C506.183 120.996 508.231 120.167 510.656 120.167H544.176C546.601 120.167 548.651 121.003 550.324 122.676C551.997 124.349 552.833 126.399 552.833 128.824V162.344C552.833 164.769 551.993 166.817 550.313 168.49C548.635 170.163 546.578 171 544.143 171C541.71 171 539.664 170.163 538.006 168.49C536.349 166.817 535.52 164.769 535.52 162.344V150.004ZM610.48 150.004V162.344C610.48 164.769 609.609 166.817 607.868 168.49C606.128 170.163 604.041 171 601.606 171C599.173 171 597.127 170.163 595.47 168.49C593.812 166.817 592.983 164.769 592.983 162.344V128.824C592.983 126.399 593.82 124.349 595.493 122.676C597.166 121.003 599.214 120.167 601.639 120.167H635.16C637.585 120.167 639.664 121.007 641.399 122.687C643.133 124.365 644 126.422 644 128.857C644 131.29 643.133 133.336 641.399 134.994C639.664 136.651 637.585 137.48 635.16 137.48H622.82L640.685 155.345C642.527 157.187 643.447 159.243 643.447 161.515C643.447 163.786 642.527 165.812 640.685 167.593C638.843 169.373 636.756 170.263 634.423 170.263C632.09 170.263 630.003 169.342 628.161 167.501L610.48 150.004ZM522.996 62.5201L505.131 44.8392C503.289 42.9974 502.43 40.9101 502.553 38.5772C502.675 36.2443 503.627 34.1569 505.407 32.3152C507.188 30.4734 509.275 29.5525 511.669 29.5525C514.064 29.5525 516.182 30.4734 518.023 32.3152L535.52 50.1803V37.8405C535.52 35.4155 536.36 33.3355 538.04 31.6006C539.718 29.8669 541.775 29 544.21 29C546.643 29 548.689 29.8669 550.346 31.6006C552.004 33.3355 552.833 35.4155 552.833 37.8405V71.3606C552.833 73.7856 551.997 75.8342 550.324 77.5065C548.651 79.1801 546.601 80.0169 544.176 80.0169H510.656C508.231 80.0169 506.183 79.177 504.51 77.4973C502.837 75.8189 502 73.7622 502 71.3274C502 68.8938 502.837 66.8176 504.51 65.0986C506.183 63.3796 508.231 62.5201 510.656 62.5201H522.996ZM622.82 62.5201H635.16C637.585 62.5201 639.664 63.3906 641.399 65.1317C643.133 66.8716 644 68.9589 644 71.3937C644 73.8273 643.133 75.8729 641.399 77.5305C639.664 79.1881 637.585 80.0169 635.16 80.0169H601.639C599.214 80.0169 597.166 79.1801 595.493 77.5065C593.82 75.8342 592.983 73.7856 592.983 71.3606V37.8405C592.983 35.4155 593.823 33.3355 595.503 31.6006C597.181 29.8669 599.238 29 601.673 29C604.106 29 606.182 29.8669 607.901 31.6006C609.62 33.3355 610.48 35.4155 610.48 37.8405V50.1803L628.345 32.131C630.187 30.2892 632.274 29.3684 634.607 29.3684C636.94 29.3684 639.027 30.2892 640.869 32.131C642.711 33.9728 643.632 36.0601 643.632 38.393C643.632 40.7259 642.711 42.8132 640.869 44.655L622.82 62.5201Z" fill="white"/>
<path d="M799 115.432L752.705 161.727C750.523 163.909 747.951 165 744.989 165C742.028 165 739.456 163.909 737.273 161.727C735.091 159.544 734 156.972 734 154.011C734 151.049 735.091 148.477 737.273 146.295L783.568 100L737.273 53.705C735.091 51.5228 734 48.9508 734 45.9892C734 43.0276 735.091 40.4556 737.273 38.2734C739.456 36.0911 742.028 35 744.989 35C747.951 35 750.523 36.0911 752.705 38.2734L799 84.5683L845.295 38.2734C847.477 36.0911 850.049 35 853.011 35C855.972 35 858.544 36.0911 860.727 38.2734C862.909 40.4556 864 43.0276 864 45.9892C864 48.9508 862.909 51.5228 860.727 53.705L814.432 100L860.727 146.295C862.909 148.477 864 151.049 864 154.011C864 156.972 862.909 159.544 860.727 161.727C858.544 163.909 855.972 165 853.011 165C850.049 165 847.477 163.909 845.295 161.727L799 115.432Z" fill="white"/>
<defs>
<clipPath id="clip0_29018_21">
<rect width="150" height="150" fill="white" transform="translate(46 25)"/>
</clipPath>
<clipPath id="clip1_29018_21">
<rect width="150" height="150" fill="white" transform="translate(272 25)"/>
</clipPath>
</defs>
</svg>
