<svg width="920" height="200" viewBox="0 0 920 200" fill="none" xmlns="http://www.w3.org/2000/svg">
<rect width="920" height="200" rx="60" fill="#808080" fill-opacity="0.5"/>
<path d="M80.6166 85.7239C78.9075 85.7239 77.4752 85.1421 76.3197 83.9786C75.1629 82.8164 74.5844 81.3753 74.5844 79.6555C74.5844 77.937 75.1629 76.508 76.3197 75.3686C77.4752 74.2292 78.9075 73.6595 80.6166 73.6595H108.968C110.677 73.6595 112.11 74.2413 113.267 75.4048C114.422 76.567 115 78.008 115 79.7279C115 81.4464 114.422 82.8753 113.267 84.0147C112.11 85.1542 110.677 85.7239 108.968 85.7239H80.6166ZM95.2949 134.786C79.8579 134.786 66.7828 129.424 56.0697 118.7C45.3566 107.976 40 95.0402 40 79.8928C40 64.7453 45.3619 51.8097 56.0858 41.0858C66.8097 30.3619 79.7788 25 94.9933 25C110.208 25 123.143 30.3619 133.8 41.0858C144.457 51.8097 149.786 64.7554 149.786 79.9229C149.786 85.935 148.948 91.5214 147.272 96.6823C145.597 101.843 143.083 106.702 139.732 111.26L187.185 158.311C189.062 160.263 190 162.56 190 165.204C190 167.847 189.062 170.107 187.185 171.984C185.237 173.995 182.926 175 180.25 175C177.576 175 175.33 173.995 173.512 171.984L126.26 124.933C122.373 128.005 117.784 130.416 112.495 132.164C107.205 133.912 101.472 134.786 95.2949 134.786ZM95.1642 115.885C105.204 115.885 113.668 112.399 120.556 105.429C127.442 98.4584 130.885 89.9464 130.885 79.8928C130.885 69.8391 127.432 61.3271 120.525 54.3566C113.619 47.3861 105.166 43.9008 95.1642 43.9008C85.0529 43.9008 76.4812 47.3861 69.4491 54.3566C62.4169 61.3271 58.9008 69.8391 58.9008 79.8928C58.9008 89.9464 62.4068 98.4584 69.4189 105.429C76.431 112.399 85.0127 115.885 95.1642 115.885Z" fill="white"/>
<path d="M318.861 85.7239H309.41C307.701 85.7239 306.269 85.1421 305.113 83.9786C303.956 82.8164 303.378 81.3753 303.378 79.6555C303.378 77.937 303.956 76.508 305.113 75.3686C306.269 74.2292 307.701 73.6595 309.41 73.6595H318.861V64.2091C318.861 62.634 319.442 61.2346 320.606 60.0107C321.768 58.7882 323.209 58.1769 324.929 58.1769C326.647 58.1769 328.076 58.7882 329.216 60.0107C330.355 61.2346 330.925 62.634 330.925 64.2091V73.6595H340.375C341.95 73.6595 343.35 74.2413 344.574 75.4048C345.796 76.567 346.408 78.008 346.408 79.7279C346.408 81.4464 345.796 82.8753 344.574 84.0147C343.35 85.1542 341.95 85.7239 340.375 85.7239H330.925V95.1139C330.925 96.8633 330.343 98.3157 329.18 99.4712C328.017 100.628 326.576 101.206 324.857 101.206C323.138 101.206 321.709 100.628 320.57 99.4712C319.43 98.3157 318.861 96.8633 318.861 95.1139V85.7239ZM325.295 134.786C309.858 134.786 296.783 129.424 286.07 118.7C275.357 107.976 270 95.0402 270 79.8928C270 64.7453 275.362 51.8097 286.086 41.0858C296.81 30.3619 309.779 25 324.993 25C340.208 25 353.143 30.3619 363.8 41.0858C374.457 51.8097 379.786 64.7554 379.786 79.9229C379.786 85.935 378.948 91.5214 377.272 96.6823C375.597 101.843 373.083 106.702 369.732 111.26L417.185 158.311C419.062 160.263 420 162.56 420 165.204C420 167.847 419.095 170.107 417.286 171.984C415.271 173.995 412.926 175 410.25 175C407.576 175 405.33 173.995 403.512 171.984L356.26 124.933C352.373 128.005 347.784 130.416 342.495 132.164C337.205 133.912 331.472 134.786 325.295 134.786ZM325.164 115.885C335.204 115.885 343.668 112.399 350.556 105.429C357.442 98.4584 360.885 89.9464 360.885 79.8928C360.885 69.8391 357.432 61.3271 350.525 54.3566C343.619 47.3861 335.166 43.9008 325.164 43.9008C315.053 43.9008 306.481 47.3861 299.449 54.3566C292.417 61.3271 288.901 69.8391 288.901 79.8928C288.901 89.9464 292.407 98.4584 299.419 105.429C306.431 112.399 315.013 115.885 325.164 115.885Z" fill="white"/>
<path d="M537.52 150.004L519.655 167.869C517.813 169.711 515.757 170.57 513.485 170.447C511.214 170.325 509.188 169.373 507.407 167.593C505.627 165.812 504.737 163.725 504.737 161.331C504.737 158.936 505.658 156.818 507.499 154.977L524.996 137.48H512.656C510.231 137.48 508.183 136.64 506.51 134.96C504.837 133.282 504 131.225 504 128.79C504 126.357 504.837 124.311 506.51 122.654C508.183 120.996 510.231 120.167 512.656 120.167H546.176C548.601 120.167 550.651 121.003 552.324 122.676C553.997 124.349 554.833 126.399 554.833 128.824V162.344C554.833 164.769 553.993 166.817 552.313 168.49C550.635 170.163 548.578 171 546.143 171C543.71 171 541.664 170.163 540.006 168.49C538.349 166.817 537.52 164.769 537.52 162.344V150.004ZM612.48 150.004V162.344C612.48 164.769 611.609 166.817 609.868 168.49C608.128 170.163 606.041 171 603.606 171C601.173 171 599.127 170.163 597.47 168.49C595.812 166.817 594.983 164.769 594.983 162.344V128.824C594.983 126.399 595.82 124.349 597.493 122.676C599.166 121.003 601.214 120.167 603.639 120.167H637.16C639.585 120.167 641.664 121.007 643.399 122.687C645.133 124.365 646 126.422 646 128.857C646 131.29 645.133 133.336 643.399 134.994C641.664 136.651 639.585 137.48 637.16 137.48H624.82L642.685 155.345C644.527 157.187 645.447 159.243 645.447 161.515C645.447 163.786 644.527 165.812 642.685 167.593C640.843 169.373 638.756 170.263 636.423 170.263C634.09 170.263 632.003 169.342 630.161 167.501L612.48 150.004ZM524.996 62.5201L507.131 44.8392C505.289 42.9974 504.43 40.9101 504.553 38.5772C504.675 36.2443 505.627 34.1569 507.407 32.3152C509.188 30.4734 511.275 29.5525 513.669 29.5525C516.064 29.5525 518.182 30.4734 520.023 32.3152L537.52 50.1803V37.8405C537.52 35.4155 538.36 33.3355 540.04 31.6006C541.718 29.8669 543.775 29 546.21 29C548.643 29 550.689 29.8669 552.346 31.6006C554.004 33.3355 554.833 35.4155 554.833 37.8405V71.3606C554.833 73.7856 553.997 75.8342 552.324 77.5065C550.651 79.1801 548.601 80.0169 546.176 80.0169H512.656C510.231 80.0169 508.183 79.177 506.51 77.4973C504.837 75.8189 504 73.7622 504 71.3274C504 68.8938 504.837 66.8176 506.51 65.0986C508.183 63.3796 510.231 62.5201 512.656 62.5201H524.996ZM624.82 62.5201H637.16C639.585 62.5201 641.664 63.3906 643.399 65.1317C645.133 66.8716 646 68.9589 646 71.3937C646 73.8273 645.133 75.8729 643.399 77.5305C641.664 79.1881 639.585 80.0169 637.16 80.0169H603.639C601.214 80.0169 599.166 79.1801 597.493 77.5065C595.82 75.8342 594.983 73.7856 594.983 71.3606V37.8405C594.983 35.4155 595.823 33.3355 597.503 31.6006C599.181 29.8669 601.238 29 603.673 29C606.106 29 608.182 29.8669 609.901 31.6006C611.62 33.3355 612.48 35.4155 612.48 37.8405V50.1803L630.345 32.131C632.187 30.2892 634.274 29.3684 636.607 29.3684C638.94 29.3684 641.027 30.2892 642.869 32.131C644.711 33.9728 645.632 36.0601 645.632 38.393C645.632 40.7259 644.711 42.8132 642.869 44.655L624.82 62.5201Z" fill="white"/>
<path d="M805 115.432L758.705 161.727C756.523 163.909 753.951 165 750.989 165C748.028 165 745.456 163.909 743.273 161.727C741.091 159.544 740 156.972 740 154.011C740 151.049 741.091 148.477 743.273 146.295L789.568 100L743.273 53.705C741.091 51.5228 740 48.9508 740 45.9892C740 43.0276 741.091 40.4556 743.273 38.2734C745.456 36.0911 748.028 35 750.989 35C753.951 35 756.523 36.0911 758.705 38.2734L805 84.5683L851.295 38.2734C853.477 36.0911 856.049 35 859.011 35C861.972 35 864.544 36.0911 866.727 38.2734C868.909 40.4556 870 43.0276 870 45.9892C870 48.9508 868.909 51.5228 866.727 53.705L820.432 100L866.727 146.295C868.909 148.477 870 151.049 870 154.011C870 156.972 868.909 159.544 866.727 161.727C864.544 163.909 861.972 165 859.011 165C856.049 165 853.477 163.909 851.295 161.727L805 115.432Z" fill="white"/>
</svg>
